{"glyphs":{"0":{"ha":792,"x_min":28,"x_max":746,"o":"m 729 417 q 658 176 713 271 q 518 33 603 81 q 326 -14 433 -14 q 97 92 167 -14 q 63 417 28 199 q 140 655 86 563 q 275 794 193 747 q 465 847 357 840 q 638 807 574 854 q 724 661 701 760 q 729 417 746 563 m 201 417 q 211 173 175 244 q 347 111 247 101 q 462 146 414 118 q 541 238 510 174 q 590 417 572 301 q 599 605 608 532 q 551 710 589 678 q 447 736 514 743 q 332 698 381 729 q 251 599 283 667 q 201 417 219 532 z "},"1":{"ha":531,"x_min":-44,"x_max":465,"o":"m 28 -14 q -31 5 -18 -17 q -42 53 -44 26 q -21 91 -36 78 q 19 104 -6 104 l 128 104 q 143 118 140 104 l 226 636 q 211 646 229 654 q 156 618 185 632 q 101 604 126 604 q 66 629 76 604 q 60 676 56 654 q 77 713 64 700 q 114 731 90 725 q 212 762 167 743 q 301 810 257 781 q 353 831 328 826 q 394 824 379 836 q 401 778 408 811 l 282 118 q 285 108 281 113 q 294 104 289 104 q 350 110 322 106 q 404 118 378 114 q 447 105 429 122 q 458 51 465 88 q 431 8 453 17 q 385 0 410 0 q 208 -3 289 0 q 28 -14 126 -7 z "},"2":{"ha":714,"x_min":-43,"x_max":681,"o":"m 14 -14 q -32 10 -21 -17 q -39 71 -43 36 q -3 177 -29 129 q 61 264 22 225 q 149 335 100 303 q 253 392 197 367 q 349 433 301 414 q 439 474 397 453 q 508 526 481 496 q 543 597 536 556 q 536 667 550 639 q 495 713 522 696 q 435 736 468 729 q 369 743 401 743 q 256 728 308 743 q 154 683 204 713 q 117 674 136 674 q 83 686 97 674 q 68 722 69 699 q 84 767 67 747 q 126 796 101 786 q 255 834 188 821 q 386 847 322 847 q 557 818 490 847 q 652 733 624 789 q 668 597 681 678 q 631 504 660 544 q 559 433 601 464 q 469 380 517 403 q 377 339 422 357 q 299 306 332 321 q 161 215 206 264 q 104 118 117 167 q 108 108 104 113 q 117 104 111 104 q 328 114 222 106 q 540 132 433 122 q 583 111 567 135 q 593 51 600 88 q 567 13 589 26 q 519 0 544 0 q 267 -1 393 0 q 14 -14 142 -3 z "},"3":{"ha":660,"x_min":-37,"x_max":649,"o":"m 224 -107 q 106 -99 163 -107 q 0 -75 49 -92 q -31 -49 -24 -67 q -32 -6 -37 -32 q -15 34 -29 15 q 19 60 -1 53 q 64 56 40 68 q 144 28 97 38 q 243 18 192 18 q 390 63 333 18 q 461 203 447 107 q 453 310 472 269 q 390 367 435 351 q 279 371 346 382 q 176 362 213 361 q 146 393 140 363 q 160 432 149 418 q 192 465 172 446 l 439 706 q 444 717 446 713 q 435 722 443 722 q 291 720 363 722 q 144 708 219 718 q 113 717 126 707 q 92 744 99 726 q 88 779 85 761 q 115 819 92 806 q 164 833 138 833 l 585 833 q 632 819 615 833 q 647 785 649 806 q 621 742 646 764 l 335 488 q 330 476 329 482 q 342 472 331 471 q 500 451 438 482 q 588 356 563 419 q 600 203 614 292 q 534 40 586 110 q 403 -69 482 -31 q 224 -107 324 -107 z "},"4":{"ha":763,"x_min":-8,"x_max":697,"o":"m 454 -107 q 416 -95 433 -107 q 390 -65 399 -83 q 386 -25 382 -46 l 407 118 q 397 132 411 132 q 269 131 357 132 q 51 118 181 129 q 5 141 18 115 q -3 199 -8 167 q 8 242 1 222 q 31 283 15 261 q 125 412 72 347 q 241 542 178 476 q 376 673 304 608 q 529 801 449 738 q 574 826 553 819 q 619 833 594 833 q 658 815 647 833 q 665 765 669 797 q 635 601 651 683 q 601 436 618 518 q 571 271 585 354 q 583 257 571 257 l 649 257 q 686 236 675 257 q 693 188 697 215 q 682 157 690 169 q 660 138 674 144 q 629 132 647 132 l 564 132 q 546 118 550 132 q 538 47 540 82 q 539 -25 535 11 q 528 -65 540 -46 q 497 -95 517 -83 q 454 -107 478 -107 m 175 244 q 295 251 238 247 q 417 257 353 256 q 427 260 424 257 q 432 271 431 264 q 467 440 447 356 q 501 608 486 524 q 496 619 501 618 q 482 614 490 621 q 366 502 425 563 q 255 380 307 442 q 167 260 203 318 q 165 248 163 253 q 175 244 168 243 z "},"5":{"ha":736,"x_min":42,"x_max":725,"o":"m 299 -107 q 181 -99 238 -107 q 76 -74 125 -90 q 48 -47 54 -67 q 44 -4 42 -28 q 62 34 49 17 q 95 58 75 51 q 138 53 115 64 q 214 27 174 36 q 319 18 254 18 q 426 38 381 18 q 499 98 471 57 q 538 203 528 139 q 510 356 553 301 q 368 410 467 410 q 274 405 317 410 q 192 392 232 400 q 135 397 153 383 q 121 439 117 411 l 163 694 q 161 705 164 701 q 150 710 158 708 q 112 731 124 713 q 106 779 100 749 q 135 819 111 806 q 197 833 160 833 q 416 837 313 833 q 638 861 519 840 q 676 856 656 864 q 711 830 697 849 q 719 779 725 811 q 703 744 717 761 q 671 717 690 726 q 628 708 651 707 q 472 713 547 714 q 318 708 397 711 q 301 694 304 708 l 274 522 q 286 508 271 506 q 335 514 310 511 q 386 518 360 517 q 560 485 490 525 q 661 371 631 444 q 676 203 692 297 q 610 40 663 110 q 478 -69 558 -31 q 299 -107 399 -107 z "},"6":{"ha":742,"x_min":19,"x_max":675,"o":"m 38 347 q 105 575 57 472 q 224 754 153 678 q 388 877 296 831 q 586 936 479 924 q 637 927 621 940 q 647 889 653 914 q 625 849 643 863 q 574 832 607 836 q 372 742 460 815 q 233 544 285 668 q 233 531 229 535 q 246 532 238 528 q 322 558 282 550 q 394 569 363 567 q 555 540 490 576 q 647 435 619 504 q 661 278 675 367 q 598 127 647 190 q 472 28 549 64 q 300 -14 396 -7 q 131 22 196 -21 q 43 148 67 64 q 38 347 19 232 m 172 278 q 205 147 171 194 q 318 104 239 99 q 454 151 400 110 q 522 278 508 193 q 497 415 536 364 q 378 465 458 465 q 308 456 344 465 q 242 433 271 446 q 206 408 214 419 q 181 353 188 385 q 172 278 174 321 z "},"7":{"ha":622,"x_min":49,"x_max":671,"o":"m 110 -107 q 63 -82 76 -107 q 58 -22 49 -57 q 126 159 82 67 q 222 338 169 251 q 327 499 275 425 q 420 628 379 574 q 481 706 461 682 q 486 717 488 713 q 476 722 485 722 q 303 720 389 722 q 128 708 217 718 q 96 717 110 707 q 76 744 82 726 q 72 779 69 761 q 87 813 75 797 q 116 839 99 829 q 150 847 133 849 q 379 835 264 838 q 608 833 494 833 q 659 817 647 833 q 667 778 671 800 q 651 742 664 757 q 624 709 651 742 q 554 619 597 676 q 460 485 511 561 q 358 324 408 410 q 269 148 308 238 q 210 -26 229 58 q 190 -66 206 -47 q 154 -96 175 -85 q 110 -107 133 -107 z "},"8":{"ha":672,"x_min":-3,"x_max":682,"o":"m 113 694 q 169 824 125 769 q 280 910 213 879 q 432 940 347 940 q 574 910 517 940 q 656 824 631 879 q 669 694 682 769 q 618 588 661 639 q 503 508 575 538 q 493 501 493 506 q 501 493 493 497 q 610 401 571 458 q 638 269 650 343 q 576 119 625 183 q 451 21 526 56 q 279 -14 375 -14 q 119 21 185 -14 q 26 119 54 56 q 10 269 -3 183 q 44 361 18 318 q 112 440 71 404 q 206 497 153 475 q 207 514 222 506 q 130 590 156 542 q 113 694 104 638 m 238 694 q 263 603 228 632 q 361 556 299 575 q 371 554 367 554 q 381 556 375 554 q 461 585 426 569 q 517 627 496 601 q 544 694 539 653 q 520 798 556 760 q 415 836 485 836 q 297 798 346 836 q 238 694 249 760 m 149 269 q 156 177 140 215 q 209 120 172 139 q 299 104 246 101 q 433 149 379 110 q 499 269 486 189 q 483 354 507 322 q 417 407 458 386 q 333 444 376 428 q 326 447 329 447 q 317 446 322 447 q 245 408 281 429 q 183 354 210 386 q 149 269 157 322 z "},"9":{"ha":742,"x_min":57,"x_max":714,"o":"m 694 486 q 626 257 675 361 q 506 74 578 153 q 343 -50 435 -4 q 146 -103 251 -96 q 96 -92 113 -104 q 85 -56 79 -81 q 109 -8 89 -29 q 160 15 129 14 q 300 53 236 19 q 415 147 364 86 q 499 289 465 207 q 499 302 503 299 q 486 301 494 306 q 410 275 450 283 q 338 264 369 267 q 177 293 242 257 q 85 398 113 329 q 71 556 57 467 q 134 710 85 644 q 260 812 183 775 q 432 847 336 849 q 599 805 535 847 q 689 683 664 763 q 694 486 714 603 m 560 556 q 526 681 561 639 q 414 729 492 724 q 279 688 333 735 q 210 556 225 642 q 237 426 196 471 q 358 382 278 382 q 428 388 392 382 q 492 404 464 394 q 526 425 519 414 q 551 481 544 449 q 560 556 558 513 z "},"A":{"ha":764,"x_min":-8,"x_max":690,"o":"m 60 0 q 19 10 35 0 q 2 38 4 19 q 10 82 0 57 q 27 128 17 106 q 47 175 38 151 q 50 187 50 182 q 46 192 50 192 q 42 190 44 190 q 38 190 40 190 q 10 199 21 189 q -5 225 -1 208 q -6 258 -8 242 l -6 261 q 6 291 -3 279 q 26 309 14 303 q 57 315 39 315 l 94 315 q 106 318 101 315 q 111 326 110 321 q 176 467 143 397 q 244 608 210 538 q 314 746 278 678 q 386 879 350 814 q 486 940 417 940 q 567 879 553 940 q 619 617 596 753 q 659 346 642 482 q 688 82 676 210 q 672 22 690 43 q 617 0 653 0 q 559 22 578 0 q 538 86 540 43 q 537 139 538 113 q 533 192 536 165 q 519 204 533 204 q 444 204 482 204 q 367 203 406 204 q 289 201 328 203 q 211 199 250 200 q 201 196 206 199 q 196 186 197 193 q 174 127 185 157 q 151 67 163 97 q 117 17 140 33 q 60 0 94 0 m 260 315 q 386 318 324 317 q 510 322 449 319 q 522 328 518 324 q 524 342 525 333 q 500 567 514 460 q 467 764 486 675 q 458 772 464 772 q 447 764 453 772 q 347 563 397 674 q 251 331 297 451 q 251 319 249 324 q 260 315 253 315 z "},"Á":{"ha":764,"x_min":-8,"x_max":690,"o":"m 60 0 q 19 10 35 0 q 2 38 4 19 q 10 82 0 57 q 27 128 17 106 q 47 175 38 151 q 50 187 50 182 q 46 192 50 192 q 42 190 44 190 q 38 190 40 190 q 10 199 21 189 q -5 225 -1 208 q -6 258 -8 242 l -6 261 q 6 291 -3 279 q 26 309 14 303 q 57 315 39 315 l 94 315 q 106 318 101 315 q 111 326 110 321 q 176 467 143 397 q 244 608 210 538 q 314 746 278 678 q 386 879 350 814 q 486 940 417 940 q 567 879 553 940 q 619 617 596 753 q 659 346 642 482 q 688 82 676 210 q 672 22 690 43 q 617 0 653 0 q 559 22 578 0 q 538 86 540 43 q 537 139 538 113 q 533 192 536 165 q 519 204 533 204 q 444 204 482 204 q 367 203 406 204 q 289 201 328 203 q 211 199 250 200 q 201 196 206 199 q 196 186 197 193 q 174 127 185 157 q 151 67 163 97 q 117 17 140 33 q 60 0 94 0 m 260 315 q 386 318 324 317 q 510 322 449 319 q 522 328 518 324 q 524 342 525 333 q 500 567 514 460 q 467 764 486 675 q 458 772 464 772 q 447 764 453 772 q 347 563 397 674 q 251 331 297 451 q 251 319 249 324 q 260 315 253 315 m 428 999 q 395 992 410 988 q 372 1014 381 996 l 372 1017 q 369 1048 364 1033 q 394 1074 375 1063 q 483 1128 439 1100 q 575 1192 528 1156 q 613 1201 592 1206 q 643 1178 633 1197 l 647 1169 q 649 1136 654 1157 q 633 1098 644 1115 q 607 1076 621 1081 q 508 1043 551 1064 q 428 999 464 1022 z "},"Ă":{"ha":764,"x_min":-8,"x_max":754,"o":"m 60 0 q 19 10 35 0 q 2 38 4 19 q 10 82 0 57 q 27 128 17 106 q 47 175 38 151 q 50 187 50 182 q 46 192 50 192 q 42 190 44 190 q 38 190 40 190 q 10 199 21 189 q -5 225 -1 208 q -6 258 -8 242 l -6 261 q 6 291 -3 279 q 26 309 14 303 q 57 315 39 315 l 94 315 q 106 318 101 315 q 111 326 110 321 q 176 467 143 397 q 244 608 210 538 q 314 746 278 678 q 386 879 350 814 q 486 940 417 940 q 567 879 553 940 q 619 617 596 753 q 659 346 642 482 q 688 82 676 210 q 672 22 690 43 q 617 0 653 0 q 559 22 578 0 q 538 86 540 43 q 537 139 538 113 q 533 192 536 165 q 519 204 533 204 q 444 204 482 204 q 367 203 406 204 q 289 201 328 203 q 211 199 250 200 q 201 196 206 199 q 196 186 197 193 q 174 127 185 157 q 151 67 163 97 q 117 17 140 33 q 60 0 94 0 m 260 315 q 386 318 324 317 q 510 322 449 319 q 522 328 518 324 q 524 342 525 333 q 500 567 514 460 q 467 764 486 675 q 458 772 464 772 q 447 764 453 772 q 347 563 397 674 q 251 331 297 451 q 251 319 249 324 q 260 315 253 315 m 343 1201 q 372 1191 363 1201 q 383 1161 382 1181 q 421 1093 390 1119 q 497 1067 451 1067 q 560 1078 528 1067 q 615 1112 592 1090 q 643 1161 638 1133 q 663 1198 647 1181 q 699 1215 679 1215 l 700 1215 q 738 1197 722 1215 q 747 1154 754 1178 q 695 1062 735 1104 q 599 994 656 1019 q 482 969 543 969 q 385 994 428 969 q 318 1062 343 1019 q 290 1154 293 1104 q 305 1190 290 1178 q 342 1201 319 1201 l 343 1201 z "},"Ǎ":{"ha":764,"x_min":-8,"x_max":744,"o":"m 60 0 q 19 10 35 0 q 2 38 4 19 q 10 82 0 57 q 27 128 17 106 q 47 175 38 151 q 50 187 50 182 q 46 192 50 192 q 42 190 44 190 q 38 190 40 190 q 10 199 21 189 q -5 225 -1 208 q -6 258 -8 242 l -6 261 q 6 291 -3 279 q 26 309 14 303 q 57 315 39 315 l 94 315 q 106 318 101 315 q 111 326 110 321 q 176 467 143 397 q 244 608 210 538 q 314 746 278 678 q 386 879 350 814 q 486 940 417 940 q 567 879 553 940 q 619 617 596 753 q 659 346 642 482 q 688 82 676 210 q 672 22 690 43 q 617 0 653 0 q 559 22 578 0 q 538 86 540 43 q 537 139 538 113 q 533 192 536 165 q 519 204 533 204 q 444 204 482 204 q 367 203 406 204 q 289 201 328 203 q 211 199 250 200 q 201 196 206 199 q 196 186 197 193 q 174 127 185 157 q 151 67 163 97 q 117 17 140 33 q 60 0 94 0 m 260 315 q 386 318 324 317 q 510 322 449 319 q 522 328 518 324 q 524 342 525 333 q 500 567 514 460 q 467 764 486 675 q 458 772 464 772 q 447 764 453 772 q 347 563 397 674 q 251 331 297 451 q 251 319 249 324 q 260 315 253 315 m 739 1176 q 744 1153 744 1167 q 737 1128 743 1140 q 718 1110 731 1117 q 614 1051 658 1076 q 519 992 569 1025 q 491 982 504 982 q 467 992 478 982 q 388 1063 428 1025 q 308 1124 349 1101 q 295 1147 293 1132 q 308 1176 297 1163 l 308 1178 q 334 1196 319 1193 q 361 1189 349 1199 q 431 1142 397 1165 q 500 1096 465 1119 q 510 1093 506 1093 q 519 1096 514 1093 q 597 1150 560 1121 q 676 1203 633 1179 q 712 1203 692 1213 q 739 1178 732 1193 l 739 1176 z "},"Â":{"ha":764,"x_min":-8,"x_max":738,"o":"m 60 0 q 19 10 35 0 q 2 38 4 19 q 10 82 0 57 q 27 128 17 106 q 47 175 38 151 q 50 187 50 182 q 46 192 50 192 q 42 190 44 190 q 38 190 40 190 q 10 199 21 189 q -5 225 -1 208 q -6 258 -8 242 l -6 261 q 6 291 -3 279 q 26 309 14 303 q 57 315 39 315 l 94 315 q 106 318 101 315 q 111 326 110 321 q 176 467 143 397 q 244 608 210 538 q 314 746 278 678 q 386 879 350 814 q 486 940 417 940 q 567 879 553 940 q 619 617 596 753 q 659 346 642 482 q 688 82 676 210 q 672 22 690 43 q 617 0 653 0 q 559 22 578 0 q 538 86 540 43 q 537 139 538 113 q 533 192 536 165 q 519 204 533 204 q 444 204 482 204 q 367 203 406 204 q 289 201 328 203 q 211 199 250 200 q 201 196 206 199 q 196 186 197 193 q 174 127 185 157 q 151 67 163 97 q 117 17 140 33 q 60 0 94 0 m 260 315 q 386 318 324 317 q 510 322 449 319 q 522 328 518 324 q 524 342 525 333 q 500 567 514 460 q 467 764 486 675 q 458 772 464 772 q 447 764 453 772 q 347 563 397 674 q 251 331 297 451 q 251 319 249 324 q 260 315 253 315 m 724 1050 q 728 1020 738 1042 q 707 983 719 999 l 706 982 q 685 967 699 972 q 660 964 672 963 q 639 971 647 965 q 583 1012 608 992 q 529 1053 557 1032 q 476 1053 504 1071 q 410 1012 442 1032 q 342 971 379 992 q 303 965 325 961 q 275 982 282 968 l 275 983 q 266 1013 269 999 q 279 1036 263 1028 q 351 1074 311 1051 q 430 1121 392 1096 q 494 1168 468 1146 q 523 1179 510 1179 q 547 1168 536 1179 q 635 1104 588 1135 q 724 1050 682 1074 z "},"Ä":{"ha":764,"x_min":-8,"x_max":729,"o":"m 60 0 q 19 10 35 0 q 2 38 4 19 q 10 82 0 57 q 27 128 17 106 q 47 175 38 151 q 50 187 50 182 q 46 192 50 192 q 42 190 44 190 q 38 190 40 190 q 10 199 21 189 q -5 225 -1 208 q -6 258 -8 242 l -6 261 q 6 291 -3 279 q 26 309 14 303 q 57 315 39 315 l 94 315 q 106 318 101 315 q 111 326 110 321 q 176 467 143 397 q 244 608 210 538 q 314 746 278 678 q 386 879 350 814 q 486 940 417 940 q 567 879 553 940 q 619 617 596 753 q 659 346 642 482 q 688 82 676 210 q 672 22 690 43 q 617 0 653 0 q 559 22 578 0 q 538 86 540 43 q 537 139 538 113 q 533 192 536 165 q 519 204 533 204 q 444 204 482 204 q 367 203 406 204 q 289 201 328 203 q 211 199 250 200 q 201 196 206 199 q 196 186 197 193 q 174 127 185 157 q 151 67 163 97 q 117 17 140 33 q 60 0 94 0 m 260 315 q 386 318 324 317 q 510 322 449 319 q 522 328 518 324 q 524 342 525 333 q 500 567 514 460 q 467 764 486 675 q 458 772 464 772 q 447 764 453 772 q 347 563 397 674 q 251 331 297 451 q 251 319 249 324 q 260 315 253 315 m 371 1000 q 312 1025 333 1000 q 296 1088 290 1050 q 331 1149 301 1124 q 397 1174 360 1174 q 454 1149 433 1174 q 469 1088 475 1124 q 435 1025 464 1050 q 371 1000 407 1000 m 622 1014 q 564 1039 585 1014 q 549 1101 543 1064 q 583 1163 556 1138 q 649 1188 611 1188 q 707 1163 685 1188 q 722 1101 729 1138 q 688 1039 717 1064 q 622 1014 658 1014 z "},"À":{"ha":764,"x_min":-8,"x_max":690,"o":"m 60 0 q 19 10 35 0 q 2 38 4 19 q 10 82 0 57 q 27 128 17 106 q 47 175 38 151 q 50 187 50 182 q 46 192 50 192 q 42 190 44 190 q 38 190 40 190 q 10 199 21 189 q -5 225 -1 208 q -6 258 -8 242 l -6 261 q 6 291 -3 279 q 26 309 14 303 q 57 315 39 315 l 94 315 q 106 318 101 315 q 111 326 110 321 q 176 467 143 397 q 244 608 210 538 q 314 746 278 678 q 386 879 350 814 q 486 940 417 940 q 567 879 553 940 q 619 617 596 753 q 659 346 642 482 q 688 82 676 210 q 672 22 690 43 q 617 0 653 0 q 559 22 578 0 q 538 86 540 43 q 537 139 538 113 q 533 192 536 165 q 519 204 533 204 q 444 204 482 204 q 367 203 406 204 q 289 201 328 203 q 211 199 250 200 q 201 196 206 199 q 196 186 197 193 q 174 127 185 157 q 151 67 163 97 q 117 17 140 33 q 60 0 94 0 m 260 315 q 386 318 324 317 q 510 322 449 319 q 522 328 518 324 q 524 342 525 333 q 500 567 514 460 q 467 764 486 675 q 458 772 464 772 q 447 764 453 772 q 347 563 397 674 q 251 331 297 451 q 251 319 249 324 q 260 315 253 315 m 614 1075 q 636 1041 629 1064 q 629 1000 643 1018 l 628 997 q 592 981 614 979 q 554 994 569 983 q 478 1040 515 1018 q 404 1075 442 1061 q 386 1093 390 1081 q 386 1122 382 1106 q 399 1150 390 1138 l 407 1161 q 440 1193 421 1181 q 472 1190 458 1206 q 547 1122 517 1144 q 614 1075 578 1100 z "},"Ā":{"ha":764,"x_min":-8,"x_max":806,"o":"m 60 0 q 19 10 35 0 q 2 38 4 19 q 10 82 0 57 q 27 128 17 106 q 47 175 38 151 q 50 187 50 182 q 46 192 50 192 q 42 190 44 190 q 38 190 40 190 q 10 199 21 189 q -5 225 -1 208 q -6 258 -8 242 l -6 261 q 6 291 -3 279 q 26 309 14 303 q 57 315 39 315 l 94 315 q 106 318 101 315 q 111 326 110 321 q 176 467 143 397 q 244 608 210 538 q 314 746 278 678 q 386 879 350 814 q 486 940 417 940 q 567 879 553 940 q 619 617 596 753 q 659 346 642 482 q 688 82 676 210 q 672 22 690 43 q 617 0 653 0 q 559 22 578 0 q 538 86 540 43 q 537 139 538 113 q 533 192 536 165 q 519 204 533 204 q 444 204 482 204 q 367 203 406 204 q 289 201 328 203 q 211 199 250 200 q 201 196 206 199 q 196 186 197 193 q 174 127 185 157 q 151 67 163 97 q 117 17 140 33 q 60 0 94 0 m 260 315 q 386 318 324 317 q 510 322 449 319 q 522 328 518 324 q 524 342 525 333 q 500 567 514 460 q 467 764 486 675 q 458 772 464 772 q 447 764 453 772 q 347 563 397 674 q 251 331 297 451 q 251 319 249 324 q 260 315 253 315 m 803 1100 q 790 1072 801 1086 q 764 1049 779 1058 q 735 1042 749 1040 q 268 1042 506 1063 q 239 1060 247 1040 q 233 1100 231 1079 l 233 1101 q 250 1134 236 1122 q 285 1146 264 1146 q 519 1148 401 1146 q 754 1160 636 1150 q 780 1152 768 1161 q 799 1129 792 1143 q 803 1101 806 1115 l 803 1100 z "},"Ą":{"ha":764,"x_min":-8,"x_max":690,"o":"m 60 0 q 19 10 35 0 q 2 38 4 19 q 10 82 0 57 q 27 128 17 106 q 47 175 38 151 q 50 187 50 182 q 46 192 50 192 q 42 190 44 190 q 38 190 40 190 q 10 199 21 189 q -5 225 -1 208 q -6 258 -8 242 l -6 261 q 6 291 -3 279 q 26 309 14 303 q 57 315 39 315 l 94 315 q 106 318 101 315 q 111 326 110 321 q 176 467 143 397 q 244 608 210 538 q 314 746 278 678 q 386 879 350 814 q 486 940 417 940 q 567 879 553 940 q 619 617 596 753 q 659 346 642 482 q 688 82 676 210 q 672 22 690 43 q 617 0 653 0 q 559 22 578 0 q 538 86 540 43 q 537 139 538 113 q 533 192 536 165 q 519 204 533 204 q 444 204 482 204 q 367 203 406 204 q 289 201 328 203 q 211 199 250 200 q 201 196 206 199 q 196 186 197 193 q 174 127 185 157 q 151 67 163 97 q 117 17 140 33 q 60 0 94 0 m 260 315 q 386 318 324 317 q 510 322 449 319 q 522 328 518 324 q 524 342 525 333 q 500 567 514 460 q 467 764 486 675 q 458 772 464 772 q 447 764 453 772 q 347 563 397 674 q 251 331 297 451 q 251 319 249 324 q 260 315 253 315 m 574 -208 q 501 -191 531 -208 q 463 -144 472 -174 q 465 -76 453 -114 q 492 -28 475 -51 q 539 13 510 -6 q 610 44 568 32 l 642 14 q 622 6 642 14 q 582 -21 603 -1 q 556 -76 561 -40 q 565 -108 553 -99 q 596 -120 578 -118 q 628 -122 614 -122 q 649 -127 639 -122 q 656 -147 658 -132 q 624 -195 650 -182 q 574 -208 597 -208 z "},"Å":{"ha":764,"x_min":-8,"x_max":690,"o":"m 60 0 q 19 10 35 0 q 2 38 4 19 q 10 82 0 57 q 27 128 17 106 q 47 175 38 151 q 50 187 50 182 q 46 192 50 192 q 42 190 44 190 q 38 190 40 190 q 10 199 21 189 q -5 225 -1 208 q -6 258 -8 242 l -6 261 q 6 291 -3 279 q 26 309 14 303 q 57 315 39 315 l 94 315 q 106 318 101 315 q 111 326 110 321 q 176 467 143 397 q 244 608 210 538 q 314 746 278 678 q 386 879 350 814 q 486 940 417 940 q 567 879 553 940 q 619 617 596 753 q 659 346 642 482 q 688 82 676 210 q 672 22 690 43 q 617 0 653 0 q 559 22 578 0 q 538 86 540 43 q 537 139 538 113 q 533 192 536 165 q 519 204 533 204 q 444 204 482 204 q 367 203 406 204 q 289 201 328 203 q 211 199 250 200 q 201 196 206 199 q 196 186 197 193 q 174 127 185 157 q 151 67 163 97 q 117 17 140 33 q 60 0 94 0 m 260 315 q 386 318 324 317 q 510 322 449 319 q 522 328 518 324 q 524 342 525 333 q 500 567 514 460 q 467 764 486 675 q 458 772 464 772 q 447 764 453 772 q 347 563 397 674 q 251 331 297 451 q 251 319 249 324 q 260 315 253 315 m 400 1056 q 422 1108 404 1085 q 465 1146 439 1132 q 519 1160 492 1160 q 570 1146 549 1160 q 602 1108 592 1132 q 608 1056 613 1085 q 588 1002 604 1028 q 547 960 572 976 q 486 944 522 944 q 437 960 458 944 q 406 1002 415 976 q 400 1056 396 1028 m 456 1056 q 464 1022 451 1036 q 496 1007 476 1007 q 532 1022 515 1007 q 553 1056 549 1036 q 543 1090 556 1075 q 511 1104 531 1104 q 475 1090 492 1104 q 456 1056 458 1075 z "},"Ã":{"ha":764,"x_min":-8,"x_max":753,"o":"m 60 0 q 19 10 35 0 q 2 38 4 19 q 10 82 0 57 q 27 128 17 106 q 47 175 38 151 q 50 187 50 182 q 46 192 50 192 q 42 190 44 190 q 38 190 40 190 q 10 199 21 189 q -5 225 -1 208 q -6 258 -8 242 l -6 261 q 6 291 -3 279 q 26 309 14 303 q 57 315 39 315 l 94 315 q 106 318 101 315 q 111 326 110 321 q 176 467 143 397 q 244 608 210 538 q 314 746 278 678 q 386 879 350 814 q 486 940 417 940 q 567 879 553 940 q 619 617 596 753 q 659 346 642 482 q 688 82 676 210 q 672 22 690 43 q 617 0 653 0 q 559 22 578 0 q 538 86 540 43 q 537 139 538 113 q 533 192 536 165 q 519 204 533 204 q 444 204 482 204 q 367 203 406 204 q 289 201 328 203 q 211 199 250 200 q 201 196 206 199 q 196 186 197 193 q 174 127 185 157 q 151 67 163 97 q 117 17 140 33 q 60 0 94 0 m 260 315 q 386 318 324 317 q 510 322 449 319 q 522 328 518 324 q 524 342 525 333 q 500 567 514 460 q 467 764 486 675 q 458 772 464 772 q 447 764 453 772 q 347 563 397 674 q 251 331 297 451 q 251 319 249 324 q 260 315 253 315 m 279 1043 q 273 1067 271 1054 q 288 1090 275 1079 q 327 1120 304 1104 q 376 1148 350 1136 q 426 1160 401 1160 q 478 1146 460 1160 q 510 1115 497 1132 q 543 1083 524 1097 q 597 1069 563 1069 q 640 1087 617 1069 q 679 1114 664 1104 q 712 1124 694 1124 q 739 1113 729 1124 l 746 1107 q 753 1085 753 1100 q 749 1055 753 1069 q 735 1032 744 1040 q 663 992 708 1010 q 582 975 618 975 q 528 989 547 975 q 495 1020 508 1003 q 464 1051 482 1038 q 411 1065 446 1065 q 371 1055 393 1065 q 331 1033 349 1044 q 305 1024 317 1024 q 283 1036 293 1025 l 279 1043 z "},"Æ":{"ha":1106,"x_min":-42,"x_max":1144,"o":"m 6 0 q -29 9 -17 0 q -41 34 -42 18 q -28 71 -40 50 q 145 342 56 207 q 333 614 235 478 q 535 885 431 750 q 615 926 564 926 l 1096 926 q 1133 912 1122 926 q 1140 869 1144 897 q 1128 836 1138 853 q 1106 810 1119 819 q 1075 801 1092 800 q 965 811 1022 808 q 850 815 908 814 q 736 815 792 815 q 715 808 722 815 q 708 788 707 801 q 702 707 707 749 q 691 624 697 665 q 678 542 685 582 q 682 522 676 528 q 701 518 688 517 q 838 528 771 525 q 971 542 904 532 q 1008 522 999 546 q 1014 471 1018 499 q 994 431 1010 444 q 951 417 978 417 q 817 415 885 417 q 681 406 750 414 q 661 397 668 404 q 651 378 654 390 q 631 258 642 317 q 601 139 619 200 q 604 118 600 125 q 622 111 608 111 q 739 112 681 111 q 856 116 797 113 q 974 125 915 119 q 1011 105 1001 128 q 1015 54 1021 82 q 996 14 1013 28 q 953 0 979 0 l 506 0 q 460 14 479 0 q 446 54 440 28 q 463 122 456 89 q 479 190 471 156 q 469 204 486 204 l 197 204 q 181 193 186 204 q 137 120 158 157 q 94 47 115 83 q 15 0 65 0 l 6 0 m 272 315 l 493 315 q 508 329 507 315 q 544 534 529 432 q 569 738 560 636 q 563 748 569 747 q 550 739 557 749 q 401 536 472 638 q 265 332 331 435 q 263 320 260 325 q 272 315 265 315 z "},"B":{"ha":747,"x_min":35,"x_max":775,"o":"m 113 0 q 58 18 81 0 q 40 68 35 36 q 72 223 56 139 q 105 392 89 307 q 133 557 121 478 q 153 699 146 636 q 163 800 161 763 q 153 805 163 804 q 130 807 143 806 q 106 816 117 808 q 96 844 96 824 q 120 899 96 876 q 178 926 144 921 q 256 934 206 931 q 364 940 307 938 q 465 940 421 942 q 701 867 626 939 q 756 672 775 796 q 710 560 746 608 q 617 483 675 513 q 608 475 608 479 q 613 467 607 471 q 694 385 672 436 q 711 264 717 333 q 653 120 704 179 q 516 31 603 61 q 315 0 429 0 l 113 0 m 217 125 l 336 125 q 503 156 446 125 q 574 264 561 186 q 540 379 586 342 q 383 417 493 417 l 264 417 q 253 413 258 417 q 249 403 249 410 l 206 139 q 206 131 206 135 q 210 126 207 128 q 217 125 213 125 m 283 528 l 401 528 q 553 563 500 528 q 618 672 607 599 q 588 781 631 746 q 447 815 546 815 l 317 815 q 306 811 311 815 q 300 800 301 807 q 286 671 290 735 q 271 542 282 607 q 274 531 269 535 q 283 528 278 528 z "},"C":{"ha":626,"x_min":32,"x_max":661,"o":"m 313 -14 q 175 17 232 -14 q 85 104 118 47 q 42 239 51 161 q 47 410 32 317 l 58 482 q 109 659 74 576 q 197 805 144 742 q 317 904 250 868 q 465 940 385 940 q 635 893 571 940 q 658 855 656 876 q 633 810 661 833 q 585 786 611 792 q 538 793 558 781 q 497 817 519 804 q 447 829 475 829 q 331 782 382 829 q 247 656 281 735 q 197 482 213 576 l 186 410 q 199 190 164 268 q 332 111 233 111 q 413 124 372 111 q 489 149 453 138 q 531 142 513 156 q 563 96 550 128 q 556 52 571 71 q 517 24 542 33 q 414 -4 467 6 q 313 -14 361 -14 z "},"Ć":{"ha":626,"x_min":32,"x_max":661,"o":"m 313 -14 q 175 17 232 -14 q 85 104 118 47 q 42 239 51 161 q 47 410 32 317 l 58 482 q 109 659 74 576 q 197 805 144 742 q 317 904 250 868 q 465 940 385 940 q 635 893 571 940 q 658 855 656 876 q 633 810 661 833 q 585 786 611 792 q 538 793 558 781 q 497 817 519 804 q 447 829 475 829 q 331 782 382 829 q 247 656 281 735 q 197 482 213 576 l 186 410 q 199 190 164 268 q 332 111 233 111 q 413 124 372 111 q 489 149 453 138 q 531 142 513 156 q 563 96 550 128 q 556 52 571 71 q 517 24 542 33 q 414 -4 467 6 q 313 -14 361 -14 m 408 999 q 376 992 390 988 q 353 1014 361 996 l 353 1017 q 350 1048 344 1033 q 375 1074 356 1063 q 464 1128 419 1100 q 556 1192 508 1156 q 593 1201 572 1206 q 624 1178 614 1197 l 628 1169 q 630 1136 635 1157 q 613 1098 625 1115 q 588 1076 601 1081 q 488 1043 532 1064 q 408 999 444 1022 z "},"Č":{"ha":626,"x_min":32,"x_max":725,"o":"m 313 -14 q 175 17 232 -14 q 85 104 118 47 q 42 239 51 161 q 47 410 32 317 l 58 482 q 109 659 74 576 q 197 805 144 742 q 317 904 250 868 q 465 940 385 940 q 635 893 571 940 q 658 855 656 876 q 633 810 661 833 q 585 786 611 792 q 538 793 558 781 q 497 817 519 804 q 447 829 475 829 q 331 782 382 829 q 247 656 281 735 q 197 482 213 576 l 186 410 q 199 190 164 268 q 332 111 233 111 q 413 124 372 111 q 489 149 453 138 q 531 142 513 156 q 563 96 550 128 q 556 52 571 71 q 517 24 542 33 q 414 -4 467 6 q 313 -14 361 -14 m 719 1176 q 724 1153 725 1167 q 717 1128 724 1140 q 699 1110 711 1117 q 594 1051 639 1076 q 500 992 550 1025 q 472 982 485 982 q 447 992 458 982 q 369 1063 408 1025 q 289 1124 329 1101 q 276 1147 274 1132 q 289 1176 278 1163 l 289 1178 q 315 1196 300 1193 q 342 1189 329 1199 q 412 1142 378 1165 q 481 1096 446 1119 q 490 1093 486 1093 q 500 1096 494 1093 q 577 1150 540 1121 q 657 1203 614 1179 q 692 1203 672 1213 q 719 1178 713 1193 l 719 1176 z "},"Ç":{"ha":626,"x_min":32,"x_max":661,"o":"m 313 -14 q 175 17 232 -14 q 85 104 118 47 q 42 239 51 161 q 47 410 32 317 l 58 482 q 109 659 74 576 q 197 805 144 742 q 317 904 250 868 q 465 940 385 940 q 635 893 571 940 q 658 855 656 876 q 633 810 661 833 q 585 786 611 792 q 538 793 558 781 q 497 817 519 804 q 447 829 475 829 q 331 782 382 829 q 247 656 281 735 q 197 482 213 576 l 186 410 q 199 190 164 268 q 332 111 233 111 q 413 124 372 111 q 489 149 453 138 q 531 142 513 156 q 563 96 550 128 q 556 52 571 71 q 517 24 542 33 q 414 -4 467 6 q 313 -14 361 -14 m 281 -229 q 257 -226 269 -229 q 233 -219 244 -224 q 220 -194 221 -212 q 228 -162 219 -176 l 228 -161 q 247 -143 236 -146 q 268 -144 257 -140 q 281 -147 275 -146 q 293 -147 288 -147 q 331 -125 326 -147 q 321 -111 333 -111 q 294 -111 308 -111 q 272 -106 283 -111 q 256 -90 261 -100 q 253 -71 250 -81 l 281 7 l 350 7 l 325 -57 q 384 -67 354 -49 q 407 -125 414 -85 q 384 -178 403 -154 q 338 -215 365 -201 q 281 -229 311 -229 z "},"Ċ":{"ha":626,"x_min":32,"x_max":661,"o":"m 313 -14 q 175 17 232 -14 q 85 104 118 47 q 42 239 51 161 q 47 410 32 317 l 58 482 q 109 659 74 576 q 197 805 144 742 q 317 904 250 868 q 465 940 385 940 q 635 893 571 940 q 658 855 656 876 q 633 810 661 833 q 585 786 611 792 q 538 793 558 781 q 497 817 519 804 q 447 829 475 829 q 331 782 382 829 q 247 656 281 735 q 197 482 213 576 l 186 410 q 199 190 164 268 q 332 111 233 111 q 413 124 372 111 q 489 149 453 138 q 531 142 513 156 q 563 96 550 128 q 556 52 571 71 q 517 24 542 33 q 414 -4 467 6 q 313 -14 361 -14 m 407 1090 q 442 1150 413 1126 q 504 1174 471 1174 q 560 1150 540 1174 q 574 1090 579 1126 q 540 1032 568 1057 q 476 1007 513 1007 q 422 1032 443 1007 q 407 1090 401 1057 z "},"D":{"ha":819,"x_min":33,"x_max":803,"o":"m 111 0 q 56 18 79 0 q 39 68 33 36 q 88 312 65 190 q 128 554 110 433 q 160 797 146 675 q 151 808 160 806 q 131 812 143 810 q 110 822 119 814 q 99 847 100 829 q 110 891 97 875 q 146 915 124 907 q 190 926 168 924 q 263 934 218 931 q 368 939 307 938 q 506 940 429 940 q 735 828 667 940 q 767 482 803 715 q 677 220 742 328 q 520 56 613 113 q 321 0 428 0 l 111 0 m 190 139 q 192 129 189 133 q 201 125 196 125 l 340 125 q 465 163 407 125 q 565 281 522 201 q 628 482 608 360 q 638 678 647 607 q 590 778 628 749 q 485 808 551 808 l 311 808 q 303 807 307 808 q 299 802 300 806 q 297 794 297 799 q 269 574 285 681 q 235 359 254 467 q 190 139 215 251 z "},"Ď":{"ha":819,"x_min":33,"x_max":803,"o":"m 111 0 q 56 18 79 0 q 39 68 33 36 q 88 312 65 190 q 128 554 110 433 q 160 797 146 675 q 151 808 160 806 q 131 812 143 810 q 110 822 119 814 q 99 847 100 829 q 110 891 97 875 q 146 915 124 907 q 190 926 168 924 q 263 934 218 931 q 368 939 307 938 q 506 940 429 940 q 735 828 667 940 q 767 482 803 715 q 677 220 742 328 q 520 56 613 113 q 321 0 428 0 l 111 0 m 190 139 q 192 129 189 133 q 201 125 196 125 l 340 125 q 465 163 407 125 q 565 281 522 201 q 628 482 608 360 q 638 678 647 607 q 590 778 628 749 q 485 808 551 808 l 311 808 q 303 807 307 808 q 299 802 300 806 q 297 794 297 799 q 269 574 285 681 q 235 359 254 467 q 190 139 215 251 m 740 1176 q 745 1153 746 1167 q 738 1128 744 1140 q 719 1110 732 1117 q 615 1051 660 1076 q 521 992 571 1025 q 492 982 506 982 q 468 992 479 982 q 390 1063 429 1025 q 310 1124 350 1101 q 297 1147 294 1132 q 310 1176 299 1163 l 310 1178 q 335 1196 321 1193 q 363 1189 350 1199 q 433 1142 399 1165 q 501 1096 467 1119 q 511 1093 507 1093 q 521 1096 515 1093 q 598 1150 561 1121 q 678 1203 635 1179 q 713 1203 693 1213 q 740 1178 733 1193 l 740 1176 z "},"Đ":{"ha":761,"x_min":-50,"x_max":744,"o":"m -47 474 q -26 514 -42 500 q 17 528 -10 528 q 161 530 89 528 q 306 542 233 532 q 338 535 324 544 q 359 508 351 525 q 363 474 367 492 l 363 471 q 347 440 360 454 q 319 420 335 426 q 285 417 303 414 q 143 421 217 428 q -4 403 69 414 q -32 410 -21 400 q -47 437 -43 419 q -47 471 -50 454 l -47 474 m 53 0 q -2 18 21 0 q -19 68 -25 36 q 29 312 7 190 q 69 554 51 433 q 101 797 88 675 q 93 808 101 806 q 73 812 85 810 q 51 822 61 814 q 40 847 42 829 q 52 891 39 875 q 88 915 65 907 q 132 926 110 924 q 204 934 160 931 q 310 939 249 938 q 447 940 371 940 q 676 828 608 940 q 708 482 744 715 q 619 220 683 328 q 462 56 554 113 q 263 0 369 0 l 53 0 m 132 139 q 134 129 131 133 q 143 125 138 125 l 282 125 q 406 163 349 125 q 507 281 464 201 q 569 482 550 360 q 579 678 589 607 q 531 778 569 749 q 426 808 493 808 l 253 808 q 245 807 249 808 q 240 802 242 806 q 239 794 239 799 q 211 574 226 681 q 176 359 196 467 q 132 139 157 251 z "},"Ð":{"ha":761,"x_min":-50,"x_max":744,"o":"m -47 474 q -26 514 -42 500 q 17 528 -10 528 q 161 530 89 528 q 306 542 233 532 q 338 535 324 544 q 359 508 351 525 q 363 474 367 492 l 363 471 q 347 440 360 454 q 319 420 335 426 q 285 417 303 414 q 143 421 217 428 q -4 403 69 414 q -32 410 -21 400 q -47 437 -43 419 q -47 471 -50 454 l -47 474 m 53 0 q -2 18 21 0 q -19 68 -25 36 q 29 312 7 190 q 69 554 51 433 q 101 797 88 675 q 93 808 101 806 q 73 812 85 810 q 51 822 61 814 q 40 847 42 829 q 52 891 39 875 q 88 915 65 907 q 132 926 110 924 q 204 934 160 931 q 310 939 249 938 q 447 940 371 940 q 676 828 608 940 q 708 482 744 715 q 619 220 683 328 q 462 56 554 113 q 263 0 369 0 l 53 0 m 132 139 q 134 129 131 133 q 143 125 138 125 l 282 125 q 406 163 349 125 q 507 281 464 201 q 569 482 550 360 q 579 678 589 607 q 531 778 569 749 q 426 808 493 808 l 253 808 q 245 807 249 808 q 240 802 242 806 q 239 794 239 799 q 211 574 226 681 q 176 359 196 467 q 132 139 157 251 z "},"E":{"ha":701,"x_min":36,"x_max":740,"o":"m 736 869 q 724 836 733 853 q 701 810 715 819 q 671 801 688 800 q 561 811 618 808 q 446 815 504 814 q 332 815 388 815 q 310 808 318 815 q 304 788 303 801 q 292 665 301 728 q 274 542 283 601 q 278 522 272 528 q 297 518 283 517 q 433 528 367 525 q 567 542 500 532 q 604 522 594 546 q 610 471 614 499 q 590 431 606 444 q 547 417 574 417 q 413 415 481 417 q 276 406 346 414 q 257 397 264 404 q 247 378 250 390 q 226 258 238 317 q 197 139 215 200 q 200 118 196 125 q 218 111 204 111 q 335 112 276 111 q 452 116 393 113 q 569 125 511 119 q 607 105 597 128 q 611 54 617 82 q 592 14 608 28 q 549 0 575 0 l 101 0 q 56 14 75 0 q 42 54 36 28 q 105 326 78 190 q 149 599 132 463 q 175 872 167 736 q 187 902 175 890 q 217 920 199 914 q 251 926 235 926 l 692 926 q 729 912 718 926 q 736 869 740 897 z "},"É":{"ha":701,"x_min":36,"x_max":740,"o":"m 736 869 q 724 836 733 853 q 701 810 715 819 q 671 801 688 800 q 561 811 618 808 q 446 815 504 814 q 332 815 388 815 q 310 808 318 815 q 304 788 303 801 q 292 665 301 728 q 274 542 283 601 q 278 522 272 528 q 297 518 283 517 q 433 528 367 525 q 567 542 500 532 q 604 522 594 546 q 610 471 614 499 q 590 431 606 444 q 547 417 574 417 q 413 415 481 417 q 276 406 346 414 q 257 397 264 404 q 247 378 250 390 q 226 258 238 317 q 197 139 215 200 q 200 118 196 125 q 218 111 204 111 q 335 112 276 111 q 452 116 393 113 q 569 125 511 119 q 607 105 597 128 q 611 54 617 82 q 592 14 608 28 q 549 0 575 0 l 101 0 q 56 14 75 0 q 42 54 36 28 q 105 326 78 190 q 149 599 132 463 q 175 872 167 736 q 187 902 175 890 q 217 920 199 914 q 251 926 235 926 l 692 926 q 729 912 718 926 q 736 869 740 897 m 399 999 q 366 992 381 988 q 343 1014 351 996 l 343 1017 q 340 1048 335 1033 q 365 1074 346 1063 q 454 1128 410 1100 q 546 1192 499 1156 q 583 1201 563 1206 q 614 1178 604 1197 l 618 1169 q 620 1136 625 1157 q 603 1098 615 1115 q 578 1076 592 1081 q 478 1043 522 1064 q 399 999 435 1022 z "},"Ě":{"ha":701,"x_min":36,"x_max":740,"o":"m 736 869 q 724 836 733 853 q 701 810 715 819 q 671 801 688 800 q 561 811 618 808 q 446 815 504 814 q 332 815 388 815 q 310 808 318 815 q 304 788 303 801 q 292 665 301 728 q 274 542 283 601 q 278 522 272 528 q 297 518 283 517 q 433 528 367 525 q 567 542 500 532 q 604 522 594 546 q 610 471 614 499 q 590 431 606 444 q 547 417 574 417 q 413 415 481 417 q 276 406 346 414 q 257 397 264 404 q 247 378 250 390 q 226 258 238 317 q 197 139 215 200 q 200 118 196 125 q 218 111 204 111 q 335 112 276 111 q 452 116 393 113 q 569 125 511 119 q 607 105 597 128 q 611 54 617 82 q 592 14 608 28 q 549 0 575 0 l 101 0 q 56 14 75 0 q 42 54 36 28 q 105 326 78 190 q 149 599 132 463 q 175 872 167 736 q 187 902 175 890 q 217 920 199 914 q 251 926 235 926 l 692 926 q 729 912 718 926 q 736 869 740 897 m 710 1176 q 715 1153 715 1167 q 708 1128 714 1140 q 689 1110 701 1117 q 585 1051 629 1076 q 490 992 540 1025 q 462 982 475 982 q 438 992 449 982 q 359 1063 399 1025 q 279 1124 319 1101 q 266 1147 264 1132 q 279 1176 268 1163 l 279 1178 q 305 1196 290 1193 q 332 1189 319 1199 q 402 1142 368 1165 q 471 1096 436 1119 q 481 1093 476 1093 q 490 1096 485 1093 q 567 1150 531 1121 q 647 1203 604 1179 q 683 1203 663 1213 q 710 1178 703 1193 l 710 1176 z "},"Ê":{"ha":701,"x_min":36,"x_max":740,"o":"m 736 869 q 724 836 733 853 q 701 810 715 819 q 671 801 688 800 q 561 811 618 808 q 446 815 504 814 q 332 815 388 815 q 310 808 318 815 q 304 788 303 801 q 292 665 301 728 q 274 542 283 601 q 278 522 272 528 q 297 518 283 517 q 433 528 367 525 q 567 542 500 532 q 604 522 594 546 q 610 471 614 499 q 590 431 606 444 q 547 417 574 417 q 413 415 481 417 q 276 406 346 414 q 257 397 264 404 q 247 378 250 390 q 226 258 238 317 q 197 139 215 200 q 200 118 196 125 q 218 111 204 111 q 335 112 276 111 q 452 116 393 113 q 569 125 511 119 q 607 105 597 128 q 611 54 617 82 q 592 14 608 28 q 549 0 575 0 l 101 0 q 56 14 75 0 q 42 54 36 28 q 105 326 78 190 q 149 599 132 463 q 175 872 167 736 q 187 902 175 890 q 217 920 199 914 q 251 926 235 926 l 692 926 q 729 912 718 926 q 736 869 740 897 m 694 1050 q 699 1020 708 1042 q 678 983 690 999 l 676 982 q 656 967 669 972 q 631 964 643 963 q 610 971 618 965 q 553 1012 579 992 q 500 1053 528 1032 q 447 1053 475 1071 q 381 1012 413 1032 q 313 971 350 992 q 274 965 296 961 q 246 982 253 968 l 246 983 q 237 1013 240 999 q 250 1036 233 1028 q 322 1074 282 1051 q 401 1121 363 1096 q 465 1168 439 1146 q 494 1179 481 1179 q 518 1168 507 1179 q 606 1104 558 1135 q 694 1050 653 1074 z "},"Ë":{"ha":701,"x_min":36,"x_max":740,"o":"m 736 869 q 724 836 733 853 q 701 810 715 819 q 671 801 688 800 q 561 811 618 808 q 446 815 504 814 q 332 815 388 815 q 310 808 318 815 q 304 788 303 801 q 292 665 301 728 q 274 542 283 601 q 278 522 272 528 q 297 518 283 517 q 433 528 367 525 q 567 542 500 532 q 604 522 594 546 q 610 471 614 499 q 590 431 606 444 q 547 417 574 417 q 413 415 481 417 q 276 406 346 414 q 257 397 264 404 q 247 378 250 390 q 226 258 238 317 q 197 139 215 200 q 200 118 196 125 q 218 111 204 111 q 335 112 276 111 q 452 116 393 113 q 569 125 511 119 q 607 105 597 128 q 611 54 617 82 q 592 14 608 28 q 549 0 575 0 l 101 0 q 56 14 75 0 q 42 54 36 28 q 105 326 78 190 q 149 599 132 463 q 175 872 167 736 q 187 902 175 890 q 217 920 199 914 q 251 926 235 926 l 692 926 q 729 912 718 926 q 736 869 740 897 m 342 1000 q 283 1025 304 1000 q 267 1088 261 1050 q 301 1149 272 1124 q 368 1174 331 1174 q 425 1149 404 1174 q 440 1088 446 1124 q 406 1025 435 1050 q 342 1000 378 1000 m 593 1014 q 535 1039 556 1014 q 519 1101 514 1064 q 554 1163 526 1138 q 619 1188 582 1188 q 678 1163 656 1188 q 693 1101 700 1138 q 658 1039 688 1064 q 593 1014 629 1014 z "},"Ė":{"ha":701,"x_min":36,"x_max":740,"o":"m 736 869 q 724 836 733 853 q 701 810 715 819 q 671 801 688 800 q 561 811 618 808 q 446 815 504 814 q 332 815 388 815 q 310 808 318 815 q 304 788 303 801 q 292 665 301 728 q 274 542 283 601 q 278 522 272 528 q 297 518 283 517 q 433 528 367 525 q 567 542 500 532 q 604 522 594 546 q 610 471 614 499 q 590 431 606 444 q 547 417 574 417 q 413 415 481 417 q 276 406 346 414 q 257 397 264 404 q 247 378 250 390 q 226 258 238 317 q 197 139 215 200 q 200 118 196 125 q 218 111 204 111 q 335 112 276 111 q 452 116 393 113 q 569 125 511 119 q 607 105 597 128 q 611 54 617 82 q 592 14 608 28 q 549 0 575 0 l 101 0 q 56 14 75 0 q 42 54 36 28 q 105 326 78 190 q 149 599 132 463 q 175 872 167 736 q 187 902 175 890 q 217 920 199 914 q 251 926 235 926 l 692 926 q 729 912 718 926 q 736 869 740 897 m 397 1090 q 432 1150 403 1126 q 494 1174 461 1174 q 550 1150 531 1174 q 564 1090 569 1126 q 531 1032 558 1057 q 467 1007 503 1007 q 413 1032 433 1007 q 397 1090 392 1057 z "},"È":{"ha":701,"x_min":36,"x_max":740,"o":"m 736 869 q 724 836 733 853 q 701 810 715 819 q 671 801 688 800 q 561 811 618 808 q 446 815 504 814 q 332 815 388 815 q 310 808 318 815 q 304 788 303 801 q 292 665 301 728 q 274 542 283 601 q 278 522 272 528 q 297 518 283 517 q 433 528 367 525 q 567 542 500 532 q 604 522 594 546 q 610 471 614 499 q 590 431 606 444 q 547 417 574 417 q 413 415 481 417 q 276 406 346 414 q 257 397 264 404 q 247 378 250 390 q 226 258 238 317 q 197 139 215 200 q 200 118 196 125 q 218 111 204 111 q 335 112 276 111 q 452 116 393 113 q 569 125 511 119 q 607 105 597 128 q 611 54 617 82 q 592 14 608 28 q 549 0 575 0 l 101 0 q 56 14 75 0 q 42 54 36 28 q 105 326 78 190 q 149 599 132 463 q 175 872 167 736 q 187 902 175 890 q 217 920 199 914 q 251 926 235 926 l 692 926 q 729 912 718 926 q 736 869 740 897 m 585 1075 q 607 1041 600 1064 q 600 1000 614 1018 l 599 997 q 563 981 585 979 q 525 994 540 983 q 449 1040 486 1018 q 375 1075 413 1061 q 357 1093 361 1081 q 357 1122 353 1106 q 369 1150 361 1138 l 378 1161 q 410 1193 392 1181 q 443 1190 429 1206 q 518 1122 488 1144 q 585 1075 549 1100 z "},"Ē":{"ha":701,"x_min":36,"x_max":776,"o":"m 736 869 q 724 836 733 853 q 701 810 715 819 q 671 801 688 800 q 561 811 618 808 q 446 815 504 814 q 332 815 388 815 q 310 808 318 815 q 304 788 303 801 q 292 665 301 728 q 274 542 283 601 q 278 522 272 528 q 297 518 283 517 q 433 528 367 525 q 567 542 500 532 q 604 522 594 546 q 610 471 614 499 q 590 431 606 444 q 547 417 574 417 q 413 415 481 417 q 276 406 346 414 q 257 397 264 404 q 247 378 250 390 q 226 258 238 317 q 197 139 215 200 q 200 118 196 125 q 218 111 204 111 q 335 112 276 111 q 452 116 393 113 q 569 125 511 119 q 607 105 597 128 q 611 54 617 82 q 592 14 608 28 q 549 0 575 0 l 101 0 q 56 14 75 0 q 42 54 36 28 q 105 326 78 190 q 149 599 132 463 q 175 872 167 736 q 187 902 175 890 q 217 920 199 914 q 251 926 235 926 l 692 926 q 729 912 718 926 q 736 869 740 897 m 774 1100 q 761 1072 772 1086 q 735 1049 750 1058 q 706 1042 719 1040 q 239 1042 476 1063 q 210 1060 218 1040 q 204 1100 201 1079 l 204 1101 q 221 1134 207 1122 q 256 1146 235 1146 q 490 1148 372 1146 q 725 1160 607 1150 q 751 1152 739 1161 q 769 1129 763 1143 q 774 1101 776 1115 l 774 1100 z "},"Ę":{"ha":701,"x_min":36,"x_max":740,"o":"m 736 869 q 724 836 733 853 q 701 810 715 819 q 671 801 688 800 q 561 811 618 808 q 446 815 504 814 q 332 815 388 815 q 310 808 318 815 q 304 788 303 801 q 292 665 301 728 q 274 542 283 601 q 278 522 272 528 q 297 518 283 517 q 433 528 367 525 q 567 542 500 532 q 604 522 594 546 q 610 471 614 499 q 590 431 606 444 q 547 417 574 417 q 413 415 481 417 q 276 406 346 414 q 257 397 264 404 q 247 378 250 390 q 226 258 238 317 q 197 139 215 200 q 200 118 196 125 q 218 111 204 111 q 335 112 276 111 q 452 116 393 113 q 569 125 511 119 q 607 105 597 128 q 611 54 617 82 q 592 14 608 28 q 549 0 575 0 l 101 0 q 56 14 75 0 q 42 54 36 28 q 105 326 78 190 q 149 599 132 463 q 175 872 167 736 q 187 902 175 890 q 217 920 199 914 q 251 926 235 926 l 692 926 q 729 912 718 926 q 736 869 740 897 m 511 -208 q 439 -191 468 -208 q 400 -144 410 -174 q 403 -76 390 -114 q 430 -28 413 -51 q 476 13 447 -6 q 547 44 506 32 l 579 14 q 560 6 579 14 q 519 -21 540 -1 q 493 -76 499 -40 q 503 -108 490 -99 q 533 -120 515 -118 q 565 -122 551 -122 q 586 -127 576 -122 q 593 -147 596 -132 q 561 -195 588 -182 q 511 -208 535 -208 z "},"Ẽ":{"ha":701,"x_min":36,"x_max":740,"o":"m 736 869 q 724 836 733 853 q 701 810 715 819 q 671 801 688 800 q 561 811 618 808 q 446 815 504 814 q 332 815 388 815 q 310 808 318 815 q 304 788 303 801 q 292 665 301 728 q 274 542 283 601 q 278 522 272 528 q 297 518 283 517 q 433 528 367 525 q 567 542 500 532 q 604 522 594 546 q 610 471 614 499 q 590 431 606 444 q 547 417 574 417 q 413 415 481 417 q 276 406 346 414 q 257 397 264 404 q 247 378 250 390 q 226 258 238 317 q 197 139 215 200 q 200 118 196 125 q 218 111 204 111 q 335 112 276 111 q 452 116 393 113 q 569 125 511 119 q 607 105 597 128 q 611 54 617 82 q 592 14 608 28 q 549 0 575 0 l 101 0 q 56 14 75 0 q 42 54 36 28 q 105 326 78 190 q 149 599 132 463 q 175 872 167 736 q 187 902 175 890 q 217 920 199 914 q 251 926 235 926 l 692 926 q 729 912 718 926 q 736 869 740 897 m 250 1043 q 244 1067 242 1054 q 258 1090 246 1079 q 298 1120 275 1104 q 347 1148 321 1136 q 397 1160 372 1160 q 449 1146 431 1160 q 481 1115 468 1132 q 514 1083 494 1097 q 568 1069 533 1069 q 611 1087 588 1069 q 650 1114 635 1104 q 683 1124 665 1124 q 710 1113 700 1124 l 717 1107 q 724 1085 724 1100 q 719 1055 724 1069 q 706 1032 715 1040 q 634 992 679 1010 q 553 975 589 975 q 499 989 518 975 q 466 1020 479 1003 q 435 1051 453 1038 q 382 1065 417 1065 q 342 1055 364 1065 q 301 1033 319 1044 q 276 1024 288 1024 q 254 1036 264 1025 l 250 1043 z "},"Ə":{"ha":772,"x_min":36,"x_max":735,"o":"m 307 -14 q 223 -5 267 -14 q 141 31 179 4 q 76 110 103 58 q 43 248 50 163 q 56 460 36 333 q 90 510 63 492 q 150 528 118 528 l 574 528 q 589 542 588 528 q 583 688 596 622 q 535 791 569 753 q 442 829 501 829 q 388 817 414 829 q 340 793 363 804 q 290 786 315 781 q 250 810 265 792 l 247 813 q 240 855 231 833 q 276 893 250 876 q 460 940 357 940 q 597 904 540 940 q 685 805 653 868 q 726 659 717 742 q 719 482 735 576 l 708 410 q 635 190 689 285 q 497 40 581 94 q 307 -14 414 -14 m 151 400 q 153 224 133 286 q 219 136 172 161 q 326 111 265 111 q 481 185 421 111 q 565 390 542 258 q 553 406 568 406 q 475 408 521 407 q 380 410 429 408 q 285 412 331 411 q 209 413 240 413 q 169 414 178 414 q 151 400 156 417 z "},"F":{"ha":697,"x_min":38,"x_max":740,"o":"m 736 869 q 724 836 733 853 q 701 810 715 819 q 671 801 688 800 q 557 811 617 808 q 437 815 497 814 q 319 815 376 815 q 308 811 313 815 q 303 800 304 807 q 298 714 303 757 q 287 628 293 671 q 274 542 281 585 q 276 531 272 535 q 286 528 279 528 q 426 530 356 528 q 567 542 496 532 q 604 522 594 546 q 610 471 614 499 q 590 431 606 444 q 547 417 574 417 q 407 415 478 417 q 264 404 336 414 q 254 400 258 403 q 250 390 250 397 q 232 277 240 332 q 217 167 224 222 q 208 54 211 113 q 179 14 208 28 q 101 0 150 0 q 56 14 75 0 q 42 54 38 28 q 95 326 71 190 q 140 599 119 463 q 175 872 160 736 q 201 913 178 899 q 251 926 225 926 l 692 926 q 729 912 718 926 q 736 869 740 897 z "},"G":{"ha":772,"x_min":32,"x_max":725,"o":"m 313 -14 q 175 17 232 -14 q 85 104 118 47 q 42 239 51 161 q 47 410 32 317 l 58 482 q 109 659 74 576 q 197 805 144 742 q 317 904 250 868 q 465 940 385 940 q 635 893 571 940 q 658 855 656 876 q 636 813 661 833 l 633 810 q 585 786 611 792 q 538 793 558 781 q 497 817 519 804 q 447 829 475 829 q 331 782 382 829 q 247 656 281 735 q 197 482 213 576 l 186 410 q 199 190 164 268 q 332 111 233 111 q 413 123 372 111 q 489 149 454 135 q 528 183 518 160 q 544 256 539 206 q 557 400 549 307 q 555 411 558 407 q 544 414 551 415 q 490 410 518 413 q 433 403 463 407 q 401 410 415 400 q 381 437 388 419 q 376 471 374 454 q 404 513 381 499 q 454 528 428 528 l 644 528 q 687 519 667 528 q 716 496 707 511 q 714 460 725 481 l 694 417 q 675 347 685 392 q 658 249 665 303 q 649 136 651 194 q 631 88 647 108 q 588 56 615 68 l 529 29 q 522 26 525 28 q 517 24 519 25 q 414 -4 467 6 q 313 -14 361 -14 z "},"Ğ":{"ha":772,"x_min":32,"x_max":735,"o":"m 313 -14 q 175 17 232 -14 q 85 104 118 47 q 42 239 51 161 q 47 410 32 317 l 58 482 q 109 659 74 576 q 197 805 144 742 q 317 904 250 868 q 465 940 385 940 q 635 893 571 940 q 658 855 656 876 q 636 813 661 833 l 633 810 q 585 786 611 792 q 538 793 558 781 q 497 817 519 804 q 447 829 475 829 q 331 782 382 829 q 247 656 281 735 q 197 482 213 576 l 186 410 q 199 190 164 268 q 332 111 233 111 q 413 123 372 111 q 489 149 454 135 q 528 183 518 160 q 544 256 539 206 q 557 400 549 307 q 555 411 558 407 q 544 414 551 415 q 490 410 518 413 q 433 403 463 407 q 401 410 415 400 q 381 437 388 419 q 376 471 374 454 q 404 513 381 499 q 454 528 428 528 l 644 528 q 687 519 667 528 q 716 496 707 511 q 714 460 725 481 l 694 417 q 675 347 685 392 q 658 249 665 303 q 649 136 651 194 q 631 88 647 108 q 588 56 615 68 l 529 29 q 522 26 525 28 q 517 24 519 25 q 414 -4 467 6 q 313 -14 361 -14 m 324 1201 q 353 1191 343 1201 q 364 1161 363 1181 q 401 1093 371 1119 q 478 1067 432 1067 q 540 1078 508 1067 q 595 1112 572 1090 q 624 1161 618 1133 q 644 1198 628 1181 q 679 1215 660 1215 l 681 1215 q 719 1197 703 1215 q 728 1154 735 1178 q 676 1062 715 1104 q 580 994 636 1019 q 463 969 524 969 q 366 994 408 969 q 299 1062 324 1019 q 271 1154 274 1104 q 285 1190 271 1178 q 322 1201 300 1201 l 324 1201 z "},"Ģ":{"ha":772,"x_min":32,"x_max":725,"o":"m 313 -14 q 175 17 232 -14 q 85 104 118 47 q 42 239 51 161 q 47 410 32 317 l 58 482 q 109 659 74 576 q 197 805 144 742 q 317 904 250 868 q 465 940 385 940 q 635 893 571 940 q 658 855 656 876 q 636 813 661 833 l 633 810 q 585 786 611 792 q 538 793 558 781 q 497 817 519 804 q 447 829 475 829 q 331 782 382 829 q 247 656 281 735 q 197 482 213 576 l 186 410 q 199 190 164 268 q 332 111 233 111 q 413 123 372 111 q 489 149 454 135 q 528 183 518 160 q 544 256 539 206 q 557 400 549 307 q 555 411 558 407 q 544 414 551 415 q 490 410 518 413 q 433 403 463 407 q 401 410 415 400 q 381 437 388 419 q 376 471 374 454 q 404 513 381 499 q 454 528 428 528 l 644 528 q 687 519 667 528 q 716 496 707 511 q 714 460 725 481 l 694 417 q 675 347 685 392 q 658 249 665 303 q 649 136 651 194 q 631 88 647 108 q 588 56 615 68 l 529 29 q 522 26 525 28 q 517 24 519 25 q 414 -4 467 6 q 313 -14 361 -14 m 240 -325 q 217 -340 233 -335 q 188 -346 201 -346 l 182 -346 q 159 -342 172 -346 q 138 -331 146 -339 q 138 -312 131 -324 q 197 -219 174 -258 q 246 -125 221 -179 q 270 -112 250 -117 q 315 -106 290 -108 q 354 -104 339 -104 l 364 -104 q 382 -108 376 -104 q 387 -120 388 -112 q 379 -139 386 -128 q 310 -232 339 -192 q 240 -325 281 -272 z "},"Ġ":{"ha":772,"x_min":32,"x_max":725,"o":"m 313 -14 q 175 17 232 -14 q 85 104 118 47 q 42 239 51 161 q 47 410 32 317 l 58 482 q 109 659 74 576 q 197 805 144 742 q 317 904 250 868 q 465 940 385 940 q 635 893 571 940 q 658 855 656 876 q 636 813 661 833 l 633 810 q 585 786 611 792 q 538 793 558 781 q 497 817 519 804 q 447 829 475 829 q 331 782 382 829 q 247 656 281 735 q 197 482 213 576 l 186 410 q 199 190 164 268 q 332 111 233 111 q 413 123 372 111 q 489 149 454 135 q 528 183 518 160 q 544 256 539 206 q 557 400 549 307 q 555 411 558 407 q 544 414 551 415 q 490 410 518 413 q 433 403 463 407 q 401 410 415 400 q 381 437 388 419 q 376 471 374 454 q 404 513 381 499 q 454 528 428 528 l 644 528 q 687 519 667 528 q 716 496 707 511 q 714 460 725 481 l 694 417 q 675 347 685 392 q 658 249 665 303 q 649 136 651 194 q 631 88 647 108 q 588 56 615 68 l 529 29 q 522 26 525 28 q 517 24 519 25 q 414 -4 467 6 q 313 -14 361 -14 m 407 1090 q 442 1150 413 1126 q 504 1174 471 1174 q 560 1150 540 1174 q 574 1090 579 1126 q 540 1032 568 1057 q 476 1007 513 1007 q 422 1032 443 1007 q 407 1090 401 1057 z "},"Ḡ":{"ha":772,"x_min":32,"x_max":786,"o":"m 313 -14 q 175 17 232 -14 q 85 104 118 47 q 42 239 51 161 q 47 410 32 317 l 58 482 q 109 659 74 576 q 197 805 144 742 q 317 904 250 868 q 465 940 385 940 q 635 893 571 940 q 658 855 656 876 q 636 813 661 833 l 633 810 q 585 786 611 792 q 538 793 558 781 q 497 817 519 804 q 447 829 475 829 q 331 782 382 829 q 247 656 281 735 q 197 482 213 576 l 186 410 q 199 190 164 268 q 332 111 233 111 q 413 123 372 111 q 489 149 454 135 q 528 183 518 160 q 544 256 539 206 q 557 400 549 307 q 555 411 558 407 q 544 414 551 415 q 490 410 518 413 q 433 403 463 407 q 401 410 415 400 q 381 437 388 419 q 376 471 374 454 q 404 513 381 499 q 454 528 428 528 l 644 528 q 687 519 667 528 q 716 496 707 511 q 714 460 725 481 l 694 417 q 675 347 685 392 q 658 249 665 303 q 649 136 651 194 q 631 88 647 108 q 588 56 615 68 l 529 29 q 522 26 525 28 q 517 24 519 25 q 414 -4 467 6 q 313 -14 361 -14 m 783 1100 q 771 1072 782 1086 q 744 1049 760 1058 q 715 1042 729 1040 q 249 1042 486 1063 q 219 1060 228 1040 q 214 1100 211 1079 l 214 1101 q 231 1134 217 1122 q 265 1146 244 1146 q 499 1148 382 1146 q 735 1160 617 1150 q 760 1152 749 1161 q 779 1129 772 1143 q 783 1101 786 1115 l 783 1100 z "},"H":{"ha":826,"x_min":31,"x_max":826,"o":"m 113 0 q 65 18 81 0 q 56 68 50 36 q 81 230 68 150 q 106 390 93 310 q 103 401 107 397 q 93 404 100 404 q 44 419 57 403 q 36 471 31 435 l 36 474 q 58 514 40 500 q 111 528 76 528 q 122 532 118 528 q 128 542 126 536 q 149 700 139 621 q 167 858 158 779 q 183 895 169 881 q 218 918 197 910 q 260 926 239 926 q 302 918 283 926 q 331 895 321 910 q 333 858 340 881 q 317 787 328 835 q 296 676 307 739 q 274 542 285 613 q 276 532 272 536 q 285 528 279 528 q 444 531 365 529 q 600 538 522 533 q 612 542 608 539 q 617 553 615 546 q 639 683 629 622 q 656 790 649 744 q 667 858 664 836 q 693 908 672 890 q 749 926 714 926 q 803 908 781 926 q 819 858 826 890 q 769 595 792 726 q 727 332 746 464 q 694 68 708 200 q 678 32 693 47 q 644 8 664 17 q 601 0 624 0 q 560 8 579 0 q 531 32 540 17 q 528 68 522 47 q 546 145 536 94 q 567 263 556 196 q 592 403 579 331 q 590 413 593 410 q 581 417 588 417 q 424 416 501 417 q 267 413 346 415 q 255 404 260 413 q 247 379 250 396 q 228 248 238 310 q 215 140 219 186 q 208 68 210 93 q 194 32 208 47 q 158 8 179 17 q 113 0 136 0 z "},"Ħ":{"ha":865,"x_min":32,"x_max":893,"o":"m 50 717 q 72 753 56 740 q 111 767 88 767 q 190 767 135 767 q 319 767 246 767 q 473 769 393 768 q 627 771 553 769 q 757 775 701 772 q 838 781 813 778 q 878 763 863 785 q 888 717 893 740 l 888 714 q 859 675 882 690 q 813 664 836 660 q 734 669 789 668 q 606 669 679 669 q 451 667 532 669 q 297 663 371 665 q 167 657 224 660 q 86 650 111 654 q 53 667 61 646 q 50 714 44 689 l 50 717 m 114 0 q 67 18 82 0 q 57 68 51 36 q 82 230 69 150 q 107 390 94 310 q 105 401 108 397 q 94 404 101 404 q 45 419 58 403 q 38 471 32 435 l 38 474 q 60 514 42 500 q 113 528 78 528 q 124 532 119 528 q 129 542 128 536 q 150 700 140 621 q 168 858 160 779 q 185 895 171 881 q 219 918 199 910 q 261 926 240 926 q 303 918 285 926 q 332 895 322 910 q 335 858 342 881 q 319 787 329 835 q 297 676 308 739 q 275 542 286 613 q 277 532 274 536 q 286 528 281 528 q 445 531 367 529 q 601 538 524 533 q 613 542 610 539 q 618 553 617 546 q 640 683 631 622 q 658 790 650 744 q 668 858 665 836 q 694 908 674 890 q 750 926 715 926 q 805 908 782 926 q 821 858 828 890 q 770 595 793 726 q 728 332 747 464 q 696 68 710 200 q 680 32 694 47 q 645 8 665 17 q 603 0 625 0 q 561 8 581 0 q 533 32 542 17 q 529 68 524 47 q 547 145 538 94 q 569 263 557 196 q 593 403 581 331 q 592 413 594 410 q 582 417 589 417 q 425 416 503 417 q 268 413 347 415 q 256 404 261 413 q 249 379 251 396 q 230 248 239 310 q 216 140 221 186 q 210 68 211 93 q 195 32 210 47 q 159 8 181 17 q 114 0 138 0 z "},"I":{"ha":486,"x_min":-14,"x_max":486,"o":"m 35 -7 q -3 14 8 -7 q -8 61 -14 35 q 13 106 -4 89 q 54 118 29 122 q 76 116 65 117 q 97 114 86 115 q 108 117 103 113 q 114 126 113 121 l 219 796 q 218 806 222 803 q 207 808 214 810 q 186 805 197 807 q 164 801 175 803 q 135 809 146 799 q 122 837 125 819 q 122 872 119 854 q 142 912 125 899 q 183 926 158 925 q 436 926 311 936 q 475 911 464 925 q 482 869 486 897 q 461 827 478 843 q 419 815 444 811 q 399 817 410 817 q 378 819 389 818 q 367 817 371 821 q 361 807 363 814 l 253 138 q 256 127 253 131 q 267 125 260 124 q 288 129 278 128 q 308 132 299 131 q 354 118 336 136 q 367 61 372 100 q 339 23 361 35 q 289 7 317 11 q 162 -5 225 -3 q 35 -7 99 -7 z "},"Ĳ":{"ha":1214,"x_min":-14,"x_max":1226,"o":"m 35 -7 q -3 14 8 -7 q -8 61 -14 35 q 13 106 -4 89 q 54 118 29 122 q 76 116 65 117 q 97 114 86 115 q 108 117 103 113 q 114 126 113 121 l 219 796 q 218 806 222 803 q 207 808 214 810 q 186 805 197 807 q 164 801 175 803 q 135 809 146 799 q 122 837 125 819 q 122 872 119 854 q 142 912 125 899 q 183 926 158 925 q 436 926 311 936 q 475 911 464 925 q 482 869 486 897 q 461 827 478 843 q 419 815 444 811 q 399 817 410 817 q 378 819 389 818 q 367 817 371 821 q 361 807 363 814 l 253 138 q 256 127 253 131 q 267 125 260 124 q 288 129 278 128 q 308 132 299 131 q 354 118 336 136 q 367 61 372 100 q 339 23 361 35 q 289 7 317 11 q 162 -5 225 -3 q 35 -7 99 -7 m 665 -14 q 573 -10 619 -14 q 482 8 526 -6 q 457 27 465 14 q 450 58 449 40 q 463 93 451 76 q 500 129 474 110 q 556 140 526 149 q 617 122 583 132 q 685 111 650 111 q 799 138 751 111 q 876 222 846 164 q 922 375 907 281 l 990 800 q 989 810 992 807 q 979 814 986 814 q 906 812 943 814 q 832 804 869 810 q 789 819 804 800 q 778 864 774 838 q 802 909 782 892 q 849 926 822 926 l 1176 926 q 1213 910 1200 926 q 1222 868 1226 894 q 1202 831 1219 846 q 1163 814 1185 815 l 1146 814 q 1135 810 1140 814 q 1129 800 1131 807 l 1061 375 q 988 163 1040 250 q 853 31 935 76 q 665 -14 772 -14 z "},"Í":{"ha":486,"x_min":-14,"x_max":486,"o":"m 35 -7 q -3 14 8 -7 q -8 61 -14 35 q 13 106 -4 89 q 54 118 29 122 q 76 116 65 117 q 97 114 86 115 q 108 117 103 113 q 114 126 113 121 l 219 796 q 218 806 222 803 q 207 808 214 810 q 186 805 197 807 q 164 801 175 803 q 135 809 146 799 q 122 837 125 819 q 122 872 119 854 q 142 912 125 899 q 183 926 158 925 q 436 926 311 936 q 475 911 464 925 q 482 869 486 897 q 461 827 478 843 q 419 815 444 811 q 399 817 410 817 q 378 819 389 818 q 367 817 371 821 q 361 807 363 814 l 253 138 q 256 127 253 131 q 267 125 260 124 q 288 129 278 128 q 308 132 299 131 q 354 118 336 136 q 367 61 372 100 q 339 23 361 35 q 289 7 317 11 q 162 -5 225 -3 q 35 -7 99 -7 m 256 999 q 223 992 238 988 q 200 1014 208 996 l 200 1017 q 197 1048 192 1033 q 222 1074 203 1063 q 311 1128 267 1100 q 403 1192 356 1156 q 440 1201 419 1206 q 471 1178 461 1197 l 475 1169 q 477 1136 482 1157 q 460 1098 472 1115 q 435 1076 449 1081 q 335 1043 379 1064 q 256 999 292 1022 z "},"Î":{"ha":486,"x_min":-14,"x_max":565,"o":"m 35 -7 q -3 14 8 -7 q -8 61 -14 35 q 13 106 -4 89 q 54 118 29 122 q 76 116 65 117 q 97 114 86 115 q 108 117 103 113 q 114 126 113 121 l 219 796 q 218 806 222 803 q 207 808 214 810 q 186 805 197 807 q 164 801 175 803 q 135 809 146 799 q 122 837 125 819 q 122 872 119 854 q 142 912 125 899 q 183 926 158 925 q 436 926 311 936 q 475 911 464 925 q 482 869 486 897 q 461 827 478 843 q 419 815 444 811 q 399 817 410 817 q 378 819 389 818 q 367 817 371 821 q 361 807 363 814 l 253 138 q 256 127 253 131 q 267 125 260 124 q 288 129 278 128 q 308 132 299 131 q 354 118 336 136 q 367 61 372 100 q 339 23 361 35 q 289 7 317 11 q 162 -5 225 -3 q 35 -7 99 -7 m 551 1050 q 556 1020 565 1042 q 535 983 547 999 l 533 982 q 513 967 526 972 q 488 964 500 963 q 467 971 475 965 q 410 1012 436 992 q 357 1053 385 1032 q 304 1053 332 1071 q 238 1012 269 1032 q 169 971 207 992 q 131 965 153 961 q 103 982 110 968 l 103 983 q 94 1013 97 999 q 107 1036 90 1028 q 179 1074 139 1051 q 258 1121 219 1096 q 322 1168 296 1146 q 351 1179 338 1179 q 375 1168 364 1179 q 463 1104 415 1135 q 551 1050 510 1074 z "},"Ï":{"ha":486,"x_min":-14,"x_max":557,"o":"m 35 -7 q -3 14 8 -7 q -8 61 -14 35 q 13 106 -4 89 q 54 118 29 122 q 76 116 65 117 q 97 114 86 115 q 108 117 103 113 q 114 126 113 121 l 219 796 q 218 806 222 803 q 207 808 214 810 q 186 805 197 807 q 164 801 175 803 q 135 809 146 799 q 122 837 125 819 q 122 872 119 854 q 142 912 125 899 q 183 926 158 925 q 436 926 311 936 q 475 911 464 925 q 482 869 486 897 q 461 827 478 843 q 419 815 444 811 q 399 817 410 817 q 378 819 389 818 q 367 817 371 821 q 361 807 363 814 l 253 138 q 256 127 253 131 q 267 125 260 124 q 288 129 278 128 q 308 132 299 131 q 354 118 336 136 q 367 61 372 100 q 339 23 361 35 q 289 7 317 11 q 162 -5 225 -3 q 35 -7 99 -7 m 199 1000 q 140 1025 161 1000 q 124 1088 118 1050 q 158 1149 129 1124 q 225 1174 188 1174 q 282 1149 261 1174 q 297 1088 303 1124 q 263 1025 292 1050 q 199 1000 235 1000 m 450 1014 q 392 1039 413 1014 q 376 1101 371 1064 q 411 1163 383 1138 q 476 1188 439 1188 q 535 1163 513 1188 q 550 1101 557 1138 q 515 1039 544 1064 q 450 1014 486 1014 z "},"İ":{"ha":486,"x_min":-14,"x_max":486,"o":"m 35 -7 q -3 14 8 -7 q -8 61 -14 35 q 13 106 -4 89 q 54 118 29 122 q 76 116 65 117 q 97 114 86 115 q 108 117 103 113 q 114 126 113 121 l 219 796 q 218 806 222 803 q 207 808 214 810 q 186 805 197 807 q 164 801 175 803 q 135 809 146 799 q 122 837 125 819 q 122 872 119 854 q 142 912 125 899 q 183 926 158 925 q 436 926 311 936 q 475 911 464 925 q 482 869 486 897 q 461 827 478 843 q 419 815 444 811 q 399 817 410 817 q 378 819 389 818 q 367 817 371 821 q 361 807 363 814 l 253 138 q 256 127 253 131 q 267 125 260 124 q 288 129 278 128 q 308 132 299 131 q 354 118 336 136 q 367 61 372 100 q 339 23 361 35 q 289 7 317 11 q 162 -5 225 -3 q 35 -7 99 -7 m 254 1090 q 289 1150 260 1126 q 351 1174 318 1174 q 407 1150 388 1174 q 421 1090 426 1126 q 388 1032 415 1057 q 324 1007 360 1007 q 269 1032 290 1007 q 254 1090 249 1057 z "},"Ì":{"ha":486,"x_min":-14,"x_max":486,"o":"m 35 -7 q -3 14 8 -7 q -8 61 -14 35 q 13 106 -4 89 q 54 118 29 122 q 76 116 65 117 q 97 114 86 115 q 108 117 103 113 q 114 126 113 121 l 219 796 q 218 806 222 803 q 207 808 214 810 q 186 805 197 807 q 164 801 175 803 q 135 809 146 799 q 122 837 125 819 q 122 872 119 854 q 142 912 125 899 q 183 926 158 925 q 436 926 311 936 q 475 911 464 925 q 482 869 486 897 q 461 827 478 843 q 419 815 444 811 q 399 817 410 817 q 378 819 389 818 q 367 817 371 821 q 361 807 363 814 l 253 138 q 256 127 253 131 q 267 125 260 124 q 288 129 278 128 q 308 132 299 131 q 354 118 336 136 q 367 61 372 100 q 339 23 361 35 q 289 7 317 11 q 162 -5 225 -3 q 35 -7 99 -7 m 442 1075 q 464 1041 457 1064 q 457 1000 471 1018 l 456 997 q 419 981 442 979 q 382 994 397 983 q 306 1040 343 1018 q 232 1075 269 1061 q 214 1093 218 1081 q 214 1122 210 1106 q 226 1150 218 1138 l 235 1161 q 267 1193 249 1181 q 300 1190 286 1206 q 375 1122 344 1144 q 442 1075 406 1100 z "},"Ī":{"ha":486,"x_min":-14,"x_max":633,"o":"m 35 -7 q -3 14 8 -7 q -8 61 -14 35 q 13 106 -4 89 q 54 118 29 122 q 76 116 65 117 q 97 114 86 115 q 108 117 103 113 q 114 126 113 121 l 219 796 q 218 806 222 803 q 207 808 214 810 q 186 805 197 807 q 164 801 175 803 q 135 809 146 799 q 122 837 125 819 q 122 872 119 854 q 142 912 125 899 q 183 926 158 925 q 436 926 311 936 q 475 911 464 925 q 482 869 486 897 q 461 827 478 843 q 419 815 444 811 q 399 817 410 817 q 378 819 389 818 q 367 817 371 821 q 361 807 363 814 l 253 138 q 256 127 253 131 q 267 125 260 124 q 288 129 278 128 q 308 132 299 131 q 354 118 336 136 q 367 61 372 100 q 339 23 361 35 q 289 7 317 11 q 162 -5 225 -3 q 35 -7 99 -7 m 631 1100 q 618 1072 629 1086 q 592 1049 607 1058 q 563 1042 576 1040 q 96 1042 333 1063 q 67 1060 75 1040 q 61 1100 58 1079 l 61 1101 q 78 1134 64 1122 q 113 1146 92 1146 q 347 1148 229 1146 q 582 1160 464 1150 q 608 1152 596 1161 q 626 1129 619 1143 q 631 1101 633 1115 l 631 1100 z "},"Į":{"ha":486,"x_min":-14,"x_max":486,"o":"m 35 -7 q -3 14 8 -7 q -8 61 -14 35 q 13 106 -4 89 q 54 118 29 122 q 76 116 65 117 q 97 114 86 115 q 108 117 103 113 q 114 126 113 121 l 219 796 q 218 806 222 803 q 207 808 214 810 q 186 805 197 807 q 164 801 175 803 q 135 809 146 799 q 122 837 125 819 q 122 872 119 854 q 142 912 125 899 q 183 926 158 925 q 436 926 311 936 q 475 911 464 925 q 482 869 486 897 q 461 827 478 843 q 419 815 444 811 q 399 817 410 817 q 378 819 389 818 q 367 817 371 821 q 361 807 363 814 l 253 138 q 256 127 253 131 q 267 125 260 124 q 288 129 278 128 q 308 132 299 131 q 354 118 336 136 q 367 61 372 100 q 339 23 361 35 q 289 7 317 11 q 162 -5 225 -3 q 35 -7 99 -7 m 218 -208 q 146 -191 175 -208 q 107 -144 117 -174 q 110 -76 97 -114 q 137 -28 119 -51 q 183 13 154 -6 q 254 44 213 32 l 286 14 q 267 6 286 14 q 226 -21 247 -1 q 200 -76 206 -40 q 210 -108 197 -99 q 240 -120 222 -118 q 272 -122 258 -122 q 293 -127 283 -122 q 300 -147 303 -132 q 268 -195 294 -182 q 218 -208 242 -208 z "},"Ĩ":{"ha":486,"x_min":-14,"x_max":581,"o":"m 35 -7 q -3 14 8 -7 q -8 61 -14 35 q 13 106 -4 89 q 54 118 29 122 q 76 116 65 117 q 97 114 86 115 q 108 117 103 113 q 114 126 113 121 l 219 796 q 218 806 222 803 q 207 808 214 810 q 186 805 197 807 q 164 801 175 803 q 135 809 146 799 q 122 837 125 819 q 122 872 119 854 q 142 912 125 899 q 183 926 158 925 q 436 926 311 936 q 475 911 464 925 q 482 869 486 897 q 461 827 478 843 q 419 815 444 811 q 399 817 410 817 q 378 819 389 818 q 367 817 371 821 q 361 807 363 814 l 253 138 q 256 127 253 131 q 267 125 260 124 q 288 129 278 128 q 308 132 299 131 q 354 118 336 136 q 367 61 372 100 q 339 23 361 35 q 289 7 317 11 q 162 -5 225 -3 q 35 -7 99 -7 m 107 1043 q 101 1067 99 1054 q 115 1090 103 1079 q 155 1120 132 1104 q 203 1148 178 1136 q 254 1160 229 1160 q 306 1146 288 1160 q 338 1115 325 1132 q 371 1083 351 1097 q 425 1069 390 1069 q 468 1087 444 1069 q 507 1114 492 1104 q 540 1124 522 1124 q 567 1113 557 1124 l 574 1107 q 581 1085 581 1100 q 576 1055 581 1069 q 563 1032 572 1040 q 491 992 536 1010 q 410 975 446 975 q 356 989 375 975 q 323 1020 336 1003 q 292 1051 310 1038 q 239 1065 274 1065 q 199 1055 221 1065 q 158 1033 176 1044 q 133 1024 144 1024 q 111 1036 121 1025 l 107 1043 z "},"J":{"ha":728,"x_min":-37,"x_max":740,"o":"m 179 -14 q 87 -10 133 -14 q -4 8 40 -6 q -29 27 -21 14 q -36 58 -37 40 q -24 93 -35 76 q 14 129 -12 110 q 69 140 40 149 q 131 122 97 132 q 199 111 164 111 q 313 138 265 111 q 390 222 360 164 q 436 375 421 281 l 504 800 q 503 810 506 807 q 493 814 500 814 q 420 812 457 814 q 346 804 383 810 q 303 819 318 800 q 292 864 288 838 q 316 909 296 892 q 363 926 336 926 l 690 926 q 727 910 714 926 q 736 868 740 894 q 716 831 733 846 q 676 814 699 815 l 660 814 q 649 810 654 814 q 643 800 644 807 l 575 375 q 501 163 554 250 q 367 31 449 76 q 179 -14 286 -14 z "},"K":{"ha":678,"x_min":-31,"x_max":686,"o":"m 43 0 q 6 9 24 0 q -21 33 -11 18 q -28 68 -31 49 q 23 332 0 200 q 65 595 46 464 q 99 858 85 726 q 117 893 101 878 q 152 917 132 908 q 192 926 172 926 q 241 908 224 926 q 253 858 258 889 l 201 531 q 204 519 200 521 q 217 525 208 518 q 328 647 272 586 q 439 768 383 707 q 549 889 494 829 q 612 933 582 925 q 664 924 642 940 q 681 899 675 915 q 682 863 686 882 q 657 822 678 843 q 556 722 606 771 q 460 627 507 674 q 368 532 414 581 q 362 522 363 526 q 367 513 361 517 q 426 463 389 497 q 504 375 464 428 q 574 250 544 322 q 613 86 604 178 q 599 43 614 63 q 563 12 585 24 q 517 0 540 0 q 469 15 490 0 q 447 56 447 31 q 428 208 447 143 q 379 318 408 274 q 323 388 350 363 q 281 424 296 414 q 271 427 275 428 q 261 421 267 426 q 218 375 239 399 q 176 328 197 351 q 171 319 172 324 q 168 310 169 315 q 158 229 164 269 q 148 149 153 189 q 139 68 143 108 q 122 33 138 49 q 85 8 107 17 q 43 0 64 0 z "},"Ķ":{"ha":678,"x_min":-31,"x_max":686,"o":"m 43 0 q 6 9 24 0 q -21 33 -11 18 q -28 68 -31 49 q 23 332 0 200 q 65 595 46 464 q 99 858 85 726 q 117 893 101 878 q 152 917 132 908 q 192 926 172 926 q 241 908 224 926 q 253 858 258 889 l 201 531 q 204 519 200 521 q 217 525 208 518 q 328 647 272 586 q 439 768 383 707 q 549 889 494 829 q 612 933 582 925 q 664 924 642 940 q 681 899 675 915 q 682 863 686 882 q 657 822 678 843 q 556 722 606 771 q 460 627 507 674 q 368 532 414 581 q 362 522 363 526 q 367 513 361 517 q 426 463 389 497 q 504 375 464 428 q 574 250 544 322 q 613 86 604 178 q 599 43 614 63 q 563 12 585 24 q 517 0 540 0 q 469 15 490 0 q 447 56 447 31 q 428 208 447 143 q 379 318 408 274 q 323 388 350 363 q 281 424 296 414 q 271 427 275 428 q 261 421 267 426 q 218 375 239 399 q 176 328 197 351 q 171 319 172 324 q 168 310 169 315 q 158 229 164 269 q 148 149 153 189 q 139 68 143 108 q 122 33 138 49 q 85 8 107 17 q 43 0 64 0 m 199 -325 q 176 -340 192 -335 q 146 -346 160 -346 l 140 -346 q 117 -342 131 -346 q 97 -331 104 -339 q 96 -312 89 -324 q 156 -219 132 -258 q 204 -125 179 -179 q 228 -112 208 -117 q 273 -106 249 -108 q 313 -104 297 -104 l 322 -104 q 340 -108 335 -104 q 345 -120 346 -112 q 338 -139 344 -128 q 268 -232 297 -192 q 199 -325 239 -272 z "},"L":{"ha":606,"x_min":39,"x_max":558,"o":"m 113 0 q 74 8 92 0 q 47 32 56 17 q 43 68 39 47 q 94 332 71 200 q 135 595 117 464 q 168 858 154 726 q 185 895 171 881 q 220 918 199 910 q 263 926 242 926 q 313 908 297 926 q 321 858 328 890 q 272 614 294 736 q 231 369 250 492 q 190 125 211 247 q 192 115 189 119 q 201 111 196 111 q 343 122 271 113 q 485 139 415 131 q 526 130 510 142 q 551 99 543 118 q 554 61 558 81 q 539 30 551 43 q 507 8 526 17 q 463 0 488 0 l 113 0 z "},"Ĺ":{"ha":606,"x_min":39,"x_max":575,"o":"m 113 0 q 74 8 92 0 q 47 32 56 17 q 43 68 39 47 q 94 332 71 200 q 135 595 117 464 q 168 858 154 726 q 185 895 171 881 q 220 918 199 910 q 263 926 242 926 q 313 908 297 926 q 321 858 328 890 q 272 614 294 736 q 231 369 250 492 q 190 125 211 247 q 192 115 189 119 q 201 111 196 111 q 343 122 271 113 q 485 139 415 131 q 526 130 510 142 q 551 99 543 118 q 554 61 558 81 q 539 30 551 43 q 507 8 526 17 q 463 0 488 0 l 113 0 m 349 1057 q 316 1050 331 1046 q 293 1072 301 1054 l 293 1075 q 290 1106 285 1092 q 315 1132 296 1121 q 404 1186 360 1158 q 496 1250 449 1214 q 533 1260 513 1264 q 564 1236 554 1256 l 568 1228 q 570 1194 575 1215 q 553 1156 565 1174 q 528 1135 542 1139 q 428 1101 472 1122 q 349 1057 385 1081 z "},"Ľ":{"ha":606,"x_min":39,"x_max":818,"o":"m 113 0 q 74 8 92 0 q 47 32 56 17 q 43 68 39 47 q 94 332 71 200 q 135 595 117 464 q 168 858 154 726 q 185 895 171 881 q 220 918 199 910 q 263 926 242 926 q 313 908 297 926 q 321 858 328 890 q 272 614 294 736 q 231 369 250 492 q 190 125 211 247 q 192 115 189 119 q 201 111 196 111 q 343 122 271 113 q 485 139 415 131 q 526 130 510 142 q 551 99 543 118 q 554 61 558 81 q 539 30 551 43 q 507 8 526 17 q 463 0 488 0 l 113 0 m 693 900 q 706 922 694 914 q 731 935 717 931 q 758 940 746 940 l 761 940 q 788 935 774 940 q 810 922 801 931 q 815 900 818 914 l 769 675 q 750 655 765 661 q 717 649 735 649 l 714 649 q 685 655 701 649 q 669 675 668 661 l 693 900 z "},"Ļ":{"ha":606,"x_min":39,"x_max":558,"o":"m 113 0 q 74 8 92 0 q 47 32 56 17 q 43 68 39 47 q 94 332 71 200 q 135 595 117 464 q 168 858 154 726 q 185 895 171 881 q 220 918 199 910 q 263 926 242 926 q 313 908 297 926 q 321 858 328 890 q 272 614 294 736 q 231 369 250 492 q 190 125 211 247 q 192 115 189 119 q 201 111 196 111 q 343 122 271 113 q 485 139 415 131 q 526 130 510 142 q 551 99 543 118 q 554 61 558 81 q 539 30 551 43 q 507 8 526 17 q 463 0 488 0 l 113 0 m 174 -325 q 151 -340 167 -335 q 121 -346 135 -346 l 115 -346 q 92 -342 106 -346 q 72 -331 79 -339 q 71 -312 64 -324 q 131 -219 107 -258 q 179 -125 154 -179 q 203 -112 183 -117 q 248 -106 224 -108 q 288 -104 272 -104 l 297 -104 q 315 -108 310 -104 q 320 -120 321 -112 q 313 -139 319 -128 q 243 -232 272 -192 q 174 -325 214 -272 z "},"Ŀ":{"ha":606,"x_min":39,"x_max":585,"o":"m 458 285 q 394 313 417 285 q 382 382 372 340 q 424 451 390 422 q 500 479 458 479 q 563 451 540 479 q 576 382 585 422 q 553 332 571 354 q 510 297 535 310 q 458 285 486 285 m 113 0 q 74 8 92 0 q 47 32 56 17 q 43 68 39 47 q 94 332 71 200 q 135 595 117 464 q 168 858 154 726 q 185 895 171 881 q 220 918 199 910 q 263 926 242 926 q 313 908 297 926 q 321 858 328 890 q 272 614 294 736 q 231 369 250 492 q 190 125 211 247 q 192 115 189 119 q 201 111 196 111 q 343 122 271 113 q 485 139 415 131 q 526 130 510 142 q 551 99 543 118 q 554 61 558 81 q 539 30 551 43 q 507 8 526 17 q 463 0 488 0 l 113 0 z "},"Ł":{"ha":685,"x_min":22,"x_max":638,"o":"m 399 653 q 447 672 421 672 q 489 653 474 671 l 490 651 q 503 613 506 633 q 478 574 501 592 q 286 424 381 499 q 115 274 192 349 q 74 255 94 254 q 39 274 54 256 l 38 275 q 26 322 22 294 q 53 367 31 349 q 232 510 151 442 q 399 653 313 578 m 192 0 q 153 8 171 0 q 126 32 135 17 q 122 68 118 47 q 173 332 150 200 q 215 595 196 464 q 247 858 233 726 q 264 895 250 881 q 299 918 278 910 q 342 926 321 926 q 392 908 376 926 q 400 858 407 890 q 351 614 374 736 q 310 369 329 492 q 269 125 290 247 q 272 115 268 119 q 281 111 275 111 q 422 122 350 113 q 564 139 494 131 q 606 130 589 142 q 630 99 622 118 q 633 61 638 81 q 618 30 631 43 q 586 8 606 17 q 542 0 567 0 l 192 0 z "},"M":{"ha":1015,"x_min":-29,"x_max":946,"o":"m 321 744 q 314 752 319 751 q 306 746 308 753 q 252 578 281 679 q 195 349 224 478 q 140 67 167 219 q 107 17 136 35 q 44 0 78 0 q -9 19 11 0 q -19 72 -29 38 q 75 388 26 238 q 168 660 124 538 q 247 864 213 782 q 290 910 260 893 q 349 926 319 926 q 405 909 381 926 q 431 863 429 892 q 448 633 439 743 q 465 425 457 522 q 481 247 474 328 q 487 242 481 242 q 494 247 493 242 q 567 425 526 328 q 651 633 607 522 q 742 863 696 743 q 784 909 753 892 q 846 926 815 926 q 898 910 875 926 q 925 864 921 893 q 939 660 933 782 q 945 388 944 538 q 939 72 946 238 q 925 33 938 50 q 893 8 913 17 q 851 0 874 0 q 792 19 817 0 q 774 72 768 38 q 801 272 790 174 q 819 460 813 371 q 828 621 826 549 q 828 743 831 693 q 822 749 828 749 q 813 742 815 749 q 690 453 744 583 q 598 226 636 324 q 539 67 560 129 q 503 18 528 36 q 446 0 478 0 q 397 18 415 0 q 379 67 379 36 q 365 307 378 142 q 321 744 351 472 z "},"N":{"ha":760,"x_min":-31,"x_max":760,"o":"m 504 0 q 460 15 478 0 q 435 54 442 29 q 378 269 403 181 q 335 420 354 358 q 301 526 317 482 q 269 603 285 569 q 235 672 253 638 q 228 675 233 676 q 222 668 222 674 q 175 369 196 513 q 139 68 154 225 q 124 33 139 49 q 87 9 108 18 q 44 0 65 0 q 7 9 25 0 q -21 33 -11 18 q -28 68 -31 49 q 24 324 1 196 q 64 578 46 451 q 96 833 82 706 q 116 882 99 861 q 157 915 133 903 q 201 926 181 926 q 251 913 229 926 q 292 869 272 900 q 344 772 315 832 q 403 639 374 713 q 457 484 432 565 q 499 322 482 403 q 507 313 501 311 q 514 325 513 314 q 542 509 529 422 q 567 684 556 596 q 589 872 579 772 q 605 907 590 892 q 640 931 619 922 q 681 940 661 940 q 720 931 701 940 q 749 907 739 922 q 756 872 760 892 q 703 614 728 744 q 658 352 679 483 q 615 93 636 221 q 579 26 610 53 q 504 0 549 0 z "},"Ń":{"ha":760,"x_min":-31,"x_max":760,"o":"m 504 0 q 460 15 478 0 q 435 54 442 29 q 378 269 403 181 q 335 420 354 358 q 301 526 317 482 q 269 603 285 569 q 235 672 253 638 q 228 675 233 676 q 222 668 222 674 q 175 369 196 513 q 139 68 154 225 q 124 33 139 49 q 87 9 108 18 q 44 0 65 0 q 7 9 25 0 q -21 33 -11 18 q -28 68 -31 49 q 24 324 1 196 q 64 578 46 451 q 96 833 82 706 q 116 882 99 861 q 157 915 133 903 q 201 926 181 926 q 251 913 229 926 q 292 869 272 900 q 344 772 315 832 q 403 639 374 713 q 457 484 432 565 q 499 322 482 403 q 507 313 501 311 q 514 325 513 314 q 542 509 529 422 q 567 684 556 596 q 589 872 579 772 q 605 907 590 892 q 640 931 619 922 q 681 940 661 940 q 720 931 701 940 q 749 907 739 922 q 756 872 760 892 q 703 614 728 744 q 658 352 679 483 q 615 93 636 221 q 579 26 610 53 q 504 0 549 0 m 400 999 q 367 992 382 988 q 344 1014 353 996 l 344 1017 q 342 1048 336 1033 q 367 1074 347 1063 q 456 1128 411 1100 q 547 1192 500 1156 q 585 1201 564 1206 q 615 1178 606 1197 l 619 1169 q 622 1136 626 1157 q 605 1098 617 1115 q 579 1076 593 1081 q 480 1043 524 1064 q 400 999 436 1022 z "},"Ň":{"ha":760,"x_min":-31,"x_max":760,"o":"m 504 0 q 460 15 478 0 q 435 54 442 29 q 378 269 403 181 q 335 420 354 358 q 301 526 317 482 q 269 603 285 569 q 235 672 253 638 q 228 675 233 676 q 222 668 222 674 q 175 369 196 513 q 139 68 154 225 q 124 33 139 49 q 87 9 108 18 q 44 0 65 0 q 7 9 25 0 q -21 33 -11 18 q -28 68 -31 49 q 24 324 1 196 q 64 578 46 451 q 96 833 82 706 q 116 882 99 861 q 157 915 133 903 q 201 926 181 926 q 251 913 229 926 q 292 869 272 900 q 344 772 315 832 q 403 639 374 713 q 457 484 432 565 q 499 322 482 403 q 507 313 501 311 q 514 325 513 314 q 542 509 529 422 q 567 684 556 596 q 589 872 579 772 q 605 907 590 892 q 640 931 619 922 q 681 940 661 940 q 720 931 701 940 q 749 907 739 922 q 756 872 760 892 q 703 614 728 744 q 658 352 679 483 q 615 93 636 221 q 579 26 610 53 q 504 0 549 0 m 711 1176 q 716 1153 717 1167 q 709 1128 715 1140 q 690 1110 703 1117 q 586 1051 631 1076 q 492 992 542 1025 q 463 982 476 982 q 439 992 450 982 q 360 1063 400 1025 q 281 1124 321 1101 q 267 1147 265 1132 q 281 1176 269 1163 l 281 1178 q 306 1196 292 1193 q 333 1189 321 1199 q 403 1142 369 1165 q 472 1096 438 1119 q 482 1093 478 1093 q 492 1096 486 1093 q 569 1150 532 1121 q 649 1203 606 1179 q 684 1203 664 1213 q 711 1178 704 1193 l 711 1176 z "},"Ņ":{"ha":760,"x_min":-31,"x_max":760,"o":"m 504 0 q 460 15 478 0 q 435 54 442 29 q 378 269 403 181 q 335 420 354 358 q 301 526 317 482 q 269 603 285 569 q 235 672 253 638 q 228 675 233 676 q 222 668 222 674 q 175 369 196 513 q 139 68 154 225 q 124 33 139 49 q 87 9 108 18 q 44 0 65 0 q 7 9 25 0 q -21 33 -11 18 q -28 68 -31 49 q 24 324 1 196 q 64 578 46 451 q 96 833 82 706 q 116 882 99 861 q 157 915 133 903 q 201 926 181 926 q 251 913 229 926 q 292 869 272 900 q 344 772 315 832 q 403 639 374 713 q 457 484 432 565 q 499 322 482 403 q 507 313 501 311 q 514 325 513 314 q 542 509 529 422 q 567 684 556 596 q 589 872 579 772 q 605 907 590 892 q 640 931 619 922 q 681 940 661 940 q 720 931 701 940 q 749 907 739 922 q 756 872 760 892 q 703 614 728 744 q 658 352 679 483 q 615 93 636 221 q 579 26 610 53 q 504 0 549 0 m 233 -325 q 210 -340 226 -335 q 181 -346 194 -346 l 175 -346 q 152 -342 165 -346 q 131 -331 139 -339 q 131 -312 124 -324 q 190 -219 167 -258 q 239 -125 214 -179 q 263 -112 243 -117 q 308 -106 283 -108 q 347 -104 332 -104 l 357 -104 q 375 -108 369 -104 q 380 -120 381 -112 q 372 -139 379 -128 q 303 -232 332 -192 q 233 -325 274 -272 z "},"Ñ":{"ha":760,"x_min":-31,"x_max":760,"o":"m 504 0 q 460 15 478 0 q 435 54 442 29 q 378 269 403 181 q 335 420 354 358 q 301 526 317 482 q 269 603 285 569 q 235 672 253 638 q 228 675 233 676 q 222 668 222 674 q 175 369 196 513 q 139 68 154 225 q 124 33 139 49 q 87 9 108 18 q 44 0 65 0 q 7 9 25 0 q -21 33 -11 18 q -28 68 -31 49 q 24 324 1 196 q 64 578 46 451 q 96 833 82 706 q 116 882 99 861 q 157 915 133 903 q 201 926 181 926 q 251 913 229 926 q 292 869 272 900 q 344 772 315 832 q 403 639 374 713 q 457 484 432 565 q 499 322 482 403 q 507 313 501 311 q 514 325 513 314 q 542 509 529 422 q 567 684 556 596 q 589 872 579 772 q 605 907 590 892 q 640 931 619 922 q 681 940 661 940 q 720 931 701 940 q 749 907 739 922 q 756 872 760 892 q 703 614 728 744 q 658 352 679 483 q 615 93 636 221 q 579 26 610 53 q 504 0 549 0 m 251 1043 q 245 1067 243 1054 q 260 1090 247 1079 q 299 1120 276 1104 q 348 1148 322 1136 q 399 1160 374 1160 q 451 1146 432 1160 q 483 1115 469 1132 q 515 1083 496 1097 q 569 1069 535 1069 q 613 1087 589 1069 q 651 1114 636 1104 q 684 1124 667 1124 q 711 1113 701 1124 l 718 1107 q 725 1085 725 1100 q 721 1055 725 1069 q 707 1032 717 1040 q 635 992 681 1010 q 554 975 590 975 q 500 989 519 975 q 467 1020 481 1003 q 436 1051 454 1038 q 383 1065 418 1065 q 343 1055 365 1065 q 303 1033 321 1044 q 277 1024 289 1024 q 256 1036 265 1025 l 251 1043 z "},"O":{"ha":792,"x_min":39,"x_max":754,"o":"m 739 482 q 662 210 714 318 q 529 48 610 103 q 333 -14 449 -7 q 175 11 238 -19 q 81 105 113 42 q 44 263 49 168 q 58 482 39 358 q 111 666 75 582 q 201 811 147 750 q 324 906 256 872 q 472 940 392 940 q 610 905 553 940 q 701 806 668 869 q 744 660 735 743 q 739 482 754 578 m 192 444 q 203 191 165 281 q 339 111 240 101 q 504 201 440 122 q 594 444 568 281 l 600 482 q 605 656 615 576 q 558 782 594 735 q 454 829 521 829 q 336 782 389 829 q 248 656 283 735 q 197 482 213 576 l 192 444 z "},"Ó":{"ha":792,"x_min":39,"x_max":754,"o":"m 739 482 q 662 210 714 318 q 529 48 610 103 q 333 -14 449 -7 q 175 11 238 -19 q 81 105 113 42 q 44 263 49 168 q 58 482 39 358 q 111 666 75 582 q 201 811 147 750 q 324 906 256 872 q 472 940 392 940 q 610 905 553 940 q 701 806 668 869 q 744 660 735 743 q 739 482 754 578 m 192 444 q 203 191 165 281 q 339 111 240 101 q 504 201 440 122 q 594 444 568 281 l 600 482 q 605 656 615 576 q 558 782 594 735 q 454 829 521 829 q 336 782 389 829 q 248 656 283 735 q 197 482 213 576 l 192 444 m 415 999 q 383 992 397 988 q 360 1014 368 996 l 360 1017 q 357 1048 351 1033 q 382 1074 363 1063 q 471 1128 426 1100 q 563 1192 515 1156 q 600 1201 579 1206 q 631 1178 621 1197 l 635 1169 q 637 1136 642 1157 q 620 1098 632 1115 q 594 1076 608 1081 q 495 1043 539 1064 q 415 999 451 1022 z "},"Ô":{"ha":792,"x_min":39,"x_max":754,"o":"m 739 482 q 662 210 714 318 q 529 48 610 103 q 333 -14 449 -7 q 175 11 238 -19 q 81 105 113 42 q 44 263 49 168 q 58 482 39 358 q 111 666 75 582 q 201 811 147 750 q 324 906 256 872 q 472 940 392 940 q 610 905 553 940 q 701 806 668 869 q 744 660 735 743 q 739 482 754 578 m 192 444 q 203 191 165 281 q 339 111 240 101 q 504 201 440 122 q 594 444 568 281 l 600 482 q 605 656 615 576 q 558 782 594 735 q 454 829 521 829 q 336 782 389 829 q 248 656 283 735 q 197 482 213 576 l 192 444 m 711 1050 q 716 1020 725 1042 q 694 983 707 999 l 693 982 q 673 967 686 972 q 647 964 660 963 q 626 971 635 965 q 570 1012 596 992 q 517 1053 544 1032 q 464 1053 492 1071 q 398 1012 429 1032 q 329 971 367 992 q 291 965 313 961 q 263 982 269 968 l 263 983 q 253 1013 257 999 q 267 1036 250 1028 q 339 1074 299 1051 q 417 1121 379 1096 q 482 1168 456 1146 q 510 1179 497 1179 q 535 1168 524 1179 q 622 1104 575 1135 q 711 1050 669 1074 z "},"Ö":{"ha":792,"x_min":39,"x_max":754,"o":"m 739 482 q 662 210 714 318 q 529 48 610 103 q 333 -14 449 -7 q 175 11 238 -19 q 81 105 113 42 q 44 263 49 168 q 58 482 39 358 q 111 666 75 582 q 201 811 147 750 q 324 906 256 872 q 472 940 392 940 q 610 905 553 940 q 701 806 668 869 q 744 660 735 743 q 739 482 754 578 m 192 444 q 203 191 165 281 q 339 111 240 101 q 504 201 440 122 q 594 444 568 281 l 600 482 q 605 656 615 576 q 558 782 594 735 q 454 829 521 829 q 336 782 389 829 q 248 656 283 735 q 197 482 213 576 l 192 444 m 358 1000 q 299 1025 321 1000 q 283 1088 278 1050 q 318 1149 289 1124 q 385 1174 347 1174 q 442 1149 421 1174 q 457 1088 463 1124 q 423 1025 451 1050 q 358 1000 394 1000 m 610 1014 q 551 1039 572 1014 q 536 1101 531 1064 q 571 1163 543 1138 q 636 1188 599 1188 q 694 1163 672 1188 q 710 1101 717 1138 q 675 1039 704 1064 q 610 1014 646 1014 z "},"Ò":{"ha":792,"x_min":39,"x_max":754,"o":"m 739 482 q 662 210 714 318 q 529 48 610 103 q 333 -14 449 -7 q 175 11 238 -19 q 81 105 113 42 q 44 263 49 168 q 58 482 39 358 q 111 666 75 582 q 201 811 147 750 q 324 906 256 872 q 472 940 392 940 q 610 905 553 940 q 701 806 668 869 q 744 660 735 743 q 739 482 754 578 m 192 444 q 203 191 165 281 q 339 111 240 101 q 504 201 440 122 q 594 444 568 281 l 600 482 q 605 656 615 576 q 558 782 594 735 q 454 829 521 829 q 336 782 389 829 q 248 656 283 735 q 197 482 213 576 l 192 444 m 601 1075 q 624 1041 617 1064 q 617 1000 631 1018 l 615 997 q 579 981 601 979 q 542 994 557 983 q 466 1040 503 1018 q 392 1075 429 1061 q 374 1093 378 1081 q 374 1122 369 1106 q 386 1150 378 1138 l 394 1161 q 427 1193 408 1181 q 460 1190 446 1206 q 535 1122 504 1144 q 601 1075 565 1100 z "},"Ő":{"ha":792,"x_min":39,"x_max":782,"o":"m 739 482 q 662 210 714 318 q 529 48 610 103 q 333 -14 449 -7 q 175 11 238 -19 q 81 105 113 42 q 44 263 49 168 q 58 482 39 358 q 111 666 75 582 q 201 811 147 750 q 324 906 256 872 q 472 940 392 940 q 610 905 553 940 q 701 806 668 869 q 744 660 735 743 q 739 482 754 578 m 192 444 q 203 191 165 281 q 339 111 240 101 q 504 201 440 122 q 594 444 568 281 l 600 482 q 605 656 615 576 q 558 782 594 735 q 454 829 521 829 q 336 782 389 829 q 248 656 283 735 q 197 482 213 576 l 192 444 m 426 982 q 401 965 419 971 q 369 958 383 958 l 364 958 q 333 969 346 958 q 332 997 321 979 q 401 1105 368 1051 q 460 1213 433 1158 q 481 1227 464 1222 q 521 1234 499 1232 q 558 1236 543 1236 l 568 1236 q 588 1231 582 1236 q 594 1216 594 1225 q 585 1196 593 1207 q 506 1089 546 1143 q 426 982 467 1035 m 600 982 q 575 965 593 971 q 543 958 557 958 l 538 958 q 507 969 519 958 q 506 997 494 979 q 576 1105 542 1051 q 647 1213 611 1158 q 681 1231 654 1225 q 732 1236 708 1236 l 742 1236 q 766 1230 756 1236 q 779 1215 776 1224 q 772 1196 782 1206 q 681 1089 722 1143 q 600 982 640 1035 z "},"Ō":{"ha":792,"x_min":39,"x_max":793,"o":"m 739 482 q 662 210 714 318 q 529 48 610 103 q 333 -14 449 -7 q 175 11 238 -19 q 81 105 113 42 q 44 263 49 168 q 58 482 39 358 q 111 666 75 582 q 201 811 147 750 q 324 906 256 872 q 472 940 392 940 q 610 905 553 940 q 701 806 668 869 q 744 660 735 743 q 739 482 754 578 m 192 444 q 203 191 165 281 q 339 111 240 101 q 504 201 440 122 q 594 444 568 281 l 600 482 q 605 656 615 576 q 558 782 594 735 q 454 829 521 829 q 336 782 389 829 q 248 656 283 735 q 197 482 213 576 l 192 444 m 790 1100 q 778 1072 789 1086 q 751 1049 767 1058 q 722 1042 736 1040 q 256 1042 493 1063 q 226 1060 235 1040 q 221 1100 218 1079 l 221 1101 q 238 1134 224 1122 q 272 1146 251 1146 q 506 1148 389 1146 q 742 1160 624 1150 q 767 1152 756 1161 q 786 1129 779 1143 q 790 1101 793 1115 l 790 1100 z "},"Ø":{"ha":792,"x_min":39,"x_max":754,"o":"m 165 -35 l 161 -33 q 135 -13 147 -26 q 120 17 124 0 q 124 47 117 33 q 340 485 236 267 q 546 922 444 704 q 574 952 557 946 q 613 947 590 958 l 617 946 q 652 919 639 936 q 654 879 665 901 q 440 442 542 661 q 246 4 338 224 q 226 -22 240 -11 q 197 -37 213 -33 q 165 -35 181 -42 m 739 482 q 662 210 714 318 q 529 48 610 103 q 333 -14 449 -7 q 175 11 238 -19 q 81 105 113 42 q 44 263 49 168 q 58 482 39 358 q 111 666 75 582 q 201 811 147 750 q 324 906 256 872 q 472 940 392 940 q 610 905 553 940 q 701 806 668 869 q 744 660 735 743 q 739 482 754 578 m 192 444 q 203 191 165 281 q 339 111 240 101 q 504 201 440 122 q 594 444 568 281 l 600 482 q 605 656 615 576 q 558 782 594 735 q 454 829 521 829 q 336 782 389 829 q 248 656 283 735 q 197 482 213 576 l 192 444 z "},"Õ":{"ha":792,"x_min":39,"x_max":754,"o":"m 739 482 q 662 210 714 318 q 529 48 610 103 q 333 -14 449 -7 q 175 11 238 -19 q 81 105 113 42 q 44 263 49 168 q 58 482 39 358 q 111 666 75 582 q 201 811 147 750 q 324 906 256 872 q 472 940 392 940 q 610 905 553 940 q 701 806 668 869 q 744 660 735 743 q 739 482 754 578 m 192 444 q 203 191 165 281 q 339 111 240 101 q 504 201 440 122 q 594 444 568 281 l 600 482 q 605 656 615 576 q 558 782 594 735 q 454 829 521 829 q 336 782 389 829 q 248 656 283 735 q 197 482 213 576 l 192 444 m 267 1043 q 260 1067 258 1054 q 275 1090 263 1079 q 315 1120 292 1104 q 363 1148 338 1136 q 414 1160 389 1160 q 466 1146 447 1160 q 498 1115 485 1132 q 531 1083 511 1097 q 585 1069 550 1069 q 628 1087 604 1069 q 667 1114 651 1104 q 699 1124 682 1124 q 726 1113 717 1124 l 733 1107 q 740 1085 740 1100 q 736 1055 740 1069 q 722 1032 732 1040 q 651 992 696 1010 q 569 975 606 975 q 515 989 535 975 q 483 1020 496 1003 q 451 1051 469 1038 q 399 1065 433 1065 q 358 1055 381 1065 q 318 1033 336 1044 q 292 1024 304 1024 q 271 1036 281 1025 l 267 1043 z "},"Œ":{"ha":1161,"x_min":39,"x_max":1200,"o":"m 333 -14 q 174 11 236 -19 q 79 105 111 42 q 43 263 47 168 q 58 482 39 358 q 111 666 75 582 q 201 811 147 750 q 324 906 256 872 q 472 940 392 940 q 599 905 553 940 q 666 806 646 869 q 685 660 686 743 q 669 482 685 578 q 626 267 650 358 q 567 116 603 176 q 476 24 532 56 q 333 -14 419 -8 m 190 444 q 203 191 165 281 q 339 111 240 101 q 503 201 439 122 q 593 444 568 281 l 600 482 q 605 656 615 576 q 558 782 594 735 q 454 829 521 829 q 336 782 389 829 q 248 656 283 735 q 197 482 213 576 l 190 444 m 1196 869 q 1184 836 1193 853 q 1161 810 1175 819 q 1131 801 1147 800 q 1021 811 1078 808 q 906 815 964 814 q 792 815 847 815 q 770 808 778 815 q 764 788 763 801 q 752 665 761 728 q 733 542 743 601 q 738 522 732 528 q 757 518 743 517 q 893 528 826 525 q 1026 542 960 532 q 1064 522 1054 546 q 1069 471 1074 499 q 1049 431 1065 444 q 1007 417 1033 417 q 873 415 940 417 q 736 406 806 414 q 717 397 724 404 q 707 378 710 390 q 686 258 697 317 q 657 139 675 200 q 660 118 656 125 q 678 111 664 111 q 794 112 736 111 q 912 116 853 113 q 1029 125 971 119 q 1067 105 1057 128 q 1071 54 1076 82 q 1051 14 1068 28 q 1008 0 1035 0 l 561 0 q 515 14 535 0 q 501 54 496 28 q 565 326 538 190 q 609 599 592 463 q 635 872 626 736 q 647 902 635 890 q 676 920 658 914 q 711 926 694 926 l 1151 926 q 1189 912 1178 926 q 1196 869 1200 897 z "},"P":{"ha":678,"x_min":-31,"x_max":719,"o":"m 44 0 q 7 9 25 0 q -21 34 -11 18 q -28 69 -31 50 q 23 333 0 201 q 65 595 46 464 q 97 857 83 726 q 116 892 100 878 q 153 915 132 906 q 193 926 175 924 q 271 937 225 933 q 396 940 317 940 q 583 906 510 940 q 688 810 656 872 q 706 663 719 747 q 638 515 693 578 q 495 419 583 453 q 293 385 407 385 q 240 389 267 385 q 196 394 213 393 q 184 392 190 397 q 175 381 178 388 q 153 225 163 303 q 140 69 143 147 q 125 34 140 50 q 88 9 110 18 q 44 0 65 0 m 242 818 q 233 813 236 817 q 229 803 229 810 q 218 662 228 733 q 197 521 208 590 q 207 507 194 510 q 253 501 221 506 q 326 496 285 496 q 495 540 435 496 q 568 663 556 585 q 559 752 576 715 q 497 809 542 789 q 379 829 453 829 q 312 828 346 829 q 242 818 278 826 z "},"Þ":{"ha":669,"x_min":-37,"x_max":681,"o":"m 38 -14 q -15 3 7 -14 q -31 50 -37 19 q 22 322 -3 182 q 70 603 47 463 q 114 876 93 744 q 145 924 119 907 q 201 940 171 940 l 204 940 q 235 933 225 940 q 247 911 244 925 q 244 876 249 897 l 222 732 l 358 732 q 545 701 472 732 q 649 613 618 671 q 667 472 681 556 q 625 356 657 410 q 542 264 593 303 q 424 208 492 225 q 274 199 356 190 l 140 213 l 115 50 q 91 3 110 19 q 42 -14 72 -14 l 38 -14 m 206 629 l 157 315 l 292 308 q 463 347 401 303 q 538 472 525 392 q 502 591 550 553 q 343 629 454 629 l 206 629 z "},"Q":{"ha":792,"x_min":24,"x_max":754,"o":"m 739 482 q 621 135 704 258 q 396 -10 538 13 q 381 -25 382 -11 q 402 -127 375 -89 q 485 -176 429 -165 q 513 -193 503 -181 q 519 -226 524 -206 q 500 -262 517 -249 q 460 -275 483 -276 q 300 -193 354 -260 q 256 -21 246 -126 q 246 -6 257 -10 q 66 143 108 22 q 58 482 24 264 q 111 666 75 582 q 201 811 147 750 q 324 906 256 872 q 472 940 392 940 q 610 905 553 940 q 701 806 668 869 q 744 660 735 743 q 739 482 754 578 m 192 444 q 203 191 165 281 q 339 111 240 101 q 504 201 440 122 q 594 444 568 281 l 600 482 q 605 656 615 576 q 558 782 594 735 q 454 829 521 829 q 336 782 389 829 q 248 656 283 735 q 197 482 213 576 l 192 444 z "},"R":{"ha":699,"x_min":-31,"x_max":700,"o":"m 44 0 q 7 9 25 0 q -21 33 -11 18 q -28 68 -31 49 q 11 265 -7 167 q 45 463 29 364 q 74 661 61 563 q 99 858 88 760 q 133 903 103 888 q 192 926 164 919 q 269 940 217 933 q 397 947 322 947 q 573 913 504 947 q 671 816 642 878 q 688 672 700 754 q 617 519 674 583 q 465 424 560 454 q 460 419 461 422 q 463 414 460 417 q 501 376 478 401 q 547 313 524 351 q 588 219 569 274 q 611 90 606 164 q 600 45 614 65 q 563 13 586 25 q 517 0 540 0 q 471 15 493 0 q 447 56 449 31 q 419 221 442 151 q 369 335 396 290 q 325 400 343 379 q 321 402 324 401 q 311 403 318 403 q 252 407 288 403 q 197 414 217 411 q 179 400 179 417 q 153 234 165 317 q 139 68 142 151 q 124 33 139 49 q 87 9 108 18 q 44 0 65 0 m 329 514 q 483 556 428 514 q 550 672 538 599 q 520 788 561 746 q 381 829 479 829 q 304 825 342 829 q 247 818 267 821 q 237 813 242 817 q 232 801 232 808 q 222 670 231 736 q 203 538 213 604 q 203 530 201 533 q 210 525 206 526 q 253 518 222 522 q 329 514 283 514 z "},"Ŕ":{"ha":699,"x_min":-31,"x_max":700,"o":"m 44 0 q 7 9 25 0 q -21 33 -11 18 q -28 68 -31 49 q 11 265 -7 167 q 45 463 29 364 q 74 661 61 563 q 99 858 88 760 q 133 903 103 888 q 192 926 164 919 q 269 940 217 933 q 397 947 322 947 q 573 913 504 947 q 671 816 642 878 q 688 672 700 754 q 617 519 674 583 q 465 424 560 454 q 460 419 461 422 q 463 414 460 417 q 501 376 478 401 q 547 313 524 351 q 588 219 569 274 q 611 90 606 164 q 600 45 614 65 q 563 13 586 25 q 517 0 540 0 q 471 15 493 0 q 447 56 449 31 q 419 221 442 151 q 369 335 396 290 q 325 400 343 379 q 321 402 324 401 q 311 403 318 403 q 252 407 288 403 q 197 414 217 411 q 179 400 179 417 q 153 234 165 317 q 139 68 142 151 q 124 33 139 49 q 87 9 108 18 q 44 0 65 0 m 329 514 q 483 556 428 514 q 550 672 538 599 q 520 788 561 746 q 381 829 479 829 q 304 825 342 829 q 247 818 267 821 q 237 813 242 817 q 232 801 232 808 q 222 670 231 736 q 203 538 213 604 q 203 530 201 533 q 210 525 206 526 q 253 518 222 522 q 329 514 283 514 m 374 999 q 341 992 356 988 q 318 1014 326 996 l 318 1017 q 315 1048 310 1033 q 340 1074 321 1063 q 429 1128 385 1100 q 521 1192 474 1156 q 558 1201 538 1206 q 589 1178 579 1197 l 593 1169 q 595 1136 600 1157 q 578 1098 590 1115 q 553 1076 567 1081 q 453 1043 497 1064 q 374 999 410 1022 z "},"Ř":{"ha":699,"x_min":-31,"x_max":700,"o":"m 44 0 q 7 9 25 0 q -21 33 -11 18 q -28 68 -31 49 q 11 265 -7 167 q 45 463 29 364 q 74 661 61 563 q 99 858 88 760 q 133 903 103 888 q 192 926 164 919 q 269 940 217 933 q 397 947 322 947 q 573 913 504 947 q 671 816 642 878 q 688 672 700 754 q 617 519 674 583 q 465 424 560 454 q 460 419 461 422 q 463 414 460 417 q 501 376 478 401 q 547 313 524 351 q 588 219 569 274 q 611 90 606 164 q 600 45 614 65 q 563 13 586 25 q 517 0 540 0 q 471 15 493 0 q 447 56 449 31 q 419 221 442 151 q 369 335 396 290 q 325 400 343 379 q 321 402 324 401 q 311 403 318 403 q 252 407 288 403 q 197 414 217 411 q 179 400 179 417 q 153 234 165 317 q 139 68 142 151 q 124 33 139 49 q 87 9 108 18 q 44 0 65 0 m 329 514 q 483 556 428 514 q 550 672 538 599 q 520 788 561 746 q 381 829 479 829 q 304 825 342 829 q 247 818 267 821 q 237 813 242 817 q 232 801 232 808 q 222 670 231 736 q 203 538 213 604 q 203 530 201 533 q 210 525 206 526 q 253 518 222 522 q 329 514 283 514 m 685 1176 q 690 1153 690 1167 q 683 1128 689 1140 q 664 1110 676 1117 q 560 1051 604 1076 q 465 992 515 1025 q 437 982 450 982 q 413 992 424 982 q 334 1063 374 1025 q 254 1124 294 1101 q 241 1147 239 1132 q 254 1176 243 1163 l 254 1178 q 280 1196 265 1193 q 307 1189 294 1199 q 377 1142 343 1165 q 446 1096 411 1119 q 456 1093 451 1093 q 465 1096 460 1093 q 542 1150 506 1121 q 622 1203 579 1179 q 658 1203 638 1213 q 685 1178 678 1193 l 685 1176 z "},"Ŗ":{"ha":699,"x_min":-31,"x_max":700,"o":"m 44 0 q 7 9 25 0 q -21 33 -11 18 q -28 68 -31 49 q 11 265 -7 167 q 45 463 29 364 q 74 661 61 563 q 99 858 88 760 q 133 903 103 888 q 192 926 164 919 q 269 940 217 933 q 397 947 322 947 q 573 913 504 947 q 671 816 642 878 q 688 672 700 754 q 617 519 674 583 q 465 424 560 454 q 460 419 461 422 q 463 414 460 417 q 501 376 478 401 q 547 313 524 351 q 588 219 569 274 q 611 90 606 164 q 600 45 614 65 q 563 13 586 25 q 517 0 540 0 q 471 15 493 0 q 447 56 449 31 q 419 221 442 151 q 369 335 396 290 q 325 400 343 379 q 321 402 324 401 q 311 403 318 403 q 252 407 288 403 q 197 414 217 411 q 179 400 179 417 q 153 234 165 317 q 139 68 142 151 q 124 33 139 49 q 87 9 108 18 q 44 0 65 0 m 329 514 q 483 556 428 514 q 550 672 538 599 q 520 788 561 746 q 381 829 479 829 q 304 825 342 829 q 247 818 267 821 q 237 813 242 817 q 232 801 232 808 q 222 670 231 736 q 203 538 213 604 q 203 530 201 533 q 210 525 206 526 q 253 518 222 522 q 329 514 283 514 m 208 -325 q 185 -340 201 -335 q 156 -346 169 -346 l 150 -346 q 127 -342 140 -346 q 106 -331 114 -339 q 106 -312 99 -324 q 165 -219 142 -258 q 214 -125 189 -179 q 238 -112 218 -117 q 283 -106 258 -108 q 322 -104 307 -104 l 332 -104 q 350 -108 344 -104 q 355 -120 356 -112 q 347 -139 354 -128 q 278 -232 307 -192 q 208 -325 249 -272 z "},"S":{"ha":615,"x_min":-26,"x_max":582,"o":"m 567 278 q 502 124 553 190 q 373 22 451 58 q 196 -14 294 -14 q 99 -5 147 -14 q 8 22 51 4 q -21 52 -15 33 q -21 93 -26 71 q -6 125 -18 110 q 22 151 6 140 q 52 165 38 161 q 76 161 67 168 q 142 126 107 140 q 215 111 176 111 q 360 151 306 111 q 428 278 414 190 q 394 366 435 326 q 267 431 353 406 q 111 531 160 463 q 76 693 63 599 q 173 873 96 806 q 363 940 250 940 q 535 892 465 940 q 558 856 554 876 q 538 815 561 835 l 529 808 q 482 785 508 790 q 436 793 456 779 q 396 817 418 804 q 344 829 374 829 q 249 794 286 829 q 201 694 213 760 q 225 606 193 640 q 329 556 257 572 q 522 452 461 524 q 567 278 582 381 z "},"Ś":{"ha":615,"x_min":-26,"x_max":582,"o":"m 567 278 q 502 124 553 190 q 373 22 451 58 q 196 -14 294 -14 q 99 -5 147 -14 q 8 22 51 4 q -21 52 -15 33 q -21 93 -26 71 q -6 125 -18 110 q 22 151 6 140 q 52 165 38 161 q 76 161 67 168 q 142 126 107 140 q 215 111 176 111 q 360 151 306 111 q 428 278 414 190 q 394 366 435 326 q 267 431 353 406 q 111 531 160 463 q 76 693 63 599 q 173 873 96 806 q 363 940 250 940 q 535 892 465 940 q 558 856 554 876 q 538 815 561 835 l 529 808 q 482 785 508 790 q 436 793 456 779 q 396 817 418 804 q 344 829 374 829 q 249 794 286 829 q 201 694 213 760 q 225 606 193 640 q 329 556 257 572 q 522 452 461 524 q 567 278 582 381 m 304 999 q 272 992 286 988 q 249 1014 257 996 l 249 1017 q 246 1048 240 1033 q 271 1074 251 1063 q 360 1128 315 1100 q 451 1192 404 1156 q 489 1201 468 1206 q 519 1178 510 1197 l 524 1169 q 526 1136 531 1157 q 509 1098 521 1115 q 483 1076 497 1081 q 384 1043 428 1064 q 304 999 340 1022 z "},"Š":{"ha":615,"x_min":-26,"x_max":621,"o":"m 567 278 q 502 124 553 190 q 373 22 451 58 q 196 -14 294 -14 q 99 -5 147 -14 q 8 22 51 4 q -21 52 -15 33 q -21 93 -26 71 q -6 125 -18 110 q 22 151 6 140 q 52 165 38 161 q 76 161 67 168 q 142 126 107 140 q 215 111 176 111 q 360 151 306 111 q 428 278 414 190 q 394 366 435 326 q 267 431 353 406 q 111 531 160 463 q 76 693 63 599 q 173 873 96 806 q 363 940 250 940 q 535 892 465 940 q 558 856 554 876 q 538 815 561 835 l 529 808 q 482 785 508 790 q 436 793 456 779 q 396 817 418 804 q 344 829 374 829 q 249 794 286 829 q 201 694 213 760 q 225 606 193 640 q 329 556 257 572 q 522 452 461 524 q 567 278 582 381 m 615 1176 q 620 1153 621 1167 q 613 1128 619 1140 q 594 1110 607 1117 q 490 1051 535 1076 q 396 992 446 1025 q 367 982 381 982 q 343 992 354 982 q 265 1063 304 1025 q 185 1124 225 1101 q 172 1147 169 1132 q 185 1176 174 1163 l 185 1178 q 210 1196 196 1193 q 238 1189 225 1199 q 308 1142 274 1165 q 376 1096 342 1119 q 386 1093 382 1093 q 396 1096 390 1093 q 473 1150 436 1121 q 553 1203 510 1179 q 588 1203 568 1213 q 615 1178 608 1193 l 615 1176 z "},"Ş":{"ha":615,"x_min":-26,"x_max":582,"o":"m 567 278 q 502 124 553 190 q 373 22 451 58 q 196 -14 294 -14 q 99 -5 147 -14 q 8 22 51 4 q -21 52 -15 33 q -21 93 -26 71 q -6 125 -18 110 q 22 151 6 140 q 52 165 38 161 q 76 161 67 168 q 142 126 107 140 q 215 111 176 111 q 360 151 306 111 q 428 278 414 190 q 394 366 435 326 q 267 431 353 406 q 111 531 160 463 q 76 693 63 599 q 173 873 96 806 q 363 940 250 940 q 535 892 465 940 q 558 856 554 876 q 538 815 561 835 l 529 808 q 482 785 508 790 q 436 793 456 779 q 396 817 418 804 q 344 829 374 829 q 249 794 286 829 q 201 694 213 760 q 225 606 193 640 q 329 556 257 572 q 522 452 461 524 q 567 278 582 381 m 164 -229 q 140 -226 153 -229 q 117 -219 128 -224 q 103 -194 104 -212 q 111 -162 103 -176 l 111 -161 q 130 -143 119 -146 q 151 -144 140 -140 q 165 -147 158 -146 q 176 -147 171 -147 q 214 -125 210 -147 q 204 -111 217 -111 q 178 -111 192 -111 q 156 -106 167 -111 q 139 -90 144 -100 q 136 -71 133 -81 l 164 7 l 233 7 l 208 -57 q 267 -67 238 -49 q 290 -125 297 -85 q 267 -178 286 -154 q 222 -215 249 -201 q 164 -229 194 -229 z "},"Ș":{"ha":615,"x_min":-26,"x_max":582,"o":"m 567 278 q 502 124 553 190 q 373 22 451 58 q 196 -14 294 -14 q 99 -5 147 -14 q 8 22 51 4 q -21 52 -15 33 q -21 93 -26 71 q -6 125 -18 110 q 22 151 6 140 q 52 165 38 161 q 76 161 67 168 q 142 126 107 140 q 215 111 176 111 q 360 151 306 111 q 428 278 414 190 q 394 366 435 326 q 267 431 353 406 q 111 531 160 463 q 76 693 63 599 q 173 873 96 806 q 363 940 250 940 q 535 892 465 940 q 558 856 554 876 q 538 815 561 835 l 529 808 q 482 785 508 790 q 436 793 456 779 q 396 817 418 804 q 344 829 374 829 q 249 794 286 829 q 201 694 213 760 q 225 606 193 640 q 329 556 257 572 q 522 452 461 524 q 567 278 582 381 m 124 -325 q 101 -340 117 -335 q 71 -346 85 -346 l 65 -346 q 42 -342 56 -346 q 22 -331 29 -339 q 21 -312 14 -324 q 81 -219 57 -258 q 129 -125 104 -179 q 153 -112 133 -117 q 198 -106 174 -108 q 238 -104 222 -104 l 247 -104 q 265 -108 260 -104 q 270 -120 271 -112 q 263 -139 269 -128 q 193 -232 222 -192 q 124 -325 164 -272 z "},"ẞ":{"ha":853,"x_min":4,"x_max":819,"o":"m 175 69 q 158 30 174 49 q 122 -1 143 11 q 79 -12 101 -12 l 76 -12 q 38 -1 56 -12 q 13 30 21 11 q 8 69 4 49 q 47 267 29 168 q 81 464 65 365 q 110 661 97 563 q 133 858 124 760 q 150 895 136 881 q 185 918 164 910 q 226 926 206 926 l 781 926 q 803 915 799 926 q 804 888 808 904 q 786 857 800 872 l 529 571 q 524 560 524 565 q 533 553 525 556 q 705 497 640 526 q 794 419 769 467 q 807 293 819 372 q 742 136 793 206 q 612 27 690 67 q 435 -12 533 -12 q 337 4 385 -12 q 244 39 289 21 q 222 67 224 49 q 233 107 219 85 l 238 113 q 279 151 253 132 q 326 164 306 171 q 388 133 358 153 q 456 113 417 113 q 600 159 546 113 q 668 293 654 206 q 633 374 676 342 q 506 431 589 406 l 381 468 q 348 488 358 475 q 341 519 338 501 q 361 557 344 538 l 579 799 q 584 810 586 806 q 574 815 582 815 l 293 815 q 276 801 278 815 q 238 557 257 679 q 203 313 219 435 q 175 69 188 192 z "},"T":{"ha":682,"x_min":99,"x_max":732,"o":"m 367 54 q 335 4 364 22 q 275 -14 307 -14 q 217 4 240 -14 q 200 54 194 22 q 251 303 228 181 q 294 549 274 426 q 333 797 314 672 q 322 811 336 811 q 235 808 279 810 q 146 801 190 806 q 109 822 119 800 q 103 869 99 843 q 124 913 107 897 q 167 926 140 929 q 424 924 294 917 q 685 940 554 931 q 722 920 711 943 q 728 869 732 897 q 706 822 724 843 q 663 801 688 800 q 576 808 619 806 q 489 811 533 810 q 472 797 475 811 q 434 549 453 674 q 398 301 415 425 q 367 54 381 178 z "},"Ť":{"ha":682,"x_min":99,"x_max":732,"o":"m 367 54 q 335 4 364 22 q 275 -14 307 -14 q 217 4 240 -14 q 200 54 194 22 q 251 303 228 181 q 294 549 274 426 q 333 797 314 672 q 322 811 336 811 q 235 808 279 810 q 146 801 190 806 q 109 822 119 800 q 103 869 99 843 q 124 913 107 897 q 167 926 140 929 q 424 924 294 917 q 685 940 554 931 q 722 920 711 943 q 728 869 732 897 q 706 822 724 843 q 663 801 688 800 q 576 808 619 806 q 489 811 533 810 q 472 797 475 811 q 434 549 453 674 q 398 301 415 425 q 367 54 381 178 m 681 1176 q 685 1153 686 1167 q 678 1128 685 1140 q 660 1110 672 1117 q 556 1051 600 1076 q 461 992 511 1025 q 433 982 446 982 q 408 992 419 982 q 330 1063 369 1025 q 250 1124 290 1101 q 237 1147 235 1132 q 250 1176 239 1163 l 250 1178 q 276 1196 261 1193 q 303 1189 290 1199 q 373 1142 339 1165 q 442 1096 407 1119 q 451 1093 447 1093 q 461 1096 456 1093 q 538 1150 501 1121 q 618 1203 575 1179 q 653 1203 633 1213 q 681 1178 674 1193 l 681 1176 z "},"Ţ":{"ha":682,"x_min":99,"x_max":732,"o":"m 367 54 q 335 4 364 22 q 275 -14 307 -14 q 217 4 240 -14 q 200 54 194 22 q 251 303 228 181 q 294 549 274 426 q 333 797 314 672 q 322 811 336 811 q 235 808 279 810 q 146 801 190 806 q 109 822 119 800 q 103 869 99 843 q 124 913 107 897 q 167 926 140 929 q 424 924 294 917 q 685 940 554 931 q 722 920 711 943 q 728 869 732 897 q 706 822 724 843 q 663 801 688 800 q 576 808 619 806 q 489 811 533 810 q 472 797 475 811 q 434 549 453 674 q 398 301 415 425 q 367 54 381 178 m 242 -229 q 218 -226 231 -229 q 194 -219 206 -224 q 181 -194 182 -212 q 189 -162 181 -176 l 189 -161 q 208 -143 197 -146 q 229 -144 218 -140 q 242 -147 236 -146 q 254 -147 249 -147 q 292 -125 288 -147 q 282 -111 294 -111 q 256 -111 269 -111 q 233 -106 244 -111 q 217 -90 222 -100 q 214 -71 211 -81 l 242 7 l 311 7 l 286 -57 q 345 -67 315 -49 q 368 -125 375 -85 q 345 -178 364 -154 q 299 -215 326 -201 q 242 -229 272 -229 z "},"Ț":{"ha":682,"x_min":92,"x_max":732,"o":"m 367 54 q 335 4 364 22 q 275 -14 307 -14 q 217 4 240 -14 q 200 54 194 22 q 251 303 228 181 q 294 549 274 426 q 333 797 314 672 q 322 811 336 811 q 235 808 279 810 q 146 801 190 806 q 109 822 119 800 q 103 869 99 843 q 124 913 107 897 q 167 926 140 929 q 424 924 294 917 q 685 940 554 931 q 722 920 711 943 q 728 869 732 897 q 706 822 724 843 q 663 801 688 800 q 576 808 619 806 q 489 811 533 810 q 472 797 475 811 q 434 549 453 674 q 398 301 415 425 q 367 54 381 178 m 201 -325 q 178 -340 194 -335 q 149 -346 163 -346 l 143 -346 q 120 -342 133 -346 q 99 -331 107 -339 q 99 -312 92 -324 q 158 -219 135 -258 q 207 -125 182 -179 q 231 -112 211 -117 q 276 -106 251 -108 q 315 -104 300 -104 l 325 -104 q 343 -108 338 -104 q 348 -120 349 -112 q 340 -139 347 -128 q 271 -232 300 -192 q 201 -325 242 -272 z "},"U":{"ha":757,"x_min":4,"x_max":758,"o":"m 193 926 q 240 907 224 926 q 250 857 256 888 q 225 696 238 776 q 199 535 213 615 q 174 375 186 456 q 183 172 151 233 q 304 111 215 111 q 446 172 393 111 q 521 375 499 233 q 547 540 533 456 q 570 707 560 624 q 586 871 581 790 q 603 907 589 892 q 640 931 618 922 q 681 940 661 940 q 719 931 701 940 q 748 907 738 922 q 753 871 758 892 q 717 707 733 790 q 686 540 700 624 q 660 375 672 456 q 592 160 640 250 q 468 25 544 71 q 285 -14 392 -21 q 70 92 136 -4 q 35 375 4 188 q 60 535 47 456 q 82 696 72 615 q 97 857 92 776 q 115 893 100 878 q 152 917 131 908 q 193 926 174 926 z "},"Ú":{"ha":757,"x_min":4,"x_max":758,"o":"m 193 926 q 240 907 224 926 q 250 857 256 888 q 225 696 238 776 q 199 535 213 615 q 174 375 186 456 q 183 172 151 233 q 304 111 215 111 q 446 172 393 111 q 521 375 499 233 q 547 540 533 456 q 570 707 560 624 q 586 871 581 790 q 603 907 589 892 q 640 931 618 922 q 681 940 661 940 q 719 931 701 940 q 748 907 738 922 q 753 871 758 892 q 717 707 733 790 q 686 540 700 624 q 660 375 672 456 q 592 160 640 250 q 468 25 544 71 q 285 -14 392 -21 q 70 92 136 -4 q 35 375 4 188 q 60 535 47 456 q 82 696 72 615 q 97 857 92 776 q 115 893 100 878 q 152 917 131 908 q 193 926 174 926 m 381 999 q 348 992 363 988 q 325 1014 333 996 l 325 1017 q 322 1048 317 1033 q 347 1074 328 1063 q 436 1128 392 1100 q 528 1192 481 1156 q 565 1201 544 1206 q 596 1178 586 1197 l 600 1169 q 602 1136 607 1157 q 585 1098 597 1115 q 560 1076 574 1081 q 460 1043 504 1064 q 381 999 417 1022 z "},"Û":{"ha":757,"x_min":4,"x_max":758,"o":"m 193 926 q 240 907 224 926 q 250 857 256 888 q 225 696 238 776 q 199 535 213 615 q 174 375 186 456 q 183 172 151 233 q 304 111 215 111 q 446 172 393 111 q 521 375 499 233 q 547 540 533 456 q 570 707 560 624 q 586 871 581 790 q 603 907 589 892 q 640 931 618 922 q 681 940 661 940 q 719 931 701 940 q 748 907 738 922 q 753 871 758 892 q 717 707 733 790 q 686 540 700 624 q 660 375 672 456 q 592 160 640 250 q 468 25 544 71 q 285 -14 392 -21 q 70 92 136 -4 q 35 375 4 188 q 60 535 47 456 q 82 696 72 615 q 97 857 92 776 q 115 893 100 878 q 152 917 131 908 q 193 926 174 926 m 676 1050 q 681 1020 690 1042 q 660 983 672 999 l 658 982 q 638 967 651 972 q 613 964 625 963 q 592 971 600 965 q 535 1012 561 992 q 482 1053 510 1032 q 429 1053 457 1071 q 363 1012 394 1032 q 294 971 332 992 q 256 965 278 961 q 228 982 235 968 l 228 983 q 219 1013 222 999 q 232 1036 215 1028 q 304 1074 264 1051 q 383 1121 344 1096 q 447 1168 421 1146 q 476 1179 463 1179 q 500 1168 489 1179 q 588 1104 540 1135 q 676 1050 635 1074 z "},"Ü":{"ha":757,"x_min":4,"x_max":758,"o":"m 193 926 q 240 907 224 926 q 250 857 256 888 q 225 696 238 776 q 199 535 213 615 q 174 375 186 456 q 183 172 151 233 q 304 111 215 111 q 446 172 393 111 q 521 375 499 233 q 547 540 533 456 q 570 707 560 624 q 586 871 581 790 q 603 907 589 892 q 640 931 618 922 q 681 940 661 940 q 719 931 701 940 q 748 907 738 922 q 753 871 758 892 q 717 707 733 790 q 686 540 700 624 q 660 375 672 456 q 592 160 640 250 q 468 25 544 71 q 285 -14 392 -21 q 70 92 136 -4 q 35 375 4 188 q 60 535 47 456 q 82 696 72 615 q 97 857 92 776 q 115 893 100 878 q 152 917 131 908 q 193 926 174 926 m 324 1000 q 265 1025 286 1000 q 249 1088 243 1050 q 283 1149 254 1124 q 350 1174 313 1174 q 407 1149 386 1174 q 422 1088 428 1124 q 388 1025 417 1050 q 324 1000 360 1000 m 575 1014 q 517 1039 538 1014 q 501 1101 496 1064 q 536 1163 508 1138 q 601 1188 564 1188 q 660 1163 638 1188 q 675 1101 682 1138 q 640 1039 669 1064 q 575 1014 611 1014 z "},"Ù":{"ha":757,"x_min":4,"x_max":758,"o":"m 193 926 q 240 907 224 926 q 250 857 256 888 q 225 696 238 776 q 199 535 213 615 q 174 375 186 456 q 183 172 151 233 q 304 111 215 111 q 446 172 393 111 q 521 375 499 233 q 547 540 533 456 q 570 707 560 624 q 586 871 581 790 q 603 907 589 892 q 640 931 618 922 q 681 940 661 940 q 719 931 701 940 q 748 907 738 922 q 753 871 758 892 q 717 707 733 790 q 686 540 700 624 q 660 375 672 456 q 592 160 640 250 q 468 25 544 71 q 285 -14 392 -21 q 70 92 136 -4 q 35 375 4 188 q 60 535 47 456 q 82 696 72 615 q 97 857 92 776 q 115 893 100 878 q 152 917 131 908 q 193 926 174 926 m 567 1075 q 589 1041 582 1064 q 582 1000 596 1018 l 581 997 q 544 981 567 979 q 507 994 522 983 q 431 1040 468 1018 q 357 1075 394 1061 q 339 1093 343 1081 q 339 1122 335 1106 q 351 1150 343 1138 l 360 1161 q 392 1193 374 1181 q 425 1190 411 1206 q 500 1122 469 1144 q 567 1075 531 1100 z "},"Ű":{"ha":757,"x_min":4,"x_max":758,"o":"m 193 926 q 240 907 224 926 q 250 857 256 888 q 225 696 238 776 q 199 535 213 615 q 174 375 186 456 q 183 172 151 233 q 304 111 215 111 q 446 172 393 111 q 521 375 499 233 q 547 540 533 456 q 570 707 560 624 q 586 871 581 790 q 603 907 589 892 q 640 931 618 922 q 681 940 661 940 q 719 931 701 940 q 748 907 738 922 q 753 871 758 892 q 717 707 733 790 q 686 540 700 624 q 660 375 672 456 q 592 160 640 250 q 468 25 544 71 q 285 -14 392 -21 q 70 92 136 -4 q 35 375 4 188 q 60 535 47 456 q 82 696 72 615 q 97 857 92 776 q 115 893 100 878 q 152 917 131 908 q 193 926 174 926 m 392 982 q 367 965 385 971 q 335 958 349 958 l 329 958 q 299 969 311 958 q 297 997 286 979 q 366 1105 333 1051 q 425 1213 399 1158 q 447 1227 429 1222 q 486 1234 464 1232 q 524 1236 508 1236 l 533 1236 q 553 1231 547 1236 q 559 1216 560 1225 q 550 1196 558 1207 q 472 1089 511 1143 q 392 982 432 1035 m 565 982 q 540 965 558 971 q 508 958 522 958 l 503 958 q 472 969 485 958 q 471 997 460 979 q 542 1105 507 1051 q 613 1213 576 1158 q 647 1231 619 1225 q 697 1236 674 1236 l 707 1236 q 731 1230 721 1236 q 744 1215 742 1224 q 738 1196 747 1206 q 647 1089 688 1143 q 565 982 606 1035 z "},"Ū":{"ha":757,"x_min":4,"x_max":758,"o":"m 193 926 q 240 907 224 926 q 250 857 256 888 q 225 696 238 776 q 199 535 213 615 q 174 375 186 456 q 183 172 151 233 q 304 111 215 111 q 446 172 393 111 q 521 375 499 233 q 547 540 533 456 q 570 707 560 624 q 586 871 581 790 q 603 907 589 892 q 640 931 618 922 q 681 940 661 940 q 719 931 701 940 q 748 907 738 922 q 753 871 758 892 q 717 707 733 790 q 686 540 700 624 q 660 375 672 456 q 592 160 640 250 q 468 25 544 71 q 285 -14 392 -21 q 70 92 136 -4 q 35 375 4 188 q 60 535 47 456 q 82 696 72 615 q 97 857 92 776 q 115 893 100 878 q 152 917 131 908 q 193 926 174 926 m 756 1100 q 743 1072 754 1086 q 717 1049 732 1058 q 688 1042 701 1040 q 221 1042 458 1063 q 192 1060 200 1040 q 186 1100 183 1079 l 186 1101 q 203 1134 189 1122 q 238 1146 217 1146 q 472 1148 354 1146 q 707 1160 589 1150 q 733 1152 721 1161 q 751 1129 744 1143 q 756 1101 758 1115 l 756 1100 z "},"Ų":{"ha":757,"x_min":4,"x_max":758,"o":"m 193 926 q 240 907 224 926 q 250 857 256 888 q 225 696 238 776 q 199 535 213 615 q 174 375 186 456 q 183 172 151 233 q 304 111 215 111 q 446 172 393 111 q 521 375 499 233 q 547 540 533 456 q 570 707 560 624 q 586 871 581 790 q 603 907 589 892 q 640 931 618 922 q 681 940 661 940 q 719 931 701 940 q 748 907 738 922 q 753 871 758 892 q 717 707 733 790 q 686 540 700 624 q 660 375 672 456 q 592 160 640 250 q 468 25 544 71 q 285 -14 392 -21 q 70 92 136 -4 q 35 375 4 188 q 60 535 47 456 q 82 696 72 615 q 97 857 92 776 q 115 893 100 878 q 152 917 131 908 q 193 926 174 926 m 376 -208 q 304 -191 333 -208 q 265 -144 275 -174 q 268 -76 256 -114 q 295 -28 278 -51 q 342 13 313 -6 q 413 44 371 32 l 444 14 q 425 6 444 14 q 385 -21 406 -1 q 358 -76 364 -40 q 368 -108 356 -99 q 399 -120 381 -118 q 431 -122 417 -122 q 451 -127 442 -122 q 458 -147 461 -132 q 426 -195 453 -182 q 376 -208 400 -208 z "},"Ů":{"ha":757,"x_min":4,"x_max":758,"o":"m 193 926 q 240 907 224 926 q 250 857 256 888 q 225 696 238 776 q 199 535 213 615 q 174 375 186 456 q 183 172 151 233 q 304 111 215 111 q 446 172 393 111 q 521 375 499 233 q 547 540 533 456 q 570 707 560 624 q 586 871 581 790 q 603 907 589 892 q 640 931 618 922 q 681 940 661 940 q 719 931 701 940 q 748 907 738 922 q 753 871 758 892 q 717 707 733 790 q 686 540 700 624 q 660 375 672 456 q 592 160 640 250 q 468 25 544 71 q 285 -14 392 -21 q 70 92 136 -4 q 35 375 4 188 q 60 535 47 456 q 82 696 72 615 q 97 857 92 776 q 115 893 100 878 q 152 917 131 908 q 193 926 174 926 m 353 1056 q 374 1108 357 1085 q 418 1146 392 1132 q 472 1160 444 1160 q 523 1146 501 1160 q 555 1108 544 1132 q 561 1056 565 1085 q 541 1002 557 1028 q 500 960 525 976 q 439 944 475 944 q 390 960 411 944 q 358 1002 368 976 q 353 1056 349 1028 m 408 1056 q 417 1022 404 1036 q 449 1007 429 1007 q 485 1022 468 1007 q 506 1056 501 1036 q 496 1090 508 1075 q 464 1104 483 1104 q 428 1090 444 1104 q 408 1056 411 1075 z "},"Ũ":{"ha":757,"x_min":4,"x_max":758,"o":"m 193 926 q 240 907 224 926 q 250 857 256 888 q 225 696 238 776 q 199 535 213 615 q 174 375 186 456 q 183 172 151 233 q 304 111 215 111 q 446 172 393 111 q 521 375 499 233 q 547 540 533 456 q 570 707 560 624 q 586 871 581 790 q 603 907 589 892 q 640 931 618 922 q 681 940 661 940 q 719 931 701 940 q 748 907 738 922 q 753 871 758 892 q 717 707 733 790 q 686 540 700 624 q 660 375 672 456 q 592 160 640 250 q 468 25 544 71 q 285 -14 392 -21 q 70 92 136 -4 q 35 375 4 188 q 60 535 47 456 q 82 696 72 615 q 97 857 92 776 q 115 893 100 878 q 152 917 131 908 q 193 926 174 926 m 232 1043 q 226 1067 224 1054 q 240 1090 228 1079 q 280 1120 257 1104 q 328 1148 303 1136 q 379 1160 354 1160 q 431 1146 413 1160 q 463 1115 450 1132 q 496 1083 476 1097 q 550 1069 515 1069 q 593 1087 569 1069 q 632 1114 617 1104 q 665 1124 647 1124 q 692 1113 682 1124 l 699 1107 q 706 1085 706 1100 q 701 1055 706 1069 q 688 1032 697 1040 q 616 992 661 1010 q 535 975 571 975 q 481 989 500 975 q 448 1020 461 1003 q 417 1051 435 1038 q 364 1065 399 1065 q 324 1055 346 1065 q 283 1033 301 1044 q 258 1024 269 1024 q 236 1036 246 1025 l 232 1043 z "},"V":{"ha":763,"x_min":100,"x_max":814,"o":"m 340 168 q 346 164 342 164 q 351 168 350 164 q 456 376 404 264 q 554 612 507 488 q 639 867 601 736 q 660 901 644 885 q 697 929 676 918 q 735 940 717 940 q 792 923 774 940 q 813 879 811 906 q 800 825 814 853 q 682 572 744 703 q 554 310 619 440 q 424 63 489 181 q 381 17 408 33 q 321 0 353 0 q 265 17 288 0 q 235 63 242 33 q 183 310 207 181 q 140 572 160 440 q 103 825 121 703 q 112 876 100 853 q 144 913 124 899 q 186 926 165 926 q 244 906 226 926 q 264 850 263 885 q 278 601 268 722 q 303 371 288 481 q 340 168 319 261 z "},"W":{"ha":1064,"x_min":104,"x_max":1122,"o":"m 244 0 q 186 17 214 0 q 156 63 158 33 q 135 333 146 194 q 116 606 124 472 q 106 854 108 739 q 124 908 104 889 q 181 926 143 926 q 234 911 213 926 q 253 864 256 896 q 248 642 250 758 q 251 404 246 525 q 268 163 256 283 q 270 160 268 160 q 274 163 272 160 q 371 403 325 283 q 456 640 417 524 q 525 863 496 757 q 556 910 535 894 q 607 926 576 926 q 663 910 647 926 q 678 863 679 894 q 677 640 675 757 q 687 403 679 524 q 707 163 694 283 q 709 160 707 160 q 713 163 711 160 q 807 408 764 283 q 887 652 850 532 q 953 878 924 772 q 989 925 963 910 q 1049 940 1015 940 q 1090 932 1072 940 q 1115 908 1107 924 q 1113 868 1122 892 q 1038 681 1078 781 q 956 477 997 582 q 872 267 914 372 q 792 63 831 161 q 747 17 781 33 q 683 0 714 0 q 624 17 653 0 q 594 64 596 33 q 586 237 592 144 q 576 431 581 329 q 568 636 571 532 q 567 639 568 639 q 563 636 565 639 q 490 431 528 532 q 416 237 451 329 q 353 64 381 144 q 309 17 343 33 q 244 0 275 0 z "},"Ẃ":{"ha":1064,"x_min":104,"x_max":1122,"o":"m 244 0 q 186 17 214 0 q 156 63 158 33 q 135 333 146 194 q 116 606 124 472 q 106 854 108 739 q 124 908 104 889 q 181 926 143 926 q 234 911 213 926 q 253 864 256 896 q 248 642 250 758 q 251 404 246 525 q 268 163 256 283 q 270 160 268 160 q 274 163 272 160 q 371 403 325 283 q 456 640 417 524 q 525 863 496 757 q 556 910 535 894 q 607 926 576 926 q 663 910 647 926 q 678 863 679 894 q 677 640 675 757 q 687 403 679 524 q 707 163 694 283 q 709 160 707 160 q 713 163 711 160 q 807 408 764 283 q 887 652 850 532 q 953 878 924 772 q 989 925 963 910 q 1049 940 1015 940 q 1090 932 1072 940 q 1115 908 1107 924 q 1113 868 1122 892 q 1038 681 1078 781 q 956 477 997 582 q 872 267 914 372 q 792 63 831 161 q 747 17 781 33 q 683 0 714 0 q 624 17 653 0 q 594 64 596 33 q 586 237 592 144 q 576 431 581 329 q 568 636 571 532 q 567 639 568 639 q 563 636 565 639 q 490 431 528 532 q 416 237 451 329 q 353 64 381 144 q 309 17 343 33 q 244 0 275 0 m 557 999 q 524 992 539 988 q 501 1014 510 996 l 501 1017 q 499 1048 493 1033 q 524 1074 504 1063 q 613 1128 568 1100 q 704 1192 657 1156 q 742 1201 721 1206 q 772 1178 763 1197 l 776 1169 q 778 1136 783 1157 q 762 1098 774 1115 q 736 1076 750 1081 q 637 1043 681 1064 q 557 999 593 1022 z "},"Ŵ":{"ha":1064,"x_min":104,"x_max":1122,"o":"m 244 0 q 186 17 214 0 q 156 63 158 33 q 135 333 146 194 q 116 606 124 472 q 106 854 108 739 q 124 908 104 889 q 181 926 143 926 q 234 911 213 926 q 253 864 256 896 q 248 642 250 758 q 251 404 246 525 q 268 163 256 283 q 270 160 268 160 q 274 163 272 160 q 371 403 325 283 q 456 640 417 524 q 525 863 496 757 q 556 910 535 894 q 607 926 576 926 q 663 910 647 926 q 678 863 679 894 q 677 640 675 757 q 687 403 679 524 q 707 163 694 283 q 709 160 707 160 q 713 163 711 160 q 807 408 764 283 q 887 652 850 532 q 953 878 924 772 q 989 925 963 910 q 1049 940 1015 940 q 1090 932 1072 940 q 1115 908 1107 924 q 1113 868 1122 892 q 1038 681 1078 781 q 956 477 997 582 q 872 267 914 372 q 792 63 831 161 q 747 17 781 33 q 683 0 714 0 q 624 17 653 0 q 594 64 596 33 q 586 237 592 144 q 576 431 581 329 q 568 636 571 532 q 567 639 568 639 q 563 636 565 639 q 490 431 528 532 q 416 237 451 329 q 353 64 381 144 q 309 17 343 33 q 244 0 275 0 m 853 1050 q 858 1020 867 1042 q 836 983 849 999 l 835 982 q 815 967 828 972 q 789 964 801 963 q 768 971 776 965 q 712 1012 738 992 q 658 1053 686 1032 q 606 1053 633 1071 q 540 1012 571 1032 q 471 971 508 992 q 433 965 454 961 q 404 982 411 968 l 404 983 q 395 1013 399 999 q 408 1036 392 1028 q 481 1074 440 1051 q 559 1121 521 1096 q 624 1168 597 1146 q 652 1179 639 1179 q 676 1168 665 1179 q 764 1104 717 1135 q 853 1050 811 1074 z "},"Ẅ":{"ha":1064,"x_min":104,"x_max":1122,"o":"m 244 0 q 186 17 214 0 q 156 63 158 33 q 135 333 146 194 q 116 606 124 472 q 106 854 108 739 q 124 908 104 889 q 181 926 143 926 q 234 911 213 926 q 253 864 256 896 q 248 642 250 758 q 251 404 246 525 q 268 163 256 283 q 270 160 268 160 q 274 163 272 160 q 371 403 325 283 q 456 640 417 524 q 525 863 496 757 q 556 910 535 894 q 607 926 576 926 q 663 910 647 926 q 678 863 679 894 q 677 640 675 757 q 687 403 679 524 q 707 163 694 283 q 709 160 707 160 q 713 163 711 160 q 807 408 764 283 q 887 652 850 532 q 953 878 924 772 q 989 925 963 910 q 1049 940 1015 940 q 1090 932 1072 940 q 1115 908 1107 924 q 1113 868 1122 892 q 1038 681 1078 781 q 956 477 997 582 q 872 267 914 372 q 792 63 831 161 q 747 17 781 33 q 683 0 714 0 q 624 17 653 0 q 594 64 596 33 q 586 237 592 144 q 576 431 581 329 q 568 636 571 532 q 567 639 568 639 q 563 636 565 639 q 490 431 528 532 q 416 237 451 329 q 353 64 381 144 q 309 17 343 33 q 244 0 275 0 m 500 1000 q 441 1025 463 1000 q 425 1088 419 1050 q 460 1149 431 1124 q 526 1174 489 1174 q 583 1149 563 1174 q 599 1088 604 1124 q 565 1025 593 1050 q 500 1000 536 1000 m 751 1014 q 693 1039 714 1014 q 678 1101 672 1064 q 713 1163 685 1138 q 778 1188 740 1188 q 836 1163 814 1188 q 851 1101 858 1138 q 817 1039 846 1064 q 751 1014 788 1014 z "},"Ẁ":{"ha":1064,"x_min":104,"x_max":1122,"o":"m 244 0 q 186 17 214 0 q 156 63 158 33 q 135 333 146 194 q 116 606 124 472 q 106 854 108 739 q 124 908 104 889 q 181 926 143 926 q 234 911 213 926 q 253 864 256 896 q 248 642 250 758 q 251 404 246 525 q 268 163 256 283 q 270 160 268 160 q 274 163 272 160 q 371 403 325 283 q 456 640 417 524 q 525 863 496 757 q 556 910 535 894 q 607 926 576 926 q 663 910 647 926 q 678 863 679 894 q 677 640 675 757 q 687 403 679 524 q 707 163 694 283 q 709 160 707 160 q 713 163 711 160 q 807 408 764 283 q 887 652 850 532 q 953 878 924 772 q 989 925 963 910 q 1049 940 1015 940 q 1090 932 1072 940 q 1115 908 1107 924 q 1113 868 1122 892 q 1038 681 1078 781 q 956 477 997 582 q 872 267 914 372 q 792 63 831 161 q 747 17 781 33 q 683 0 714 0 q 624 17 653 0 q 594 64 596 33 q 586 237 592 144 q 576 431 581 329 q 568 636 571 532 q 567 639 568 639 q 563 636 565 639 q 490 431 528 532 q 416 237 451 329 q 353 64 381 144 q 309 17 343 33 q 244 0 275 0 m 743 1075 q 765 1041 758 1064 q 758 1000 772 1018 l 757 997 q 721 981 743 979 q 683 994 699 983 q 608 1040 644 1018 q 533 1075 571 1061 q 515 1093 519 1081 q 515 1122 511 1106 q 528 1150 519 1138 l 536 1161 q 569 1193 550 1181 q 601 1190 588 1206 q 676 1122 646 1144 q 743 1075 707 1100 z "},"X":{"ha":722,"x_min":-43,"x_max":765,"o":"m 6 0 q -28 10 -15 0 q -42 38 -40 19 q -29 79 -43 56 q 64 211 13 143 q 172 345 115 279 q 283 469 228 411 q 285 475 288 474 q 190 658 229 560 q 124 847 151 756 q 120 889 117 871 q 137 917 124 907 q 172 926 150 926 q 223 913 201 926 q 258 844 244 899 q 288 745 272 793 q 325 650 303 697 q 379 551 347 603 q 385 551 382 546 q 471 653 433 603 q 540 754 508 703 q 601 858 572 806 q 650 913 618 886 q 718 940 682 940 q 751 926 739 940 q 764 891 763 913 q 751 847 765 869 q 615 658 692 756 q 457 475 539 560 q 456 469 454 472 q 528 345 493 411 q 592 211 563 279 q 643 79 622 143 q 644 38 651 56 q 620 10 636 19 q 583 0 604 0 q 524 20 551 0 q 489 68 497 40 q 437 226 468 151 q 360 390 406 300 q 354 390 357 396 q 224 224 281 310 q 118 54 167 138 q 70 13 103 26 q 6 0 38 0 z "},"Y":{"ha":740,"x_min":106,"x_max":794,"o":"m 304 0 q 263 8 282 0 q 233 32 243 17 q 229 68 224 47 q 266 215 253 142 q 290 361 279 289 q 291 370 292 367 q 288 379 290 374 q 219 530 253 450 q 159 691 186 610 q 113 847 132 772 q 110 889 106 871 q 128 917 114 907 q 163 926 142 926 q 224 913 199 926 q 254 871 249 899 q 300 666 274 769 q 374 467 326 563 q 379 467 376 461 q 481 594 432 531 q 572 724 531 658 q 640 857 614 789 q 686 918 656 896 q 746 940 717 940 q 782 926 769 940 q 794 892 794 913 q 779 847 794 871 q 672 691 728 772 q 556 530 615 610 q 438 379 497 450 q 433 370 435 374 q 429 361 431 367 q 408 215 418 289 q 396 68 399 142 q 382 32 396 47 q 347 8 368 17 q 304 0 326 0 z "},"Ý":{"ha":740,"x_min":106,"x_max":794,"o":"m 304 0 q 263 8 282 0 q 233 32 243 17 q 229 68 224 47 q 266 215 253 142 q 290 361 279 289 q 291 370 292 367 q 288 379 290 374 q 219 530 253 450 q 159 691 186 610 q 113 847 132 772 q 110 889 106 871 q 128 917 114 907 q 163 926 142 926 q 224 913 199 926 q 254 871 249 899 q 300 666 274 769 q 374 467 326 563 q 379 467 376 461 q 481 594 432 531 q 572 724 531 658 q 640 857 614 789 q 686 918 656 896 q 746 940 717 940 q 782 926 769 940 q 794 892 794 913 q 779 847 794 871 q 672 691 728 772 q 556 530 615 610 q 438 379 497 450 q 433 370 435 374 q 429 361 431 367 q 408 215 418 289 q 396 68 399 142 q 382 32 396 47 q 347 8 368 17 q 304 0 326 0 m 386 999 q 353 992 368 988 q 331 1014 339 996 l 331 1017 q 328 1048 322 1033 q 353 1074 333 1063 q 442 1128 397 1100 q 533 1192 486 1156 q 571 1201 550 1206 q 601 1178 592 1197 l 606 1169 q 608 1136 613 1157 q 591 1098 603 1115 q 565 1076 579 1081 q 466 1043 510 1064 q 386 999 422 1022 z "},"Ŷ":{"ha":740,"x_min":106,"x_max":794,"o":"m 304 0 q 263 8 282 0 q 233 32 243 17 q 229 68 224 47 q 266 215 253 142 q 290 361 279 289 q 291 370 292 367 q 288 379 290 374 q 219 530 253 450 q 159 691 186 610 q 113 847 132 772 q 110 889 106 871 q 128 917 114 907 q 163 926 142 926 q 224 913 199 926 q 254 871 249 899 q 300 666 274 769 q 374 467 326 563 q 379 467 376 461 q 481 594 432 531 q 572 724 531 658 q 640 857 614 789 q 686 918 656 896 q 746 940 717 940 q 782 926 769 940 q 794 892 794 913 q 779 847 794 871 q 672 691 728 772 q 556 530 615 610 q 438 379 497 450 q 433 370 435 374 q 429 361 431 367 q 408 215 418 289 q 396 68 399 142 q 382 32 396 47 q 347 8 368 17 q 304 0 326 0 m 682 1050 q 687 1020 696 1042 q 665 983 678 999 l 664 982 q 644 967 657 972 q 618 964 631 963 q 597 971 606 965 q 541 1012 567 992 q 488 1053 515 1032 q 435 1053 463 1071 q 369 1012 400 1032 q 300 971 338 992 q 262 965 283 961 q 233 982 240 968 l 233 983 q 224 1013 228 999 q 238 1036 221 1028 q 310 1074 269 1051 q 388 1121 350 1096 q 453 1168 426 1146 q 481 1179 468 1179 q 506 1168 494 1179 q 593 1104 546 1135 q 682 1050 640 1074 z "},"Ÿ":{"ha":740,"x_min":106,"x_max":794,"o":"m 304 0 q 263 8 282 0 q 233 32 243 17 q 229 68 224 47 q 266 215 253 142 q 290 361 279 289 q 291 370 292 367 q 288 379 290 374 q 219 530 253 450 q 159 691 186 610 q 113 847 132 772 q 110 889 106 871 q 128 917 114 907 q 163 926 142 926 q 224 913 199 926 q 254 871 249 899 q 300 666 274 769 q 374 467 326 563 q 379 467 376 461 q 481 594 432 531 q 572 724 531 658 q 640 857 614 789 q 686 918 656 896 q 746 940 717 940 q 782 926 769 940 q 794 892 794 913 q 779 847 794 871 q 672 691 728 772 q 556 530 615 610 q 438 379 497 450 q 433 370 435 374 q 429 361 431 367 q 408 215 418 289 q 396 68 399 142 q 382 32 396 47 q 347 8 368 17 q 304 0 326 0 m 329 1000 q 270 1025 292 1000 q 254 1088 249 1050 q 289 1149 260 1124 q 356 1174 318 1174 q 413 1149 392 1174 q 428 1088 433 1124 q 394 1025 422 1050 q 329 1000 365 1000 m 581 1014 q 522 1039 543 1014 q 507 1101 501 1064 q 542 1163 514 1138 q 607 1188 569 1188 q 665 1163 643 1188 q 681 1101 688 1138 q 646 1039 675 1064 q 581 1014 617 1014 z "},"Ỳ":{"ha":740,"x_min":106,"x_max":794,"o":"m 304 0 q 263 8 282 0 q 233 32 243 17 q 229 68 224 47 q 266 215 253 142 q 290 361 279 289 q 291 370 292 367 q 288 379 290 374 q 219 530 253 450 q 159 691 186 610 q 113 847 132 772 q 110 889 106 871 q 128 917 114 907 q 163 926 142 926 q 224 913 199 926 q 254 871 249 899 q 300 666 274 769 q 374 467 326 563 q 379 467 376 461 q 481 594 432 531 q 572 724 531 658 q 640 857 614 789 q 686 918 656 896 q 746 940 717 940 q 782 926 769 940 q 794 892 794 913 q 779 847 794 871 q 672 691 728 772 q 556 530 615 610 q 438 379 497 450 q 433 370 435 374 q 429 361 431 367 q 408 215 418 289 q 396 68 399 142 q 382 32 396 47 q 347 8 368 17 q 304 0 326 0 m 572 1075 q 594 1041 588 1064 q 588 1000 601 1018 l 586 997 q 550 981 572 979 q 513 994 528 983 q 437 1040 474 1018 q 363 1075 400 1061 q 344 1093 349 1081 q 344 1122 340 1106 q 357 1150 349 1138 l 365 1161 q 398 1193 379 1181 q 431 1190 417 1206 q 506 1122 475 1144 q 572 1075 536 1100 z "},"Ỹ":{"ha":740,"x_min":106,"x_max":794,"o":"m 304 0 q 263 8 282 0 q 233 32 243 17 q 229 68 224 47 q 266 215 253 142 q 290 361 279 289 q 291 370 292 367 q 288 379 290 374 q 219 530 253 450 q 159 691 186 610 q 113 847 132 772 q 110 889 106 871 q 128 917 114 907 q 163 926 142 926 q 224 913 199 926 q 254 871 249 899 q 300 666 274 769 q 374 467 326 563 q 379 467 376 461 q 481 594 432 531 q 572 724 531 658 q 640 857 614 789 q 686 918 656 896 q 746 940 717 940 q 782 926 769 940 q 794 892 794 913 q 779 847 794 871 q 672 691 728 772 q 556 530 615 610 q 438 379 497 450 q 433 370 435 374 q 429 361 431 367 q 408 215 418 289 q 396 68 399 142 q 382 32 396 47 q 347 8 368 17 q 304 0 326 0 m 238 1043 q 231 1067 229 1054 q 246 1090 233 1079 q 285 1120 263 1104 q 334 1148 308 1136 q 385 1160 360 1160 q 437 1146 418 1160 q 469 1115 456 1132 q 501 1083 482 1097 q 556 1069 521 1069 q 599 1087 575 1069 q 638 1114 622 1104 q 670 1124 653 1124 q 697 1113 688 1124 l 704 1107 q 711 1085 711 1100 q 707 1055 711 1069 q 693 1032 703 1040 q 622 992 667 1010 q 540 975 576 975 q 486 989 506 975 q 453 1020 467 1003 q 422 1051 440 1038 q 369 1065 404 1065 q 329 1055 351 1065 q 289 1033 307 1044 q 263 1024 275 1024 q 242 1036 251 1025 l 238 1043 z "},"Z":{"ha":692,"x_min":-46,"x_max":750,"o":"m 124 869 q 135 906 126 889 q 158 933 144 922 q 189 940 172 943 q 451 928 318 926 q 714 926 583 929 q 740 917 732 926 q 749 895 749 908 q 745 868 750 882 q 731 843 740 854 l 150 142 q 146 131 144 136 q 157 125 147 125 q 356 127 260 125 q 556 139 451 129 q 592 133 574 140 q 619 106 610 125 q 624 54 629 88 q 610 21 622 38 q 581 -6 597 4 q 546 -14 564 -15 q 282 -1 411 -3 q 17 0 153 0 q -28 15 -10 0 q -40 64 -46 31 q -26 109 -36 89 q 0 150 -17 129 l 540 799 q 546 810 547 806 q 535 815 544 815 q 360 813 446 815 q 181 801 275 811 q 149 810 163 800 q 128 836 135 819 q 124 869 121 853 z "},"Ź":{"ha":692,"x_min":-46,"x_max":750,"o":"m 124 869 q 135 906 126 889 q 158 933 144 922 q 189 940 172 943 q 451 928 318 926 q 714 926 583 929 q 740 917 732 926 q 749 895 749 908 q 745 868 750 882 q 731 843 740 854 l 150 142 q 146 131 144 136 q 157 125 147 125 q 356 127 260 125 q 556 139 451 129 q 592 133 574 140 q 619 106 610 125 q 624 54 629 88 q 610 21 622 38 q 581 -6 597 4 q 546 -14 564 -15 q 282 -1 411 -3 q 17 0 153 0 q -28 15 -10 0 q -40 64 -46 31 q -26 109 -36 89 q 0 150 -17 129 l 540 799 q 546 810 547 806 q 535 815 544 815 q 360 813 446 815 q 181 801 275 811 q 149 810 163 800 q 128 836 135 819 q 124 869 121 853 m 374 999 q 341 992 356 988 q 318 1014 326 996 l 318 1017 q 315 1048 310 1033 q 340 1074 321 1063 q 429 1128 385 1100 q 521 1192 474 1156 q 558 1201 538 1206 q 589 1178 579 1197 l 593 1169 q 595 1136 600 1157 q 578 1098 590 1115 q 553 1076 567 1081 q 453 1043 497 1064 q 374 999 410 1022 z "},"Ž":{"ha":692,"x_min":-46,"x_max":750,"o":"m 124 869 q 135 906 126 889 q 158 933 144 922 q 189 940 172 943 q 451 928 318 926 q 714 926 583 929 q 740 917 732 926 q 749 895 749 908 q 745 868 750 882 q 731 843 740 854 l 150 142 q 146 131 144 136 q 157 125 147 125 q 356 127 260 125 q 556 139 451 129 q 592 133 574 140 q 619 106 610 125 q 624 54 629 88 q 610 21 622 38 q 581 -6 597 4 q 546 -14 564 -15 q 282 -1 411 -3 q 17 0 153 0 q -28 15 -10 0 q -40 64 -46 31 q -26 109 -36 89 q 0 150 -17 129 l 540 799 q 546 810 547 806 q 535 815 544 815 q 360 813 446 815 q 181 801 275 811 q 149 810 163 800 q 128 836 135 819 q 124 869 121 853 m 685 1176 q 690 1153 690 1167 q 683 1128 689 1140 q 664 1110 676 1117 q 560 1051 604 1076 q 465 992 515 1025 q 437 982 450 982 q 413 992 424 982 q 334 1063 374 1025 q 254 1124 294 1101 q 241 1147 239 1132 q 254 1176 243 1163 l 254 1178 q 280 1196 265 1193 q 307 1189 294 1199 q 377 1142 343 1165 q 446 1096 411 1119 q 456 1093 451 1093 q 465 1096 460 1093 q 542 1150 506 1121 q 622 1203 579 1179 q 658 1203 638 1213 q 685 1178 678 1193 l 685 1176 z "},"Ż":{"ha":692,"x_min":-46,"x_max":750,"o":"m 124 869 q 135 906 126 889 q 158 933 144 922 q 189 940 172 943 q 451 928 318 926 q 714 926 583 929 q 740 917 732 926 q 749 895 749 908 q 745 868 750 882 q 731 843 740 854 l 150 142 q 146 131 144 136 q 157 125 147 125 q 356 127 260 125 q 556 139 451 129 q 592 133 574 140 q 619 106 610 125 q 624 54 629 88 q 610 21 622 38 q 581 -6 597 4 q 546 -14 564 -15 q 282 -1 411 -3 q 17 0 153 0 q -28 15 -10 0 q -40 64 -46 31 q -26 109 -36 89 q 0 150 -17 129 l 540 799 q 546 810 547 806 q 535 815 544 815 q 360 813 446 815 q 181 801 275 811 q 149 810 163 800 q 128 836 135 819 q 124 869 121 853 m 372 1090 q 407 1150 378 1126 q 469 1174 436 1174 q 525 1150 506 1174 q 539 1090 544 1126 q 506 1032 533 1057 q 442 1007 478 1007 q 388 1032 408 1007 q 372 1090 367 1057 z "},"Ꞌ":{"ha":261,"x_min":138,"x_max":288,"o":"m 163 946 q 175 968 164 960 q 201 981 186 976 q 228 986 215 986 l 231 986 q 257 981 243 986 q 279 968 271 976 q 285 946 288 960 l 239 721 q 219 701 235 707 q 186 694 204 694 l 183 694 q 154 701 171 694 q 139 721 138 707 l 163 946 z "},"a":{"ha":715,"x_min":39,"x_max":672,"o":"m 221 -14 q 74 72 110 -14 q 64 313 39 157 l 69 347 q 101 464 78 401 q 165 582 125 526 q 267 673 206 638 q 411 708 328 708 q 525 699 478 708 q 611 674 572 689 q 654 644 636 664 q 665 596 672 625 q 634 451 649 528 q 608 300 619 375 q 588 160 596 225 q 576 47 579 94 q 553 13 575 25 q 508 0 532 0 q 474 11 483 0 q 461 44 464 22 q 457 68 461 60 q 443 76 453 76 q 417 63 435 76 q 370 31 399 49 q 304 0 342 14 q 221 -14 267 -14 m 274 104 q 354 128 314 104 q 424 191 394 151 q 461 278 454 231 q 479 378 469 328 q 500 478 489 428 q 521 578 511 528 q 514 593 528 590 q 465 600 497 596 q 394 604 432 604 q 314 579 347 604 q 260 514 281 554 q 227 429 239 474 q 208 347 215 385 l 203 313 q 201 156 186 207 q 274 104 215 104 z "},"á":{"ha":715,"x_min":39,"x_max":672,"o":"m 221 -14 q 74 72 110 -14 q 64 313 39 157 l 69 347 q 101 464 78 401 q 165 582 125 526 q 267 673 206 638 q 411 708 328 708 q 525 699 478 708 q 611 674 572 689 q 654 644 636 664 q 665 596 672 625 q 634 451 649 528 q 608 300 619 375 q 588 160 596 225 q 576 47 579 94 q 553 13 575 25 q 508 0 532 0 q 474 11 483 0 q 461 44 464 22 q 457 68 461 60 q 443 76 453 76 q 417 63 435 76 q 370 31 399 49 q 304 0 342 14 q 221 -14 267 -14 m 274 104 q 354 128 314 104 q 424 191 394 151 q 461 278 454 231 q 479 378 469 328 q 500 478 489 428 q 521 578 511 528 q 514 593 528 590 q 465 600 497 596 q 394 604 432 604 q 314 579 347 604 q 260 514 281 554 q 227 429 239 474 q 208 347 215 385 l 203 313 q 201 156 186 207 q 274 104 215 104 m 368 825 q 335 818 350 814 q 313 840 321 822 l 313 843 q 310 874 304 860 q 335 900 315 889 q 424 954 379 926 q 515 1018 468 982 q 553 1028 532 1032 q 583 1004 574 1024 l 588 996 q 590 963 594 983 q 573 924 585 942 q 547 903 561 907 q 448 869 492 890 q 368 825 404 849 z "},"ă":{"ha":715,"x_min":39,"x_max":694,"o":"m 221 -14 q 74 72 110 -14 q 64 313 39 157 l 69 347 q 101 464 78 401 q 165 582 125 526 q 267 673 206 638 q 411 708 328 708 q 525 699 478 708 q 611 674 572 689 q 654 644 636 664 q 665 596 672 625 q 634 451 649 528 q 608 300 619 375 q 588 160 596 225 q 576 47 579 94 q 553 13 575 25 q 508 0 532 0 q 474 11 483 0 q 461 44 464 22 q 457 68 461 60 q 443 76 453 76 q 417 63 435 76 q 370 31 399 49 q 304 0 342 14 q 221 -14 267 -14 m 274 104 q 354 128 314 104 q 424 191 394 151 q 461 278 454 231 q 479 378 469 328 q 500 478 489 428 q 521 578 511 528 q 514 593 528 590 q 465 600 497 596 q 394 604 432 604 q 314 579 347 604 q 260 514 281 554 q 227 429 239 474 q 208 347 215 385 l 203 313 q 201 156 186 207 q 274 104 215 104 m 283 1028 q 313 1017 303 1028 q 324 988 322 1007 q 361 919 331 946 q 438 893 392 893 q 500 905 468 893 q 555 938 532 917 q 583 988 578 960 q 603 1024 588 1007 q 639 1042 619 1042 l 640 1042 q 678 1023 663 1042 q 688 981 694 1004 q 635 888 675 931 q 540 821 596 846 q 422 796 483 796 q 326 821 368 796 q 258 888 283 846 q 231 981 233 931 q 245 1016 231 1004 q 282 1028 260 1028 l 283 1028 z "},"ǎ":{"ha":715,"x_min":39,"x_max":685,"o":"m 221 -14 q 74 72 110 -14 q 64 313 39 157 l 69 347 q 101 464 78 401 q 165 582 125 526 q 267 673 206 638 q 411 708 328 708 q 525 699 478 708 q 611 674 572 689 q 654 644 636 664 q 665 596 672 625 q 634 451 649 528 q 608 300 619 375 q 588 160 596 225 q 576 47 579 94 q 553 13 575 25 q 508 0 532 0 q 474 11 483 0 q 461 44 464 22 q 457 68 461 60 q 443 76 453 76 q 417 63 435 76 q 370 31 399 49 q 304 0 342 14 q 221 -14 267 -14 m 274 104 q 354 128 314 104 q 424 191 394 151 q 461 278 454 231 q 479 378 469 328 q 500 478 489 428 q 521 578 511 528 q 514 593 528 590 q 465 600 497 596 q 394 604 432 604 q 314 579 347 604 q 260 514 281 554 q 227 429 239 474 q 208 347 215 385 l 203 313 q 201 156 186 207 q 274 104 215 104 m 679 1003 q 684 980 685 993 q 677 955 683 967 q 658 936 671 943 q 554 877 599 903 q 460 818 510 851 q 431 808 444 808 q 407 818 418 808 q 328 890 368 851 q 249 950 289 928 q 235 974 233 958 q 249 1003 238 989 l 249 1004 q 274 1022 260 1019 q 301 1015 289 1025 q 372 969 338 992 q 440 922 406 946 q 450 919 446 919 q 460 922 454 919 q 537 976 500 947 q 617 1029 574 1006 q 652 1029 632 1039 q 679 1004 672 1019 l 679 1003 z "},"â":{"ha":715,"x_min":39,"x_max":678,"o":"m 221 -14 q 74 72 110 -14 q 64 313 39 157 l 69 347 q 101 464 78 401 q 165 582 125 526 q 267 673 206 638 q 411 708 328 708 q 525 699 478 708 q 611 674 572 689 q 654 644 636 664 q 665 596 672 625 q 634 451 649 528 q 608 300 619 375 q 588 160 596 225 q 576 47 579 94 q 553 13 575 25 q 508 0 532 0 q 474 11 483 0 q 461 44 464 22 q 457 68 461 60 q 443 76 453 76 q 417 63 435 76 q 370 31 399 49 q 304 0 342 14 q 221 -14 267 -14 m 274 104 q 354 128 314 104 q 424 191 394 151 q 461 278 454 231 q 479 378 469 328 q 500 478 489 428 q 521 578 511 528 q 514 593 528 590 q 465 600 497 596 q 394 604 432 604 q 314 579 347 604 q 260 514 281 554 q 227 429 239 474 q 208 347 215 385 l 203 313 q 201 156 186 207 q 274 104 215 104 m 664 876 q 669 847 678 868 q 647 810 660 825 l 646 808 q 626 794 639 799 q 600 790 613 789 q 579 797 588 792 q 523 838 549 818 q 469 879 497 858 q 417 879 444 897 q 351 838 382 858 q 282 797 319 818 q 244 791 265 788 q 215 808 222 794 l 215 810 q 206 840 210 825 q 219 863 203 854 q 292 900 251 878 q 370 947 332 922 q 435 994 408 972 q 463 1006 450 1006 q 488 994 476 1006 q 575 931 528 961 q 664 876 622 900 z "},"ä":{"ha":715,"x_min":39,"x_max":672,"o":"m 221 -14 q 74 72 110 -14 q 64 313 39 157 l 69 347 q 101 464 78 401 q 165 582 125 526 q 267 673 206 638 q 411 708 328 708 q 525 699 478 708 q 611 674 572 689 q 654 644 636 664 q 665 596 672 625 q 634 451 649 528 q 608 300 619 375 q 588 160 596 225 q 576 47 579 94 q 553 13 575 25 q 508 0 532 0 q 474 11 483 0 q 461 44 464 22 q 457 68 461 60 q 443 76 453 76 q 417 63 435 76 q 370 31 399 49 q 304 0 342 14 q 221 -14 267 -14 m 274 104 q 354 128 314 104 q 424 191 394 151 q 461 278 454 231 q 479 378 469 328 q 500 478 489 428 q 521 578 511 528 q 514 593 528 590 q 465 600 497 596 q 394 604 432 604 q 314 579 347 604 q 260 514 281 554 q 227 429 239 474 q 208 347 215 385 l 203 313 q 201 156 186 207 q 274 104 215 104 m 311 826 q 252 851 274 826 q 236 914 231 876 q 271 975 242 950 q 338 1000 300 1000 q 394 975 374 1000 q 410 914 415 950 q 376 851 404 876 q 311 826 347 826 m 563 840 q 504 865 525 840 q 489 928 483 890 q 524 989 496 964 q 589 1014 551 1014 q 647 989 625 1014 q 663 928 669 964 q 628 865 657 890 q 563 840 599 840 z "},"à":{"ha":715,"x_min":39,"x_max":672,"o":"m 221 -14 q 74 72 110 -14 q 64 313 39 157 l 69 347 q 101 464 78 401 q 165 582 125 526 q 267 673 206 638 q 411 708 328 708 q 525 699 478 708 q 611 674 572 689 q 654 644 636 664 q 665 596 672 625 q 634 451 649 528 q 608 300 619 375 q 588 160 596 225 q 576 47 579 94 q 553 13 575 25 q 508 0 532 0 q 474 11 483 0 q 461 44 464 22 q 457 68 461 60 q 443 76 453 76 q 417 63 435 76 q 370 31 399 49 q 304 0 342 14 q 221 -14 267 -14 m 274 104 q 354 128 314 104 q 424 191 394 151 q 461 278 454 231 q 479 378 469 328 q 500 478 489 428 q 521 578 511 528 q 514 593 528 590 q 465 600 497 596 q 394 604 432 604 q 314 579 347 604 q 260 514 281 554 q 227 429 239 474 q 208 347 215 385 l 203 313 q 201 156 186 207 q 274 104 215 104 m 554 901 q 576 867 569 890 q 569 826 583 844 l 568 824 q 532 808 554 806 q 494 821 510 810 q 419 866 456 844 q 344 901 382 888 q 326 919 331 907 q 326 948 322 932 q 339 976 331 964 l 347 988 q 380 1019 361 1007 q 413 1017 399 1032 q 488 949 457 971 q 554 901 518 926 z "},"ā":{"ha":715,"x_min":39,"x_max":746,"o":"m 221 -14 q 74 72 110 -14 q 64 313 39 157 l 69 347 q 101 464 78 401 q 165 582 125 526 q 267 673 206 638 q 411 708 328 708 q 525 699 478 708 q 611 674 572 689 q 654 644 636 664 q 665 596 672 625 q 634 451 649 528 q 608 300 619 375 q 588 160 596 225 q 576 47 579 94 q 553 13 575 25 q 508 0 532 0 q 474 11 483 0 q 461 44 464 22 q 457 68 461 60 q 443 76 453 76 q 417 63 435 76 q 370 31 399 49 q 304 0 342 14 q 221 -14 267 -14 m 274 104 q 354 128 314 104 q 424 191 394 151 q 461 278 454 231 q 479 378 469 328 q 500 478 489 428 q 521 578 511 528 q 514 593 528 590 q 465 600 497 596 q 394 604 432 604 q 314 579 347 604 q 260 514 281 554 q 227 429 239 474 q 208 347 215 385 l 203 313 q 201 156 186 207 q 274 104 215 104 m 743 926 q 731 899 742 913 q 704 876 719 885 q 675 868 689 867 q 208 868 446 889 q 179 886 188 867 q 174 926 171 906 l 174 928 q 190 960 176 949 q 225 972 204 972 q 459 974 342 972 q 694 986 576 976 q 720 978 708 988 q 739 956 732 969 q 743 928 746 942 l 743 926 z "},"ą":{"ha":715,"x_min":39,"x_max":672,"o":"m 221 -14 q 74 72 110 -14 q 64 313 39 157 l 69 347 q 101 464 78 401 q 165 582 125 526 q 267 673 206 638 q 411 708 328 708 q 525 699 478 708 q 611 674 572 689 q 654 644 636 664 q 665 596 672 625 q 634 451 649 528 q 608 300 619 375 q 588 160 596 225 q 576 47 579 94 q 553 13 575 25 q 508 0 532 0 q 474 11 483 0 q 461 44 464 22 q 457 68 461 60 q 443 76 453 76 q 417 63 435 76 q 370 31 399 49 q 304 0 342 14 q 221 -14 267 -14 m 274 104 q 354 128 314 104 q 424 191 394 151 q 461 278 454 231 q 479 378 469 328 q 500 478 489 428 q 521 578 511 528 q 514 593 528 590 q 465 600 497 596 q 394 604 432 604 q 314 579 347 604 q 260 514 281 554 q 227 429 239 474 q 208 347 215 385 l 203 313 q 201 156 186 207 q 274 104 215 104 m 485 -208 q 413 -191 442 -208 q 374 -144 383 -174 q 376 -76 364 -114 q 403 -28 386 -51 q 450 13 421 -6 q 521 44 479 32 l 553 14 q 533 6 553 14 q 493 -21 514 -1 q 467 -76 472 -40 q 476 -108 464 -99 q 507 -120 489 -118 q 539 -122 525 -122 q 560 -127 550 -122 q 567 -147 569 -132 q 535 -195 561 -182 q 485 -208 508 -208 z "},"å":{"ha":715,"x_min":39,"x_max":672,"o":"m 221 -14 q 74 72 110 -14 q 64 313 39 157 l 69 347 q 101 464 78 401 q 165 582 125 526 q 267 673 206 638 q 411 708 328 708 q 525 699 478 708 q 611 674 572 689 q 654 644 636 664 q 665 596 672 625 q 634 451 649 528 q 608 300 619 375 q 588 160 596 225 q 576 47 579 94 q 553 13 575 25 q 508 0 532 0 q 474 11 483 0 q 461 44 464 22 q 457 68 461 60 q 443 76 453 76 q 417 63 435 76 q 370 31 399 49 q 304 0 342 14 q 221 -14 267 -14 m 274 104 q 354 128 314 104 q 424 191 394 151 q 461 278 454 231 q 479 378 469 328 q 500 478 489 428 q 521 578 511 528 q 514 593 528 590 q 465 600 497 596 q 394 604 432 604 q 314 579 347 604 q 260 514 281 554 q 227 429 239 474 q 208 347 215 385 l 203 313 q 201 156 186 207 q 274 104 215 104 m 340 882 q 362 935 344 911 q 406 972 379 958 q 460 986 432 986 q 510 972 489 986 q 542 935 532 958 q 549 882 553 911 q 528 828 544 854 q 488 787 513 803 q 426 771 463 771 q 377 787 399 771 q 346 828 356 803 q 340 882 336 854 m 396 882 q 404 848 392 863 q 436 833 417 833 q 472 848 456 833 q 493 882 489 863 q 483 916 496 901 q 451 931 471 931 q 415 916 432 931 q 396 882 399 901 z "},"ã":{"ha":715,"x_min":39,"x_max":693,"o":"m 221 -14 q 74 72 110 -14 q 64 313 39 157 l 69 347 q 101 464 78 401 q 165 582 125 526 q 267 673 206 638 q 411 708 328 708 q 525 699 478 708 q 611 674 572 689 q 654 644 636 664 q 665 596 672 625 q 634 451 649 528 q 608 300 619 375 q 588 160 596 225 q 576 47 579 94 q 553 13 575 25 q 508 0 532 0 q 474 11 483 0 q 461 44 464 22 q 457 68 461 60 q 443 76 453 76 q 417 63 435 76 q 370 31 399 49 q 304 0 342 14 q 221 -14 267 -14 m 274 104 q 354 128 314 104 q 424 191 394 151 q 461 278 454 231 q 479 378 469 328 q 500 478 489 428 q 521 578 511 528 q 514 593 528 590 q 465 600 497 596 q 394 604 432 604 q 314 579 347 604 q 260 514 281 554 q 227 429 239 474 q 208 347 215 385 l 203 313 q 201 156 186 207 q 274 104 215 104 m 219 869 q 213 893 211 881 q 228 917 215 906 q 267 947 244 931 q 316 974 290 963 q 367 986 342 986 q 419 972 400 986 q 451 941 438 958 q 483 910 464 924 q 538 896 503 896 q 581 913 557 896 q 619 940 604 931 q 652 950 635 950 q 679 939 669 950 l 686 933 q 693 911 693 926 q 689 881 693 896 q 675 858 685 867 q 603 819 649 836 q 522 801 558 801 q 468 815 488 801 q 435 847 449 829 q 404 878 422 864 q 351 892 386 892 q 311 881 333 892 q 271 860 289 871 q 245 851 257 850 q 224 863 233 851 l 219 869 z "},"æ":{"ha":1047,"x_min":39,"x_max":1004,"o":"m 672 -14 q 560 6 606 -14 q 488 59 515 25 q 447 135 460 93 q 433 223 435 176 q 439 313 432 269 l 444 347 q 476 464 453 401 q 540 582 500 526 q 642 673 581 638 q 786 708 703 708 q 907 685 863 708 q 973 626 951 661 q 999 553 994 590 q 1000 489 1004 517 q 958 400 990 435 q 877 346 925 365 q 775 317 829 326 q 669 305 721 307 q 576 303 617 303 q 565 299 569 303 q 560 289 561 296 q 574 145 549 200 q 689 90 599 90 q 771 111 733 90 q 831 139 808 132 q 862 137 847 144 q 887 115 876 129 q 897 85 897 100 q 889 41 900 53 q 871 26 878 29 q 792 1 846 17 q 672 -14 738 -14 m 593 400 q 796 422 738 401 q 860 486 854 442 q 847 574 865 536 q 771 611 828 611 q 638 554 682 611 q 579 414 594 497 q 583 404 579 408 q 593 400 586 400 m 186 -14 q 97 3 129 -14 q 52 51 65 19 q 40 124 39 82 q 49 215 40 165 q 98 324 60 282 q 193 389 136 365 q 319 422 250 413 q 458 431 388 431 q 470 535 469 497 q 450 588 471 572 q 374 604 429 604 q 308 591 339 604 q 256 571 278 578 q 217 575 232 563 q 200 611 203 588 q 201 613 201 613 q 200 615 200 614 q 206 653 196 638 q 240 678 217 669 q 315 699 269 689 q 411 708 360 708 q 509 692 474 708 q 560 645 544 675 q 576 574 575 615 q 570 485 578 533 q 554 382 563 436 l 549 346 q 492 178 532 247 q 400 67 453 110 q 291 6 347 25 q 186 -14 235 -14 m 244 90 q 325 117 285 90 q 396 188 365 144 q 433 278 426 231 l 444 347 q 363 342 407 347 q 278 324 319 338 q 209 285 238 311 q 174 215 181 258 q 178 124 164 157 q 244 90 193 90 z "},"b":{"ha":714,"x_min":36,"x_max":675,"o":"m 301 -14 q 195 -10 238 -14 q 113 -3 153 -6 q 59 17 82 0 q 44 67 36 35 q 99 350 74 207 q 149 636 125 493 q 194 918 172 779 q 221 968 200 950 q 276 986 242 986 q 317 978 299 986 q 344 955 335 969 q 347 918 353 940 q 320 807 333 867 q 297 694 307 747 q 292 651 292 663 q 303 640 293 640 q 331 658 310 640 q 393 692 353 675 q 494 708 433 708 q 640 624 606 708 q 650 382 675 539 l 644 347 q 621 254 638 304 q 577 157 604 204 q 511 71 550 110 q 420 9 472 32 q 301 -14 368 -14 m 322 111 q 403 133 371 111 q 456 191 435 156 q 488 268 476 226 q 506 347 500 310 l 511 382 q 515 546 529 488 q 443 604 501 604 q 363 577 404 604 q 291 507 321 550 q 253 417 261 464 l 208 138 q 209 128 207 132 q 214 122 211 124 q 262 114 233 117 q 322 111 290 111 z "},"c":{"ha":564,"x_min":56,"x_max":575,"o":"m 297 -14 q 163 16 214 -14 q 88 94 113 46 q 60 201 64 143 q 64 313 56 258 l 69 347 q 101 464 78 401 q 165 582 125 526 q 267 673 206 638 q 411 708 328 708 q 492 701 456 708 q 553 681 528 694 q 572 662 568 674 q 569 638 575 650 q 549 613 563 625 l 529 597 q 496 583 511 583 q 461 592 481 583 q 394 604 435 604 q 315 578 347 604 q 260 511 282 551 q 226 427 238 471 q 208 347 214 383 l 203 313 q 197 239 197 278 q 206 166 196 200 q 241 111 215 132 q 314 90 267 90 q 381 110 350 90 q 433 138 411 131 q 465 135 450 143 q 489 114 479 128 q 501 83 499 100 q 491 41 504 56 q 467 22 478 26 q 393 -1 440 11 q 297 -14 346 -14 z "},"ć":{"ha":564,"x_min":56,"x_max":590,"o":"m 297 -14 q 163 16 214 -14 q 88 94 113 46 q 60 201 64 143 q 64 313 56 258 l 69 347 q 101 464 78 401 q 165 582 125 526 q 267 673 206 638 q 411 708 328 708 q 492 701 456 708 q 553 681 528 694 q 572 662 568 674 q 569 638 575 650 q 549 613 563 625 l 529 597 q 496 583 511 583 q 461 592 481 583 q 394 604 435 604 q 315 578 347 604 q 260 511 282 551 q 226 427 238 471 q 208 347 214 383 l 203 313 q 197 239 197 278 q 206 166 196 200 q 241 111 215 132 q 314 90 267 90 q 381 110 350 90 q 433 138 411 131 q 465 135 450 143 q 489 114 479 128 q 501 83 499 100 q 491 41 504 56 q 467 22 478 26 q 393 -1 440 11 q 297 -14 346 -14 m 364 825 q 331 818 346 814 q 308 840 317 822 l 308 843 q 306 874 300 860 q 331 900 311 889 q 419 954 375 926 q 511 1018 464 982 q 549 1028 528 1032 q 579 1004 569 1024 l 583 996 q 585 963 590 983 q 569 924 581 942 q 543 903 557 907 q 444 869 488 890 q 364 825 400 849 z "},"č":{"ha":564,"x_min":56,"x_max":681,"o":"m 297 -14 q 163 16 214 -14 q 88 94 113 46 q 60 201 64 143 q 64 313 56 258 l 69 347 q 101 464 78 401 q 165 582 125 526 q 267 673 206 638 q 411 708 328 708 q 492 701 456 708 q 553 681 528 694 q 572 662 568 674 q 569 638 575 650 q 549 613 563 625 l 529 597 q 496 583 511 583 q 461 592 481 583 q 394 604 435 604 q 315 578 347 604 q 260 511 282 551 q 226 427 238 471 q 208 347 214 383 l 203 313 q 197 239 197 278 q 206 166 196 200 q 241 111 215 132 q 314 90 267 90 q 381 110 350 90 q 433 138 411 131 q 465 135 450 143 q 489 114 479 128 q 501 83 499 100 q 491 41 504 56 q 467 22 478 26 q 393 -1 440 11 q 297 -14 346 -14 m 675 1003 q 680 980 681 993 q 673 955 679 967 q 654 936 667 943 q 550 877 594 903 q 456 818 506 851 q 427 808 440 808 q 403 818 414 808 q 324 890 364 851 q 244 950 285 928 q 231 974 229 958 q 244 1003 233 989 l 244 1004 q 270 1022 256 1019 q 297 1015 285 1025 q 367 969 333 992 q 436 922 401 946 q 446 919 442 919 q 456 922 450 919 q 533 976 496 947 q 613 1029 569 1006 q 648 1029 628 1039 q 675 1004 668 1019 l 675 1003 z "},"ç":{"ha":564,"x_min":56,"x_max":575,"o":"m 297 -14 q 163 16 214 -14 q 88 94 113 46 q 60 201 64 143 q 64 313 56 258 l 69 347 q 101 464 78 401 q 165 582 125 526 q 267 673 206 638 q 411 708 328 708 q 492 701 456 708 q 553 681 528 694 q 572 662 568 674 q 569 638 575 650 q 549 613 563 625 l 529 597 q 496 583 511 583 q 461 592 481 583 q 394 604 435 604 q 315 578 347 604 q 260 511 282 551 q 226 427 238 471 q 208 347 214 383 l 203 313 q 197 239 197 278 q 206 166 196 200 q 241 111 215 132 q 314 90 267 90 q 381 110 350 90 q 433 138 411 131 q 465 135 450 143 q 489 114 479 128 q 501 83 499 100 q 491 41 504 56 q 467 22 478 26 q 393 -1 440 11 q 297 -14 346 -14 m 265 -229 q 242 -226 254 -229 q 218 -219 229 -224 q 205 -194 206 -212 q 213 -162 204 -176 l 213 -161 q 231 -143 221 -146 q 253 -144 242 -140 q 266 -147 260 -146 q 278 -147 272 -147 q 315 -125 311 -147 q 306 -111 318 -111 q 279 -111 293 -111 q 257 -106 268 -111 q 240 -90 246 -100 q 238 -71 235 -81 l 265 7 l 335 7 l 310 -57 q 369 -67 339 -49 q 392 -125 399 -85 q 369 -178 388 -154 q 323 -215 350 -201 q 265 -229 296 -229 z "},"ċ":{"ha":564,"x_min":56,"x_max":575,"o":"m 297 -14 q 163 16 214 -14 q 88 94 113 46 q 60 201 64 143 q 64 313 56 258 l 69 347 q 101 464 78 401 q 165 582 125 526 q 267 673 206 638 q 411 708 328 708 q 492 701 456 708 q 553 681 528 694 q 572 662 568 674 q 569 638 575 650 q 549 613 563 625 l 529 597 q 496 583 511 583 q 461 592 481 583 q 394 604 435 604 q 315 578 347 604 q 260 511 282 551 q 226 427 238 471 q 208 347 214 383 l 203 313 q 197 239 197 278 q 206 166 196 200 q 241 111 215 132 q 314 90 267 90 q 381 110 350 90 q 433 138 411 131 q 465 135 450 143 q 489 114 479 128 q 501 83 499 100 q 491 41 504 56 q 467 22 478 26 q 393 -1 440 11 q 297 -14 346 -14 m 363 917 q 397 976 368 953 q 460 1000 426 1000 q 515 976 496 1000 q 529 917 535 953 q 496 858 524 883 q 432 833 468 833 q 378 858 399 833 q 363 917 357 883 z "},"d":{"ha":731,"x_min":39,"x_max":724,"o":"m 219 -14 q 74 72 108 -14 q 64 313 39 157 l 69 347 q 101 464 78 401 q 166 582 125 526 q 268 673 207 638 q 413 708 329 708 q 474 705 447 708 q 514 699 500 701 q 531 710 528 694 l 564 918 q 590 968 569 950 q 643 986 611 986 q 701 968 678 986 q 717 918 724 950 q 632 504 664 675 q 591 225 600 333 q 593 61 582 117 q 580 16 597 39 q 526 -7 563 -7 q 476 8 488 -7 q 461 44 464 22 q 456 68 460 60 q 442 76 451 76 q 415 63 433 76 q 369 31 397 49 q 303 0 340 14 q 219 -14 265 -14 m 274 104 q 354 128 314 104 q 424 191 394 151 q 461 278 454 231 l 510 578 q 499 593 510 592 q 459 600 486 596 q 396 604 432 604 q 315 579 349 604 q 260 514 282 554 q 226 429 239 474 q 208 347 214 385 l 203 313 q 201 156 186 207 q 274 104 215 104 z "},"ď":{"ha":764,"x_min":39,"x_max":939,"o":"m 219 -14 q 74 72 108 -14 q 64 313 39 157 l 69 347 q 101 464 78 401 q 166 582 125 526 q 268 673 207 638 q 413 708 329 708 q 474 705 447 708 q 514 699 500 701 q 531 710 528 694 l 564 918 q 590 968 569 950 q 643 986 611 986 q 701 968 678 986 q 717 918 724 950 q 632 504 664 675 q 591 225 600 333 q 593 61 582 117 q 580 16 597 39 q 526 -7 563 -7 q 476 8 488 -7 q 461 44 464 22 q 456 68 460 60 q 442 76 451 76 q 415 63 433 76 q 369 31 397 49 q 303 0 340 14 q 219 -14 265 -14 m 274 104 q 354 128 314 104 q 424 191 394 151 q 461 278 454 231 l 510 578 q 499 593 510 592 q 459 600 486 596 q 396 604 432 604 q 315 579 349 604 q 260 514 282 554 q 226 429 239 474 q 208 347 214 385 l 203 313 q 201 156 186 207 q 274 104 215 104 m 814 946 q 826 968 815 960 q 852 981 838 976 q 879 986 867 986 l 882 986 q 908 981 894 986 q 931 968 922 976 q 936 946 939 960 l 890 721 q 871 701 886 707 q 838 694 856 694 l 835 694 q 806 701 822 694 q 790 721 789 707 l 814 946 z "},"đ":{"ha":757,"x_min":39,"x_max":818,"o":"m 814 833 q 799 806 811 819 q 772 783 788 792 q 743 775 757 774 q 276 775 514 796 q 248 793 256 774 q 244 833 240 813 l 244 835 q 263 867 249 856 q 299 879 278 879 q 533 881 415 879 q 768 893 650 883 q 803 876 789 896 q 814 835 818 856 l 814 833 m 219 -14 q 74 72 108 -14 q 64 313 39 157 l 69 347 q 101 464 78 401 q 166 582 125 526 q 268 673 207 638 q 413 708 329 708 q 474 705 447 708 q 514 699 500 701 q 531 710 528 694 l 564 918 q 590 968 569 950 q 643 986 611 986 q 701 968 678 986 q 717 918 724 950 q 632 504 664 675 q 591 225 600 333 q 593 61 582 117 q 580 16 597 39 q 526 -7 563 -7 q 476 8 488 -7 q 461 44 464 22 q 456 68 460 60 q 442 76 451 76 q 415 63 433 76 q 369 31 397 49 q 303 0 340 14 q 219 -14 265 -14 m 274 104 q 354 128 314 104 q 424 191 394 151 q 461 278 454 231 l 510 578 q 499 593 510 592 q 459 600 486 596 q 396 604 432 604 q 315 579 349 604 q 260 514 282 554 q 226 429 239 474 q 208 347 214 385 l 203 313 q 201 156 186 207 q 274 104 215 104 z "},"ð":{"ha":767,"x_min":3,"x_max":724,"o":"m 679 347 q 590 148 649 232 q 448 22 531 64 q 264 -14 365 -21 q 110 28 171 -7 q 26 127 49 64 q 26 278 3 190 q 107 435 50 367 q 244 540 164 504 q 417 569 325 576 q 485 558 449 567 q 550 532 521 550 q 563 531 557 528 q 568 544 568 535 q 513 742 569 668 q 350 832 457 815 q 306 849 318 836 q 300 889 293 863 q 327 927 306 914 q 382 936 349 940 q 599 844 518 921 q 702 640 681 767 q 679 347 724 514 m 515 278 q 538 353 532 321 q 538 408 544 385 q 511 433 535 419 q 455 456 488 446 q 389 465 422 465 q 249 415 308 465 q 165 278 189 364 q 162 183 150 221 q 208 127 174 146 q 296 104 243 108 q 427 147 374 99 q 515 278 481 194 m 594 936 q 611 910 607 924 q 611 885 615 897 q 594 860 607 872 q 541 804 568 832 q 488 749 514 776 q 436 692 461 721 q 388 631 411 663 q 345 617 371 611 q 300 642 319 624 l 299 643 q 282 669 286 656 q 282 694 278 682 q 299 719 286 707 q 406 830 353 774 q 507 947 460 886 q 549 963 522 968 q 593 938 575 957 l 594 936 z "},"e":{"ha":672,"x_min":57,"x_max":629,"o":"m 297 -14 q 185 6 231 -14 q 113 59 140 25 q 72 135 85 93 q 58 223 60 176 q 64 313 57 269 l 69 347 q 101 464 78 401 q 165 582 125 526 q 267 673 206 638 q 411 708 328 708 q 532 685 488 708 q 598 626 576 661 q 624 553 619 590 q 625 489 629 517 q 583 400 615 435 q 502 346 550 365 q 400 317 454 326 q 294 305 346 307 q 201 303 242 303 q 190 299 194 303 q 185 289 186 296 q 185 185 178 229 q 224 115 193 140 q 314 90 254 90 q 396 111 358 90 q 456 139 433 132 q 487 137 472 144 q 512 115 501 129 q 522 85 522 100 q 514 41 525 53 q 496 26 503 29 q 417 1 471 17 q 297 -14 363 -14 m 218 400 q 421 422 363 401 q 485 486 479 442 q 482 548 489 519 q 454 594 475 576 q 396 611 433 611 q 297 585 336 611 q 237 514 258 558 q 204 414 215 469 q 208 404 204 408 q 218 400 211 400 z "},"é":{"ha":672,"x_min":57,"x_max":629,"o":"m 297 -14 q 185 6 231 -14 q 113 59 140 25 q 72 135 85 93 q 58 223 60 176 q 64 313 57 269 l 69 347 q 101 464 78 401 q 165 582 125 526 q 267 673 206 638 q 411 708 328 708 q 532 685 488 708 q 598 626 576 661 q 624 553 619 590 q 625 489 629 517 q 583 400 615 435 q 502 346 550 365 q 400 317 454 326 q 294 305 346 307 q 201 303 242 303 q 190 299 194 303 q 185 289 186 296 q 185 185 178 229 q 224 115 193 140 q 314 90 254 90 q 396 111 358 90 q 456 139 433 132 q 487 137 472 144 q 512 115 501 129 q 522 85 522 100 q 514 41 525 53 q 496 26 503 29 q 417 1 471 17 q 297 -14 363 -14 m 218 400 q 421 422 363 401 q 485 486 479 442 q 482 548 489 519 q 454 594 475 576 q 396 611 433 611 q 297 585 336 611 q 237 514 258 558 q 204 414 215 469 q 208 404 204 408 q 218 400 211 400 m 364 825 q 331 818 346 814 q 308 840 317 822 l 308 843 q 306 874 300 860 q 331 900 311 889 q 419 954 375 926 q 511 1018 464 982 q 549 1028 528 1032 q 579 1004 569 1024 l 583 996 q 585 963 590 983 q 569 924 581 942 q 543 903 557 907 q 444 869 488 890 q 364 825 400 849 z "},"ě":{"ha":672,"x_min":57,"x_max":681,"o":"m 297 -14 q 185 6 231 -14 q 113 59 140 25 q 72 135 85 93 q 58 223 60 176 q 64 313 57 269 l 69 347 q 101 464 78 401 q 165 582 125 526 q 267 673 206 638 q 411 708 328 708 q 532 685 488 708 q 598 626 576 661 q 624 553 619 590 q 625 489 629 517 q 583 400 615 435 q 502 346 550 365 q 400 317 454 326 q 294 305 346 307 q 201 303 242 303 q 190 299 194 303 q 185 289 186 296 q 185 185 178 229 q 224 115 193 140 q 314 90 254 90 q 396 111 358 90 q 456 139 433 132 q 487 137 472 144 q 512 115 501 129 q 522 85 522 100 q 514 41 525 53 q 496 26 503 29 q 417 1 471 17 q 297 -14 363 -14 m 218 400 q 421 422 363 401 q 485 486 479 442 q 482 548 489 519 q 454 594 475 576 q 396 611 433 611 q 297 585 336 611 q 237 514 258 558 q 204 414 215 469 q 208 404 204 408 q 218 400 211 400 m 675 1003 q 680 980 681 993 q 673 955 679 967 q 654 936 667 943 q 550 877 594 903 q 456 818 506 851 q 427 808 440 808 q 403 818 414 808 q 324 890 364 851 q 244 950 285 928 q 231 974 229 958 q 244 1003 233 989 l 244 1004 q 270 1022 256 1019 q 297 1015 285 1025 q 367 969 333 992 q 436 922 401 946 q 446 919 442 919 q 456 922 450 919 q 533 976 496 947 q 613 1029 569 1006 q 648 1029 628 1039 q 675 1004 668 1019 l 675 1003 z "},"ê":{"ha":672,"x_min":57,"x_max":674,"o":"m 297 -14 q 185 6 231 -14 q 113 59 140 25 q 72 135 85 93 q 58 223 60 176 q 64 313 57 269 l 69 347 q 101 464 78 401 q 165 582 125 526 q 267 673 206 638 q 411 708 328 708 q 532 685 488 708 q 598 626 576 661 q 624 553 619 590 q 625 489 629 517 q 583 400 615 435 q 502 346 550 365 q 400 317 454 326 q 294 305 346 307 q 201 303 242 303 q 190 299 194 303 q 185 289 186 296 q 185 185 178 229 q 224 115 193 140 q 314 90 254 90 q 396 111 358 90 q 456 139 433 132 q 487 137 472 144 q 512 115 501 129 q 522 85 522 100 q 514 41 525 53 q 496 26 503 29 q 417 1 471 17 q 297 -14 363 -14 m 218 400 q 421 422 363 401 q 485 486 479 442 q 482 548 489 519 q 454 594 475 576 q 396 611 433 611 q 297 585 336 611 q 237 514 258 558 q 204 414 215 469 q 208 404 204 408 q 218 400 211 400 m 660 876 q 665 847 674 868 q 643 810 656 825 l 642 808 q 622 794 635 799 q 596 790 608 789 q 575 797 583 792 q 519 838 544 818 q 465 879 493 858 q 413 879 440 897 q 347 838 378 858 q 278 797 315 818 q 240 791 261 788 q 211 808 218 794 l 211 810 q 202 840 206 825 q 215 863 199 854 q 288 900 247 878 q 366 947 328 922 q 431 994 404 972 q 459 1006 446 1006 q 483 994 472 1006 q 571 931 524 961 q 660 876 618 900 z "},"ë":{"ha":672,"x_min":57,"x_max":665,"o":"m 297 -14 q 185 6 231 -14 q 113 59 140 25 q 72 135 85 93 q 58 223 60 176 q 64 313 57 269 l 69 347 q 101 464 78 401 q 165 582 125 526 q 267 673 206 638 q 411 708 328 708 q 532 685 488 708 q 598 626 576 661 q 624 553 619 590 q 625 489 629 517 q 583 400 615 435 q 502 346 550 365 q 400 317 454 326 q 294 305 346 307 q 201 303 242 303 q 190 299 194 303 q 185 289 186 296 q 185 185 178 229 q 224 115 193 140 q 314 90 254 90 q 396 111 358 90 q 456 139 433 132 q 487 137 472 144 q 512 115 501 129 q 522 85 522 100 q 514 41 525 53 q 496 26 503 29 q 417 1 471 17 q 297 -14 363 -14 m 218 400 q 421 422 363 401 q 485 486 479 442 q 482 548 489 519 q 454 594 475 576 q 396 611 433 611 q 297 585 336 611 q 237 514 258 558 q 204 414 215 469 q 208 404 204 408 q 218 400 211 400 m 307 826 q 248 851 269 826 q 232 914 226 876 q 267 975 238 950 q 333 1000 296 1000 q 390 975 369 1000 q 406 914 411 950 q 372 851 400 876 q 307 826 343 826 m 558 840 q 500 865 521 840 q 485 928 479 890 q 519 989 492 964 q 585 1014 547 1014 q 643 989 621 1014 q 658 928 665 964 q 624 865 653 890 q 558 840 594 840 z "},"ė":{"ha":672,"x_min":57,"x_max":629,"o":"m 297 -14 q 185 6 231 -14 q 113 59 140 25 q 72 135 85 93 q 58 223 60 176 q 64 313 57 269 l 69 347 q 101 464 78 401 q 165 582 125 526 q 267 673 206 638 q 411 708 328 708 q 532 685 488 708 q 598 626 576 661 q 624 553 619 590 q 625 489 629 517 q 583 400 615 435 q 502 346 550 365 q 400 317 454 326 q 294 305 346 307 q 201 303 242 303 q 190 299 194 303 q 185 289 186 296 q 185 185 178 229 q 224 115 193 140 q 314 90 254 90 q 396 111 358 90 q 456 139 433 132 q 487 137 472 144 q 512 115 501 129 q 522 85 522 100 q 514 41 525 53 q 496 26 503 29 q 417 1 471 17 q 297 -14 363 -14 m 218 400 q 421 422 363 401 q 485 486 479 442 q 482 548 489 519 q 454 594 475 576 q 396 611 433 611 q 297 585 336 611 q 237 514 258 558 q 204 414 215 469 q 208 404 204 408 q 218 400 211 400 m 363 917 q 397 976 368 953 q 460 1000 426 1000 q 515 976 496 1000 q 529 917 535 953 q 496 858 524 883 q 432 833 468 833 q 378 858 399 833 q 363 917 357 883 z "},"è":{"ha":672,"x_min":57,"x_max":629,"o":"m 297 -14 q 185 6 231 -14 q 113 59 140 25 q 72 135 85 93 q 58 223 60 176 q 64 313 57 269 l 69 347 q 101 464 78 401 q 165 582 125 526 q 267 673 206 638 q 411 708 328 708 q 532 685 488 708 q 598 626 576 661 q 624 553 619 590 q 625 489 629 517 q 583 400 615 435 q 502 346 550 365 q 400 317 454 326 q 294 305 346 307 q 201 303 242 303 q 190 299 194 303 q 185 289 186 296 q 185 185 178 229 q 224 115 193 140 q 314 90 254 90 q 396 111 358 90 q 456 139 433 132 q 487 137 472 144 q 512 115 501 129 q 522 85 522 100 q 514 41 525 53 q 496 26 503 29 q 417 1 471 17 q 297 -14 363 -14 m 218 400 q 421 422 363 401 q 485 486 479 442 q 482 548 489 519 q 454 594 475 576 q 396 611 433 611 q 297 585 336 611 q 237 514 258 558 q 204 414 215 469 q 208 404 204 408 q 218 400 211 400 m 550 901 q 572 867 565 890 q 565 826 579 844 l 564 824 q 528 808 550 806 q 490 821 506 810 q 415 866 451 844 q 340 901 378 888 q 322 919 326 907 q 322 948 318 932 q 335 976 326 964 l 343 988 q 376 1019 357 1007 q 408 1017 394 1032 q 483 949 453 971 q 550 901 514 926 z "},"ē":{"ha":672,"x_min":57,"x_max":742,"o":"m 297 -14 q 185 6 231 -14 q 113 59 140 25 q 72 135 85 93 q 58 223 60 176 q 64 313 57 269 l 69 347 q 101 464 78 401 q 165 582 125 526 q 267 673 206 638 q 411 708 328 708 q 532 685 488 708 q 598 626 576 661 q 624 553 619 590 q 625 489 629 517 q 583 400 615 435 q 502 346 550 365 q 400 317 454 326 q 294 305 346 307 q 201 303 242 303 q 190 299 194 303 q 185 289 186 296 q 185 185 178 229 q 224 115 193 140 q 314 90 254 90 q 396 111 358 90 q 456 139 433 132 q 487 137 472 144 q 512 115 501 129 q 522 85 522 100 q 514 41 525 53 q 496 26 503 29 q 417 1 471 17 q 297 -14 363 -14 m 218 400 q 421 422 363 401 q 485 486 479 442 q 482 548 489 519 q 454 594 475 576 q 396 611 433 611 q 297 585 336 611 q 237 514 258 558 q 204 414 215 469 q 208 404 204 408 q 218 400 211 400 m 739 926 q 726 899 738 913 q 700 876 715 885 q 671 868 685 867 q 204 868 442 889 q 175 886 183 867 q 169 926 167 906 l 169 928 q 186 960 172 949 q 221 972 200 972 q 455 974 338 972 q 690 986 572 976 q 716 978 704 988 q 735 956 728 969 q 739 928 742 942 l 739 926 z "},"ę":{"ha":672,"x_min":57,"x_max":629,"o":"m 297 -14 q 185 6 231 -14 q 113 59 140 25 q 72 135 85 93 q 58 223 60 176 q 64 313 57 269 l 69 347 q 101 464 78 401 q 165 582 125 526 q 267 673 206 638 q 411 708 328 708 q 532 685 488 708 q 598 626 576 661 q 624 553 619 590 q 625 489 629 517 q 583 400 615 435 q 502 346 550 365 q 400 317 454 326 q 294 305 346 307 q 201 303 242 303 q 190 299 194 303 q 185 289 186 296 q 185 185 178 229 q 224 115 193 140 q 314 90 254 90 q 396 111 358 90 q 456 139 433 132 q 487 137 472 144 q 512 115 501 129 q 522 85 522 100 q 514 41 525 53 q 496 26 503 29 q 417 1 471 17 q 297 -14 363 -14 m 218 400 q 421 422 363 401 q 485 486 479 442 q 482 548 489 519 q 454 594 475 576 q 396 611 433 611 q 297 585 336 611 q 237 514 258 558 q 204 414 215 469 q 208 404 204 408 q 218 400 211 400 m 428 -196 q 356 -178 385 -196 q 317 -131 326 -161 q 319 -64 307 -101 q 347 -16 329 -39 q 393 26 364 7 q 464 57 422 44 l 496 26 q 476 19 496 26 q 436 -8 457 11 q 410 -64 415 -28 q 419 -96 407 -86 q 450 -108 432 -106 q 482 -110 468 -110 q 503 -115 493 -110 q 510 -135 513 -119 q 478 -183 504 -169 q 428 -196 451 -196 z "},"ẽ":{"ha":672,"x_min":57,"x_max":689,"o":"m 297 -14 q 185 6 231 -14 q 113 59 140 25 q 72 135 85 93 q 58 223 60 176 q 64 313 57 269 l 69 347 q 101 464 78 401 q 165 582 125 526 q 267 673 206 638 q 411 708 328 708 q 532 685 488 708 q 598 626 576 661 q 624 553 619 590 q 625 489 629 517 q 583 400 615 435 q 502 346 550 365 q 400 317 454 326 q 294 305 346 307 q 201 303 242 303 q 190 299 194 303 q 185 289 186 296 q 185 185 178 229 q 224 115 193 140 q 314 90 254 90 q 396 111 358 90 q 456 139 433 132 q 487 137 472 144 q 512 115 501 129 q 522 85 522 100 q 514 41 525 53 q 496 26 503 29 q 417 1 471 17 q 297 -14 363 -14 m 218 400 q 421 422 363 401 q 485 486 479 442 q 482 548 489 519 q 454 594 475 576 q 396 611 433 611 q 297 585 336 611 q 237 514 258 558 q 204 414 215 469 q 208 404 204 408 q 218 400 211 400 m 215 869 q 209 893 207 881 q 224 917 211 906 q 263 947 240 931 q 312 974 286 963 q 363 986 338 986 q 415 972 396 986 q 447 941 433 958 q 479 910 460 924 q 533 896 499 896 q 576 913 553 896 q 615 940 600 931 q 648 950 631 950 q 675 939 665 950 l 682 933 q 689 911 689 926 q 685 881 689 896 q 671 858 681 867 q 599 819 644 836 q 518 801 554 801 q 464 815 483 801 q 431 847 444 829 q 400 878 418 864 q 347 892 382 892 q 307 881 329 892 q 267 860 285 871 q 241 851 253 850 q 219 863 229 851 l 215 869 z "},"ə":{"ha":674,"x_min":50,"x_max":624,"o":"m 376 708 q 511 683 460 708 q 588 617 563 658 q 619 523 614 575 q 615 417 624 471 l 593 278 q 547 138 582 206 q 442 28 511 71 q 263 -14 374 -14 q 141 11 186 -14 q 75 78 96 36 q 52 172 54 119 q 58 278 50 224 l 68 340 q 88 378 72 365 q 128 392 103 392 l 458 392 q 469 396 465 392 q 475 406 474 400 q 479 510 483 465 q 448 579 475 554 q 360 604 421 604 q 278 583 315 604 q 218 556 242 563 q 188 558 203 550 q 163 580 172 565 q 151 610 153 594 q 160 653 149 642 q 178 668 171 665 q 258 694 203 679 q 376 708 313 708 m 456 286 q 443 294 456 294 l 214 294 q 203 291 208 294 q 199 281 199 288 l 197 278 q 190 183 189 228 q 210 111 190 139 q 278 83 231 83 q 376 111 340 83 q 428 183 411 139 q 454 278 446 228 l 456 286 z "},"f":{"ha":403,"x_min":21,"x_max":513,"o":"m 101 -14 q 44 4 67 -14 q 28 54 21 22 q 57 185 43 119 q 83 319 71 251 q 106 453 94 386 q 126 583 117 519 q 125 594 128 590 q 115 597 122 597 q 78 603 93 597 q 58 619 64 608 q 53 644 51 629 q 64 672 56 661 q 88 689 72 683 q 131 694 104 694 q 142 699 138 694 q 147 708 146 703 q 163 794 154 753 q 186 869 172 835 q 224 931 200 904 q 283 972 247 957 q 372 986 319 986 q 469 974 426 986 q 501 952 489 968 q 501 915 513 936 q 467 879 490 893 q 424 871 443 865 q 410 881 414 874 q 385 889 407 889 q 331 869 349 889 q 305 810 314 850 q 286 710 296 771 q 297 694 283 694 q 344 699 321 696 q 390 701 368 701 q 423 685 414 701 q 428 644 432 669 q 410 606 425 622 q 372 590 396 590 q 328 593 350 590 q 282 597 306 596 q 272 594 276 597 q 265 583 267 590 q 245 453 256 519 q 225 319 235 386 q 208 185 215 251 q 194 54 200 119 q 178 18 193 33 q 144 -6 164 3 q 101 -14 124 -14 z "},"g":{"ha":714,"x_min":33,"x_max":671,"o":"m 224 -292 q 128 -281 171 -292 q 60 -261 86 -271 q 37 -237 40 -253 q 42 -200 33 -221 q 72 -158 53 -171 q 113 -153 90 -144 q 165 -174 133 -160 q 240 -187 196 -187 q 336 -162 301 -187 q 390 -92 371 -137 q 418 13 408 -47 q 421 46 422 38 q 411 54 419 54 q 383 37 406 54 q 322 3 361 19 q 219 -14 282 -14 q 106 24 146 -14 q 56 135 65 63 q 64 313 47 208 l 69 347 q 101 464 78 401 q 166 582 125 526 q 268 673 207 638 q 413 708 329 708 q 526 699 479 708 q 610 674 572 689 q 653 644 636 664 q 664 596 671 625 q 633 447 647 521 q 605 298 618 372 q 580 149 592 224 q 556 0 568 75 q 525 -106 547 -54 q 464 -200 503 -158 q 366 -267 425 -242 q 224 -292 307 -292 m 274 104 q 354 128 314 104 q 424 191 394 151 q 461 278 454 231 q 490 428 474 353 q 521 576 506 503 q 522 587 524 583 q 513 592 519 590 q 466 599 496 594 q 396 604 436 604 q 315 579 349 604 q 260 514 282 554 q 227 429 239 474 q 208 347 215 385 l 203 313 q 200 156 185 207 q 274 104 215 104 z "},"ğ":{"ha":714,"x_min":33,"x_max":694,"o":"m 224 -292 q 128 -281 171 -292 q 60 -261 86 -271 q 37 -237 40 -253 q 42 -200 33 -221 q 72 -158 53 -171 q 113 -153 90 -144 q 165 -174 133 -160 q 240 -187 196 -187 q 336 -162 301 -187 q 390 -92 371 -137 q 418 13 408 -47 q 421 46 422 38 q 411 54 419 54 q 383 37 406 54 q 322 3 361 19 q 219 -14 282 -14 q 106 24 146 -14 q 56 135 65 63 q 64 313 47 208 l 69 347 q 101 464 78 401 q 166 582 125 526 q 268 673 207 638 q 413 708 329 708 q 526 699 479 708 q 610 674 572 689 q 653 644 636 664 q 664 596 671 625 q 633 447 647 521 q 605 298 618 372 q 580 149 592 224 q 556 0 568 75 q 525 -106 547 -54 q 464 -200 503 -158 q 366 -267 425 -242 q 224 -292 307 -292 m 274 104 q 354 128 314 104 q 424 191 394 151 q 461 278 454 231 q 490 428 474 353 q 521 576 506 503 q 522 587 524 583 q 513 592 519 590 q 466 599 496 594 q 396 604 436 604 q 315 579 349 604 q 260 514 282 554 q 227 429 239 474 q 208 347 215 385 l 203 313 q 200 156 185 207 q 274 104 215 104 m 283 1028 q 313 1017 303 1028 q 324 988 322 1007 q 361 919 331 946 q 438 893 392 893 q 500 905 468 893 q 555 938 532 917 q 583 988 578 960 q 603 1024 588 1007 q 639 1042 619 1042 l 640 1042 q 678 1023 663 1042 q 688 981 694 1004 q 635 888 675 931 q 540 821 596 846 q 422 796 483 796 q 326 821 368 796 q 258 888 283 846 q 231 981 233 931 q 245 1016 231 1004 q 282 1028 260 1028 l 283 1028 z "},"ģ":{"ha":714,"x_min":33,"x_max":671,"o":"m 224 -292 q 128 -281 171 -292 q 60 -261 86 -271 q 37 -237 40 -253 q 42 -200 33 -221 q 72 -158 53 -171 q 113 -153 90 -144 q 165 -174 133 -160 q 240 -187 196 -187 q 336 -162 301 -187 q 390 -92 371 -137 q 418 13 408 -47 q 421 46 422 38 q 411 54 419 54 q 383 37 406 54 q 322 3 361 19 q 219 -14 282 -14 q 106 24 146 -14 q 56 135 65 63 q 64 313 47 208 l 69 347 q 101 464 78 401 q 166 582 125 526 q 268 673 207 638 q 413 708 329 708 q 526 699 479 708 q 610 674 572 689 q 653 644 636 664 q 664 596 671 625 q 633 447 647 521 q 605 298 618 372 q 580 149 592 224 q 556 0 568 75 q 525 -106 547 -54 q 464 -200 503 -158 q 366 -267 425 -242 q 224 -292 307 -292 m 274 104 q 354 128 314 104 q 424 191 394 151 q 461 278 454 231 q 490 428 474 353 q 521 576 506 503 q 522 587 524 583 q 513 592 519 590 q 466 599 496 594 q 396 604 436 604 q 315 579 349 604 q 260 514 282 554 q 227 429 239 474 q 208 347 215 385 l 203 313 q 200 156 185 207 q 274 104 215 104 m 519 958 q 585 931 561 958 q 601 861 608 903 q 563 792 596 821 q 488 764 529 764 q 424 792 447 764 q 407 861 401 821 q 447 931 414 903 q 519 958 479 958 m 488 764 q 431 785 454 764 q 399 847 407 806 q 400 944 390 888 q 460 1085 414 1032 q 578 1150 506 1138 q 607 1142 599 1153 q 613 1111 615 1131 l 613 1108 q 567 1065 607 1074 q 520 1043 538 1060 q 497 1000 503 1026 q 519 958 490 958 l 488 764 z "},"ġ":{"ha":714,"x_min":33,"x_max":671,"o":"m 224 -292 q 128 -281 171 -292 q 60 -261 86 -271 q 37 -237 40 -253 q 42 -200 33 -221 q 72 -158 53 -171 q 113 -153 90 -144 q 165 -174 133 -160 q 240 -187 196 -187 q 336 -162 301 -187 q 390 -92 371 -137 q 418 13 408 -47 q 421 46 422 38 q 411 54 419 54 q 383 37 406 54 q 322 3 361 19 q 219 -14 282 -14 q 106 24 146 -14 q 56 135 65 63 q 64 313 47 208 l 69 347 q 101 464 78 401 q 166 582 125 526 q 268 673 207 638 q 413 708 329 708 q 526 699 479 708 q 610 674 572 689 q 653 644 636 664 q 664 596 671 625 q 633 447 647 521 q 605 298 618 372 q 580 149 592 224 q 556 0 568 75 q 525 -106 547 -54 q 464 -200 503 -158 q 366 -267 425 -242 q 224 -292 307 -292 m 274 104 q 354 128 314 104 q 424 191 394 151 q 461 278 454 231 q 490 428 474 353 q 521 576 506 503 q 522 587 524 583 q 513 592 519 590 q 466 599 496 594 q 396 604 436 604 q 315 579 349 604 q 260 514 282 554 q 227 429 239 474 q 208 347 215 385 l 203 313 q 200 156 185 207 q 274 104 215 104 m 367 917 q 401 976 372 953 q 464 1000 431 1000 q 519 976 500 1000 q 533 917 539 953 q 500 858 528 883 q 436 833 472 833 q 382 858 403 833 q 367 917 361 883 z "},"ḡ":{"ha":714,"x_min":33,"x_max":746,"o":"m 224 -292 q 128 -281 171 -292 q 60 -261 86 -271 q 37 -237 40 -253 q 42 -200 33 -221 q 72 -158 53 -171 q 113 -153 90 -144 q 165 -174 133 -160 q 240 -187 196 -187 q 336 -162 301 -187 q 390 -92 371 -137 q 418 13 408 -47 q 421 46 422 38 q 411 54 419 54 q 383 37 406 54 q 322 3 361 19 q 219 -14 282 -14 q 106 24 146 -14 q 56 135 65 63 q 64 313 47 208 l 69 347 q 101 464 78 401 q 166 582 125 526 q 268 673 207 638 q 413 708 329 708 q 526 699 479 708 q 610 674 572 689 q 653 644 636 664 q 664 596 671 625 q 633 447 647 521 q 605 298 618 372 q 580 149 592 224 q 556 0 568 75 q 525 -106 547 -54 q 464 -200 503 -158 q 366 -267 425 -242 q 224 -292 307 -292 m 274 104 q 354 128 314 104 q 424 191 394 151 q 461 278 454 231 q 490 428 474 353 q 521 576 506 503 q 522 587 524 583 q 513 592 519 590 q 466 599 496 594 q 396 604 436 604 q 315 579 349 604 q 260 514 282 554 q 227 429 239 474 q 208 347 215 385 l 203 313 q 200 156 185 207 q 274 104 215 104 m 743 926 q 731 899 742 913 q 704 876 719 885 q 675 868 689 867 q 208 868 446 889 q 179 886 188 867 q 174 926 171 906 l 174 928 q 190 960 176 949 q 225 972 204 972 q 459 974 342 972 q 694 986 576 976 q 720 978 708 988 q 739 956 732 969 q 743 928 746 942 l 743 926 z "},"h":{"ha":750,"x_min":36,"x_max":682,"o":"m 117 -14 q 59 4 82 -14 q 43 54 36 22 q 99 340 74 194 q 149 633 125 486 q 196 918 174 779 q 222 968 201 950 q 278 986 243 986 q 318 978 300 986 q 345 955 336 969 q 349 918 354 940 q 322 807 335 867 q 299 694 308 747 q 294 651 293 663 q 304 640 294 640 q 333 658 311 640 q 394 692 354 675 q 496 708 435 708 q 644 641 607 708 q 657 417 682 574 q 639 297 649 358 q 622 174 629 235 q 613 54 615 113 q 598 18 613 33 q 563 -6 583 3 q 519 -14 542 -14 q 478 -6 497 -14 q 449 18 458 3 q 446 54 440 33 q 469 144 458 99 q 488 235 479 189 q 503 328 496 282 q 518 417 511 374 q 526 528 529 488 q 503 587 522 569 q 444 604 483 604 q 364 577 406 604 q 292 507 322 550 q 254 417 263 464 q 236 297 246 358 q 219 174 226 235 q 210 54 213 113 q 195 18 210 33 q 160 -6 181 3 q 117 -14 139 -14 z "},"ħ":{"ha":750,"x_min":36,"x_max":682,"o":"m 117 -14 q 59 4 82 -14 q 43 54 36 22 q 99 340 74 194 q 149 633 125 486 q 196 918 174 779 q 222 968 201 950 q 278 986 243 986 q 318 978 300 986 q 345 955 336 969 q 349 918 354 940 q 322 807 335 867 q 299 694 308 747 q 294 651 293 663 q 304 640 294 640 q 333 658 311 640 q 394 692 354 675 q 496 708 435 708 q 644 641 607 708 q 657 417 682 574 q 639 297 649 358 q 622 174 629 235 q 613 54 615 113 q 598 18 613 33 q 563 -6 583 3 q 519 -14 542 -14 q 478 -6 497 -14 q 449 18 458 3 q 446 54 440 33 q 469 144 458 99 q 488 235 479 189 q 503 328 496 282 q 518 417 511 374 q 526 528 529 488 q 503 587 522 569 q 444 604 483 604 q 364 577 406 604 q 292 507 322 550 q 254 417 263 464 q 236 297 246 358 q 219 174 226 235 q 210 54 213 113 q 195 18 210 33 q 160 -6 181 3 q 117 -14 139 -14 m 632 818 q 619 790 631 804 q 593 767 608 776 q 564 760 578 758 q 97 760 335 781 q 68 778 76 758 q 63 818 60 797 l 63 819 q 79 852 65 840 q 114 864 93 864 q 348 866 231 864 q 583 878 465 868 q 609 870 597 879 q 628 847 621 861 q 632 819 635 833 l 632 818 z "},"i":{"ha":372,"x_min":46,"x_max":376,"o":"m 126 -14 q 69 4 92 -14 q 54 54 46 22 q 94 247 76 147 q 125 447 111 347 q 147 640 139 547 q 164 677 150 663 q 199 700 178 692 q 243 708 221 708 q 290 690 275 708 q 300 640 306 672 q 269 447 285 547 q 242 247 254 347 q 221 54 229 147 q 203 18 218 33 q 169 -6 189 3 q 126 -14 149 -14 m 257 806 q 211 819 231 806 q 182 854 192 832 q 176 903 172 876 q 197 952 181 931 q 238 987 214 974 q 289 1000 263 1000 q 353 972 329 1000 q 371 903 376 943 q 331 835 365 864 q 257 806 297 806 z "},"ı":{"ha":346,"x_min":38,"x_max":294,"o":"m 118 -14 q 60 4 83 -14 q 43 54 38 22 q 83 247 65 147 q 115 447 101 347 q 138 640 129 547 q 153 677 139 663 q 188 700 167 692 q 232 708 210 708 q 279 690 264 708 q 290 640 294 672 q 260 447 275 547 q 231 247 244 347 q 210 54 218 147 q 194 18 208 33 q 160 -6 181 3 q 118 -14 140 -14 z "},"í":{"ha":346,"x_min":38,"x_max":410,"o":"m 118 -14 q 60 4 83 -14 q 43 54 38 22 q 83 247 65 147 q 115 447 101 347 q 138 640 129 547 q 153 677 139 663 q 188 700 167 692 q 232 708 210 708 q 279 690 264 708 q 290 640 294 672 q 260 447 275 547 q 231 247 244 347 q 210 54 218 147 q 194 18 208 33 q 160 -6 181 3 q 118 -14 140 -14 m 183 825 q 151 818 165 814 q 128 840 136 822 l 128 843 q 125 874 119 860 q 150 900 131 889 q 239 954 194 926 q 331 1018 283 982 q 368 1028 347 1032 q 399 1004 389 1024 l 403 996 q 405 963 410 983 q 388 924 400 942 q 363 903 376 907 q 263 869 307 890 q 183 825 219 849 z "},"î":{"ha":346,"x_min":18,"x_max":493,"o":"m 118 -14 q 60 4 83 -14 q 43 54 38 22 q 83 247 65 147 q 115 447 101 347 q 138 640 129 547 q 153 677 139 663 q 188 700 167 692 q 232 708 210 708 q 279 690 264 708 q 290 640 294 672 q 260 447 275 547 q 231 247 244 347 q 210 54 218 147 q 194 18 208 33 q 160 -6 181 3 q 118 -14 140 -14 m 479 876 q 484 847 493 868 q 463 810 475 825 l 461 808 q 441 794 454 799 q 415 790 428 789 q 394 797 403 792 q 338 838 364 818 q 285 879 313 858 q 232 879 260 897 q 166 838 197 858 q 97 797 135 818 q 59 791 81 788 q 31 808 38 794 l 31 810 q 22 840 25 825 q 35 863 18 854 q 107 900 67 878 q 185 947 147 922 q 250 994 224 972 q 278 1006 265 1006 q 303 994 292 1006 q 390 931 343 961 q 479 876 438 900 z "},"ï":{"ha":346,"x_min":38,"x_max":485,"o":"m 118 -14 q 60 4 83 -14 q 43 54 38 22 q 83 247 65 147 q 115 447 101 347 q 138 640 129 547 q 153 677 139 663 q 188 700 167 692 q 232 708 210 708 q 279 690 264 708 q 290 640 294 672 q 260 447 275 547 q 231 247 244 347 q 210 54 218 147 q 194 18 208 33 q 160 -6 181 3 q 118 -14 140 -14 m 126 826 q 67 851 89 826 q 51 914 46 876 q 86 975 57 950 q 153 1000 115 1000 q 210 975 189 1000 q 225 914 231 950 q 191 851 219 876 q 126 826 163 826 m 378 840 q 319 865 340 840 q 304 928 299 890 q 339 989 311 964 q 404 1014 367 1014 q 463 989 440 1014 q 478 928 485 964 q 443 865 472 890 q 378 840 414 840 z "},"ì":{"ha":346,"x_min":38,"x_max":399,"o":"m 118 -14 q 60 4 83 -14 q 43 54 38 22 q 83 247 65 147 q 115 447 101 347 q 138 640 129 547 q 153 677 139 663 q 188 700 167 692 q 232 708 210 708 q 279 690 264 708 q 290 640 294 672 q 260 447 275 547 q 231 247 244 347 q 210 54 218 147 q 194 18 208 33 q 160 -6 181 3 q 118 -14 140 -14 m 369 901 q 392 867 385 890 q 385 826 399 844 l 383 824 q 347 808 369 806 q 310 821 325 810 q 234 866 271 844 q 160 901 197 888 q 142 919 146 907 q 142 948 138 932 q 154 976 146 964 l 163 988 q 195 1019 176 1007 q 228 1017 214 1032 q 303 949 272 971 q 369 901 333 926 z "},"ī":{"ha":346,"x_min":-14,"x_max":561,"o":"m 118 -14 q 60 4 83 -14 q 43 54 38 22 q 83 247 65 147 q 115 447 101 347 q 138 640 129 547 q 153 677 139 663 q 188 700 167 692 q 232 708 210 708 q 279 690 264 708 q 290 640 294 672 q 260 447 275 547 q 231 247 244 347 q 210 54 218 147 q 194 18 208 33 q 160 -6 181 3 q 118 -14 140 -14 m 558 926 q 546 899 557 913 q 519 876 535 885 q 490 868 504 867 q 24 868 261 889 q -6 886 3 867 q -11 926 -14 906 l -11 928 q 6 960 -8 949 q 40 972 19 972 q 274 974 157 972 q 510 986 392 976 q 535 978 524 988 q 554 956 547 969 q 558 928 561 942 l 558 926 z "},"į":{"ha":372,"x_min":-6,"x_max":376,"o":"m 126 -14 q 69 4 92 -14 q 54 54 46 22 q 94 247 76 147 q 125 447 111 347 q 147 640 139 547 q 164 677 150 663 q 199 700 178 692 q 243 708 221 708 q 290 690 275 708 q 300 640 306 672 q 269 447 285 547 q 242 247 254 347 q 221 54 229 147 q 203 18 218 33 q 169 -6 189 3 q 126 -14 149 -14 m 257 806 q 211 819 231 806 q 182 854 192 832 q 176 903 172 876 q 197 952 181 931 q 238 987 214 974 q 289 1000 263 1000 q 353 972 329 1000 q 371 903 376 943 q 331 835 365 864 q 257 806 297 806 m 115 -222 q 43 -205 72 -222 q 4 -158 14 -187 q 7 -90 -6 -128 q 34 -42 17 -65 q 81 -1 51 -19 q 151 31 110 18 l 183 0 q 164 -8 183 0 q 124 -35 144 -15 q 97 -90 103 -54 q 107 -122 94 -112 q 138 -134 119 -132 q 169 -136 156 -136 q 190 -141 181 -136 q 197 -161 200 -146 q 165 -209 192 -196 q 115 -222 139 -222 z "},"ĩ":{"ha":346,"x_min":26,"x_max":508,"o":"m 118 -14 q 60 4 83 -14 q 43 54 38 22 q 83 247 65 147 q 115 447 101 347 q 138 640 129 547 q 153 677 139 663 q 188 700 167 692 q 232 708 210 708 q 279 690 264 708 q 290 640 294 672 q 260 447 275 547 q 231 247 244 347 q 210 54 218 147 q 194 18 208 33 q 160 -6 181 3 q 118 -14 140 -14 m 35 869 q 28 893 26 881 q 43 917 31 906 q 83 947 60 931 q 131 974 106 963 q 182 986 157 986 q 234 972 215 986 q 266 941 253 958 q 299 910 279 924 q 353 896 318 896 q 396 913 372 896 q 435 940 419 931 q 467 950 450 950 q 494 939 485 950 l 501 933 q 508 911 508 926 q 504 881 508 896 q 490 858 500 867 q 419 819 464 836 q 338 801 374 801 q 283 815 303 801 q 251 847 264 829 q 219 878 238 864 q 167 892 201 892 q 126 881 149 892 q 86 860 104 871 q 60 851 72 850 q 39 863 49 851 l 35 869 z "},"ĳ":{"ha":697,"x_min":46,"x_max":703,"o":"m 126 -14 q 69 4 92 -14 q 54 54 46 22 q 94 247 76 147 q 125 447 111 347 q 147 640 139 547 q 164 677 150 663 q 199 700 178 692 q 243 708 221 708 q 290 690 275 708 q 300 640 306 672 q 269 447 285 547 q 242 247 254 347 q 221 54 229 147 q 203 18 218 33 q 169 -6 189 3 q 126 -14 149 -14 m 257 806 q 211 819 231 806 q 182 854 192 832 q 176 903 172 876 q 197 952 181 931 q 238 987 214 974 q 289 1000 263 1000 q 353 972 329 1000 q 371 903 376 943 q 331 835 365 864 q 257 806 297 806 m 263 -292 q 225 -276 236 -290 q 215 -242 214 -262 q 238 -194 219 -215 q 282 -176 257 -172 q 338 -167 319 -183 q 365 -108 356 -150 q 386 0 375 -67 q 419 213 403 104 q 450 428 436 321 q 474 640 464 536 q 490 677 476 663 q 526 700 504 692 q 569 708 547 708 q 617 690 601 708 q 626 640 632 672 q 592 428 610 536 q 558 213 575 321 q 524 0 540 104 q 499 -115 514 -61 q 458 -210 485 -169 q 384 -273 431 -251 q 263 -292 338 -294 m 583 806 q 537 819 557 806 q 507 854 517 832 q 501 903 497 876 q 523 952 506 931 q 565 987 540 974 q 615 1000 589 1000 q 679 972 656 1000 q 696 903 703 943 q 675 854 692 876 q 635 819 658 832 q 583 806 611 806 z "},"j":{"ha":358,"x_min":-125,"x_max":364,"o":"m -76 -292 q -114 -276 -103 -290 q -124 -242 -125 -262 q -101 -194 -119 -215 q -57 -176 -82 -172 q -1 -167 -19 -183 q 26 -108 17 -150 q 47 0 36 -67 q 81 213 64 104 q 111 428 97 321 q 135 640 125 536 q 151 677 138 663 q 187 700 165 692 q 231 708 208 708 q 278 690 263 708 q 288 640 293 672 q 253 428 271 536 q 219 213 236 321 q 185 0 201 104 q 160 -115 175 -61 q 119 -210 146 -169 q 45 -273 92 -251 q -76 -292 -1 -294 m 244 806 q 198 819 218 806 q 168 854 178 832 q 163 903 158 876 q 184 952 167 931 q 226 987 201 974 q 276 1000 250 1000 q 340 972 317 1000 q 357 903 364 943 q 336 854 353 876 q 296 819 319 832 q 244 806 272 806 z "},"ȷ":{"ha":331,"x_min":-126,"x_max":293,"o":"m -75 -292 q -114 -276 -101 -290 q -124 -242 -126 -262 q -112 -208 -121 -224 q -88 -183 -103 -192 q -57 -176 -74 -174 q -1 -167 -19 -183 q 27 -108 17 -150 q 47 0 38 -67 q 81 213 64 104 q 111 428 97 321 q 135 640 125 536 q 151 677 138 663 q 187 700 165 692 q 231 708 208 708 q 278 690 263 708 q 288 640 293 672 q 253 428 271 536 q 219 213 236 321 q 185 0 201 104 q 160 -115 175 -61 q 119 -210 146 -169 q 45 -273 92 -251 q -75 -292 -1 -294 z "},"k":{"ha":696,"x_min":36,"x_max":646,"o":"m 117 -14 q 59 4 82 -14 q 43 54 36 22 q 99 340 74 194 q 145 633 124 486 q 182 918 167 779 q 199 955 185 940 q 234 978 213 969 q 278 986 256 986 q 325 968 310 986 q 335 918 340 950 q 281 656 304 790 q 238 393 257 522 q 240 382 236 383 q 253 388 244 381 q 385 521 325 454 q 490 654 446 588 q 534 693 506 678 q 610 708 563 708 q 637 699 628 708 q 646 676 646 690 q 638 645 646 663 q 613 611 629 628 l 435 428 q 436 410 424 417 q 526 328 490 385 q 583 199 563 271 q 607 57 603 128 q 597 19 610 35 q 562 -6 583 3 q 518 -14 540 -14 q 469 3 483 -14 q 456 53 454 19 q 447 165 457 110 q 413 265 436 221 q 353 329 390 310 q 332 324 342 333 l 228 215 q 222 208 224 211 q 219 199 221 204 l 196 54 q 169 4 190 22 q 117 -14 149 -14 z "},"ķ":{"ha":696,"x_min":36,"x_max":646,"o":"m 117 -14 q 59 4 82 -14 q 43 54 36 22 q 99 340 74 194 q 145 633 124 486 q 182 918 167 779 q 199 955 185 940 q 234 978 213 969 q 278 986 256 986 q 325 968 310 986 q 335 918 340 950 q 281 656 304 790 q 238 393 257 522 q 240 382 236 383 q 253 388 244 381 q 385 521 325 454 q 490 654 446 588 q 534 693 506 678 q 610 708 563 708 q 637 699 628 708 q 646 676 646 690 q 638 645 646 663 q 613 611 629 628 l 435 428 q 436 410 424 417 q 526 328 490 385 q 583 199 563 271 q 607 57 603 128 q 597 19 610 35 q 562 -6 583 3 q 518 -14 540 -14 q 469 3 483 -14 q 456 53 454 19 q 447 165 457 110 q 413 265 436 221 q 353 329 390 310 q 332 324 342 333 l 228 215 q 222 208 224 211 q 219 199 221 204 l 196 54 q 169 4 190 22 q 117 -14 149 -14 m 225 -325 q 202 -340 218 -335 q 172 -346 186 -346 l 167 -346 q 144 -342 157 -346 q 123 -331 131 -339 q 122 -312 115 -324 q 182 -219 158 -258 q 231 -125 206 -179 q 255 -112 235 -117 q 299 -106 275 -108 q 339 -104 324 -104 l 349 -104 q 367 -108 361 -104 q 372 -120 372 -112 q 364 -139 371 -128 q 294 -232 324 -192 q 225 -325 265 -272 z "},"l":{"ha":407,"x_min":60,"x_max":356,"o":"m 226 -7 q 122 10 158 -11 q 73 73 86 32 q 64 167 60 114 q 81 278 68 221 q 124 490 104 382 q 163 706 144 599 q 197 918 181 814 q 222 968 201 950 q 278 986 243 986 q 318 978 300 986 q 346 955 336 969 q 350 918 356 940 q 297 706 319 814 q 255 490 274 599 q 219 278 236 382 q 208 179 208 213 q 217 135 207 146 q 247 125 228 125 q 285 106 272 126 q 290 46 297 85 q 267 8 286 21 q 226 -7 247 -6 z "},"ĺ":{"ha":407,"x_min":60,"x_max":486,"o":"m 226 -7 q 122 10 158 -11 q 73 73 86 32 q 64 167 60 114 q 81 278 68 221 q 124 490 104 382 q 163 706 144 599 q 197 918 181 814 q 222 968 201 950 q 278 986 243 986 q 318 978 300 986 q 346 955 336 969 q 350 918 356 940 q 297 706 319 814 q 255 490 274 599 q 219 278 236 382 q 208 179 208 213 q 217 135 207 146 q 247 125 228 125 q 285 106 272 126 q 290 46 297 85 q 267 8 286 21 q 226 -7 247 -6 m 260 1103 q 227 1096 242 1092 q 204 1118 213 1100 l 204 1121 q 201 1152 196 1138 q 226 1178 207 1167 q 315 1232 271 1204 q 407 1296 360 1260 q 444 1306 424 1310 q 475 1282 465 1301 l 479 1274 q 481 1240 486 1261 q 465 1202 476 1219 q 439 1181 453 1185 q 340 1147 383 1168 q 260 1103 296 1126 z "},"ľ":{"ha":461,"x_min":60,"x_max":574,"o":"m 226 -7 q 122 10 158 -11 q 73 73 86 32 q 64 167 60 114 q 81 278 68 221 q 124 490 104 382 q 163 706 144 599 q 197 918 181 814 q 222 968 201 950 q 278 986 243 986 q 318 978 300 986 q 346 955 336 969 q 350 918 356 940 q 297 706 319 814 q 255 490 274 599 q 219 278 236 382 q 208 179 208 213 q 217 135 207 146 q 247 125 228 125 q 285 106 272 126 q 290 46 297 85 q 267 8 286 21 q 226 -7 247 -6 m 449 946 q 461 968 450 960 q 487 981 472 976 q 514 986 501 986 l 517 986 q 543 981 529 986 q 565 968 557 976 q 571 946 574 960 l 525 721 q 506 701 521 707 q 472 694 490 694 l 469 694 q 440 701 457 694 q 425 721 424 707 l 449 946 z "},"ļ":{"ha":407,"x_min":-35,"x_max":356,"o":"m 226 -7 q 122 10 158 -11 q 73 73 86 32 q 64 167 60 114 q 81 278 68 221 q 124 490 104 382 q 163 706 144 599 q 197 918 181 814 q 222 968 201 950 q 278 986 243 986 q 318 978 300 986 q 346 955 336 969 q 350 918 356 940 q 297 706 319 814 q 255 490 274 599 q 219 278 236 382 q 208 179 208 213 q 217 135 207 146 q 247 125 228 125 q 285 106 272 126 q 290 46 297 85 q 267 8 286 21 q 226 -7 247 -6 m 75 -325 q 52 -340 68 -335 q 22 -346 36 -346 l 17 -346 q -6 -342 7 -346 q -27 -331 -19 -339 q -28 -312 -35 -324 q 32 -219 8 -258 q 81 -125 56 -179 q 105 -112 85 -117 q 149 -106 125 -108 q 189 -104 174 -104 l 199 -104 q 217 -108 211 -104 q 222 -120 222 -112 q 214 -139 221 -128 q 144 -232 174 -192 q 75 -325 115 -272 z "},"ŀ":{"ha":547,"x_min":60,"x_max":543,"o":"m 417 257 q 353 285 375 257 q 340 354 331 313 q 363 403 346 382 q 406 438 381 425 q 458 451 431 451 q 521 423 499 451 q 535 354 543 394 q 491 285 525 313 q 417 257 457 257 m 226 -7 q 122 10 158 -11 q 73 73 86 32 q 64 167 60 114 q 81 278 68 221 q 124 490 104 382 q 163 706 144 599 q 197 918 181 814 q 222 968 201 950 q 278 986 243 986 q 318 978 300 986 q 346 955 336 969 q 350 918 356 940 q 297 706 319 814 q 255 490 274 599 q 219 278 236 382 q 208 179 208 213 q 217 135 207 146 q 247 125 228 125 q 285 106 272 126 q 290 46 297 85 q 267 8 286 21 q 226 -7 247 -6 z "},"ł":{"ha":476,"x_min":26,"x_max":453,"o":"m 38 317 q 29 356 26 332 q 50 394 32 381 q 211 522 129 454 q 374 660 293 590 q 409 675 392 675 q 438 660 426 675 l 442 656 q 450 617 453 642 q 429 578 447 592 q 269 449 350 518 q 107 311 189 381 q 72 297 89 297 q 43 311 54 297 l 38 317 m 279 -7 q 175 10 211 -11 q 126 73 139 32 q 117 167 113 114 q 133 278 121 221 q 177 490 157 382 q 215 706 197 599 q 250 918 233 814 q 275 968 254 950 q 331 986 296 986 q 371 978 353 986 q 399 955 389 969 q 403 918 408 940 q 349 706 372 814 q 308 490 326 599 q 272 278 289 382 q 260 179 261 213 q 270 135 260 146 q 300 125 281 125 q 338 106 325 126 q 343 46 350 85 q 319 8 339 21 q 279 -7 300 -6 z "},"m":{"ha":1153,"x_min":38,"x_max":1086,"o":"m 118 -14 q 60 4 83 -14 q 43 54 38 22 q 85 252 67 151 q 117 454 103 353 q 140 651 132 556 q 163 687 140 675 q 213 699 186 699 q 244 688 235 699 q 254 654 253 676 q 259 629 256 640 q 272 618 263 618 q 299 632 281 618 q 345 663 317 646 q 411 694 374 681 q 494 708 449 708 q 585 693 549 708 q 642 644 622 678 q 655 626 649 633 q 668 618 661 618 q 699 632 679 618 q 747 663 718 646 q 813 694 775 681 q 897 708 851 708 q 1047 641 1008 708 q 1060 417 1086 574 q 1042 297 1051 358 q 1025 174 1032 235 q 1015 54 1018 113 q 1001 18 1015 33 q 967 -6 988 3 q 924 -14 946 -14 q 882 -6 901 -14 q 853 18 863 3 q 849 54 843 33 q 872 144 861 99 q 890 235 882 189 q 906 328 899 282 q 921 417 914 374 q 921 563 938 522 q 846 604 904 604 q 766 577 807 604 q 695 507 725 550 q 657 417 665 464 q 639 297 649 358 q 622 174 629 235 q 613 54 615 113 q 599 18 613 33 q 564 -6 585 3 q 521 -14 543 -14 q 479 -6 499 -14 q 450 18 460 3 q 446 54 440 33 q 469 144 458 99 q 488 235 479 189 q 503 328 496 282 q 518 417 511 374 q 518 563 535 522 q 443 604 501 604 q 363 577 404 604 q 292 507 322 550 q 254 417 263 464 q 236 297 246 358 q 219 174 226 235 q 210 54 213 113 q 196 18 210 33 q 161 -6 182 3 q 118 -14 140 -14 z "},"n":{"ha":750,"x_min":36,"x_max":683,"o":"m 140 651 q 163 687 140 675 q 208 699 186 699 q 243 688 233 699 q 254 654 253 676 q 259 629 256 640 q 272 618 263 618 q 299 632 281 618 q 345 663 317 646 q 411 694 374 681 q 494 708 449 708 q 644 641 606 708 q 657 417 683 574 q 639 297 649 358 q 622 173 629 235 q 613 53 615 111 q 599 17 613 32 q 565 -6 585 1 q 522 -14 544 -14 q 461 3 486 -14 q 446 53 436 21 q 469 143 458 97 q 488 235 479 189 q 503 327 496 281 q 518 417 511 374 q 518 563 535 522 q 443 604 501 604 q 363 577 404 604 q 292 507 322 550 q 254 417 263 464 q 236 297 246 358 q 219 173 226 235 q 210 53 213 111 q 196 17 210 32 q 162 -6 182 1 q 119 -14 142 -14 q 60 3 83 -14 q 43 53 36 21 q 84 251 65 150 q 117 453 103 351 q 140 651 132 556 z "},"ń":{"ha":750,"x_min":36,"x_max":683,"o":"m 140 651 q 163 687 140 675 q 208 699 186 699 q 243 688 233 699 q 254 654 253 676 q 259 629 256 640 q 272 618 263 618 q 299 632 281 618 q 345 663 317 646 q 411 694 374 681 q 494 708 449 708 q 644 641 606 708 q 657 417 683 574 q 639 297 649 358 q 622 173 629 235 q 613 53 615 111 q 599 17 613 32 q 565 -6 585 1 q 522 -14 544 -14 q 461 3 486 -14 q 446 53 436 21 q 469 143 458 97 q 488 235 479 189 q 503 327 496 281 q 518 417 511 374 q 518 563 535 522 q 443 604 501 604 q 363 577 404 604 q 292 507 322 550 q 254 417 263 464 q 236 297 246 358 q 219 173 226 235 q 210 53 213 111 q 196 17 210 32 q 162 -6 182 1 q 119 -14 142 -14 q 60 3 83 -14 q 43 53 36 21 q 84 251 65 150 q 117 453 103 351 q 140 651 132 556 m 385 825 q 352 818 367 814 q 329 840 338 822 l 329 843 q 326 874 321 860 q 351 900 332 889 q 440 954 396 926 q 532 1018 485 982 q 569 1028 549 1032 q 600 1004 590 1024 l 604 996 q 606 963 611 983 q 590 924 601 942 q 564 903 578 907 q 465 869 508 890 q 385 825 421 849 z "},"ň":{"ha":750,"x_min":36,"x_max":701,"o":"m 140 651 q 163 687 140 675 q 208 699 186 699 q 243 688 233 699 q 254 654 253 676 q 259 629 256 640 q 272 618 263 618 q 299 632 281 618 q 345 663 317 646 q 411 694 374 681 q 494 708 449 708 q 644 641 606 708 q 657 417 683 574 q 639 297 649 358 q 622 173 629 235 q 613 53 615 111 q 599 17 613 32 q 565 -6 585 1 q 522 -14 544 -14 q 461 3 486 -14 q 446 53 436 21 q 469 143 458 97 q 488 235 479 189 q 503 327 496 281 q 518 417 511 374 q 518 563 535 522 q 443 604 501 604 q 363 577 404 604 q 292 507 322 550 q 254 417 263 464 q 236 297 246 358 q 219 173 226 235 q 210 53 213 111 q 196 17 210 32 q 162 -6 182 1 q 119 -14 142 -14 q 60 3 83 -14 q 43 53 36 21 q 84 251 65 150 q 117 453 103 351 q 140 651 132 556 m 696 1003 q 701 980 701 993 q 694 955 700 967 q 675 936 688 943 q 571 877 615 903 q 476 818 526 851 q 448 808 461 808 q 424 818 435 808 q 345 890 385 851 q 265 950 306 928 q 252 974 250 958 q 265 1003 254 989 l 265 1004 q 291 1022 276 1019 q 318 1015 306 1025 q 388 969 354 992 q 457 922 422 946 q 467 919 463 919 q 476 922 471 919 q 553 976 517 947 q 633 1029 590 1006 q 669 1029 649 1039 q 696 1004 689 1019 l 696 1003 z "},"ņ":{"ha":750,"x_min":36,"x_max":683,"o":"m 140 651 q 163 687 140 675 q 208 699 186 699 q 243 688 233 699 q 254 654 253 676 q 259 629 256 640 q 272 618 263 618 q 299 632 281 618 q 345 663 317 646 q 411 694 374 681 q 494 708 449 708 q 644 641 606 708 q 657 417 683 574 q 639 297 649 358 q 622 173 629 235 q 613 53 615 111 q 599 17 613 32 q 565 -6 585 1 q 522 -14 544 -14 q 461 3 486 -14 q 446 53 436 21 q 469 143 458 97 q 488 235 479 189 q 503 327 496 281 q 518 417 511 374 q 518 563 535 522 q 443 604 501 604 q 363 577 404 604 q 292 507 322 550 q 254 417 263 464 q 236 297 246 358 q 219 173 226 235 q 210 53 213 111 q 196 17 210 32 q 162 -6 182 1 q 119 -14 142 -14 q 60 3 83 -14 q 43 53 36 21 q 84 251 65 150 q 117 453 103 351 q 140 651 132 556 m 246 -325 q 223 -340 239 -335 q 193 -346 207 -346 l 188 -346 q 165 -342 178 -346 q 144 -331 151 -339 q 143 -312 136 -324 q 203 -219 179 -258 q 251 -125 226 -179 q 276 -112 256 -117 q 320 -106 296 -108 q 360 -104 344 -104 l 369 -104 q 388 -108 382 -104 q 392 -120 393 -112 q 385 -139 392 -128 q 315 -232 344 -192 q 246 -325 286 -272 z "},"ñ":{"ha":750,"x_min":36,"x_max":710,"o":"m 140 651 q 163 687 140 675 q 208 699 186 699 q 243 688 233 699 q 254 654 253 676 q 259 629 256 640 q 272 618 263 618 q 299 632 281 618 q 345 663 317 646 q 411 694 374 681 q 494 708 449 708 q 644 641 606 708 q 657 417 683 574 q 639 297 649 358 q 622 173 629 235 q 613 53 615 111 q 599 17 613 32 q 565 -6 585 1 q 522 -14 544 -14 q 461 3 486 -14 q 446 53 436 21 q 469 143 458 97 q 488 235 479 189 q 503 327 496 281 q 518 417 511 374 q 518 563 535 522 q 443 604 501 604 q 363 577 404 604 q 292 507 322 550 q 254 417 263 464 q 236 297 246 358 q 219 173 226 235 q 210 53 213 111 q 196 17 210 32 q 162 -6 182 1 q 119 -14 142 -14 q 60 3 83 -14 q 43 53 36 21 q 84 251 65 150 q 117 453 103 351 q 140 651 132 556 m 236 869 q 230 893 228 881 q 244 917 232 906 q 284 947 261 931 q 333 974 307 963 q 383 986 358 986 q 435 972 417 986 q 467 941 454 958 q 500 910 481 924 q 554 896 519 896 q 597 913 574 896 q 636 940 621 931 q 669 950 651 950 q 696 939 686 950 l 703 933 q 710 911 710 926 q 706 881 710 896 q 692 858 701 867 q 620 819 665 836 q 539 801 575 801 q 485 815 504 801 q 452 847 465 829 q 421 878 439 864 q 368 892 403 892 q 328 881 350 892 q 288 860 306 871 q 262 851 274 850 q 240 863 250 851 l 236 869 z "},"o":{"ha":708,"x_min":57,"x_max":647,"o":"m 633 313 q 602 201 625 258 q 540 94 579 143 q 440 16 500 46 q 297 -14 381 -14 q 185 6 231 -14 q 113 59 140 25 q 72 135 85 93 q 58 223 60 176 q 64 313 57 269 l 69 347 q 101 464 78 401 q 165 582 125 526 q 267 673 206 638 q 411 708 328 708 q 544 673 494 708 q 617 582 593 638 q 644 464 640 526 q 639 347 647 401 l 633 313 m 500 347 q 507 427 506 383 q 499 511 508 471 q 466 578 490 551 q 394 604 442 604 q 315 578 347 604 q 260 511 282 551 q 226 427 238 471 q 208 347 214 383 l 203 313 q 197 247 197 282 q 207 178 197 211 q 242 125 217 146 q 315 104 268 104 q 394 125 363 104 q 447 178 426 146 q 478 247 467 211 q 494 313 489 282 l 500 347 z "},"ó":{"ha":708,"x_min":57,"x_max":647,"o":"m 633 313 q 602 201 625 258 q 540 94 579 143 q 440 16 500 46 q 297 -14 381 -14 q 185 6 231 -14 q 113 59 140 25 q 72 135 85 93 q 58 223 60 176 q 64 313 57 269 l 69 347 q 101 464 78 401 q 165 582 125 526 q 267 673 206 638 q 411 708 328 708 q 544 673 494 708 q 617 582 593 638 q 644 464 640 526 q 639 347 647 401 l 633 313 m 500 347 q 507 427 506 383 q 499 511 508 471 q 466 578 490 551 q 394 604 442 604 q 315 578 347 604 q 260 511 282 551 q 226 427 238 471 q 208 347 214 383 l 203 313 q 197 247 197 282 q 207 178 197 211 q 242 125 217 146 q 315 104 268 104 q 394 125 363 104 q 447 178 426 146 q 478 247 467 211 q 494 313 489 282 l 500 347 m 364 825 q 331 818 346 814 q 308 840 317 822 l 308 843 q 306 874 300 860 q 331 900 311 889 q 419 954 375 926 q 511 1018 464 982 q 549 1028 528 1032 q 579 1004 569 1024 l 583 996 q 585 963 590 983 q 569 924 581 942 q 543 903 557 907 q 444 869 488 890 q 364 825 400 849 z "},"ô":{"ha":708,"x_min":57,"x_max":674,"o":"m 633 313 q 602 201 625 258 q 540 94 579 143 q 440 16 500 46 q 297 -14 381 -14 q 185 6 231 -14 q 113 59 140 25 q 72 135 85 93 q 58 223 60 176 q 64 313 57 269 l 69 347 q 101 464 78 401 q 165 582 125 526 q 267 673 206 638 q 411 708 328 708 q 544 673 494 708 q 617 582 593 638 q 644 464 640 526 q 639 347 647 401 l 633 313 m 500 347 q 507 427 506 383 q 499 511 508 471 q 466 578 490 551 q 394 604 442 604 q 315 578 347 604 q 260 511 282 551 q 226 427 238 471 q 208 347 214 383 l 203 313 q 197 247 197 282 q 207 178 197 211 q 242 125 217 146 q 315 104 268 104 q 394 125 363 104 q 447 178 426 146 q 478 247 467 211 q 494 313 489 282 l 500 347 m 660 876 q 665 847 674 868 q 643 810 656 825 l 642 808 q 622 794 635 799 q 596 790 608 789 q 575 797 583 792 q 519 838 544 818 q 465 879 493 858 q 413 879 440 897 q 347 838 378 858 q 278 797 315 818 q 240 791 261 788 q 211 808 218 794 l 211 810 q 202 840 206 825 q 215 863 199 854 q 288 900 247 878 q 366 947 328 922 q 431 994 404 972 q 459 1006 446 1006 q 483 994 472 1006 q 571 931 524 961 q 660 876 618 900 z "},"ö":{"ha":708,"x_min":57,"x_max":665,"o":"m 633 313 q 602 201 625 258 q 540 94 579 143 q 440 16 500 46 q 297 -14 381 -14 q 185 6 231 -14 q 113 59 140 25 q 72 135 85 93 q 58 223 60 176 q 64 313 57 269 l 69 347 q 101 464 78 401 q 165 582 125 526 q 267 673 206 638 q 411 708 328 708 q 544 673 494 708 q 617 582 593 638 q 644 464 640 526 q 639 347 647 401 l 633 313 m 500 347 q 507 427 506 383 q 499 511 508 471 q 466 578 490 551 q 394 604 442 604 q 315 578 347 604 q 260 511 282 551 q 226 427 238 471 q 208 347 214 383 l 203 313 q 197 247 197 282 q 207 178 197 211 q 242 125 217 146 q 315 104 268 104 q 394 125 363 104 q 447 178 426 146 q 478 247 467 211 q 494 313 489 282 l 500 347 m 307 826 q 248 851 269 826 q 232 914 226 876 q 267 975 238 950 q 333 1000 296 1000 q 390 975 369 1000 q 406 914 411 950 q 372 851 400 876 q 307 826 343 826 m 558 840 q 500 865 521 840 q 485 928 479 890 q 519 989 492 964 q 585 1014 547 1014 q 643 989 621 1014 q 658 928 665 964 q 624 865 653 890 q 558 840 594 840 z "},"ò":{"ha":708,"x_min":57,"x_max":647,"o":"m 633 313 q 602 201 625 258 q 540 94 579 143 q 440 16 500 46 q 297 -14 381 -14 q 185 6 231 -14 q 113 59 140 25 q 72 135 85 93 q 58 223 60 176 q 64 313 57 269 l 69 347 q 101 464 78 401 q 165 582 125 526 q 267 673 206 638 q 411 708 328 708 q 544 673 494 708 q 617 582 593 638 q 644 464 640 526 q 639 347 647 401 l 633 313 m 500 347 q 507 427 506 383 q 499 511 508 471 q 466 578 490 551 q 394 604 442 604 q 315 578 347 604 q 260 511 282 551 q 226 427 238 471 q 208 347 214 383 l 203 313 q 197 247 197 282 q 207 178 197 211 q 242 125 217 146 q 315 104 268 104 q 394 125 363 104 q 447 178 426 146 q 478 247 467 211 q 494 313 489 282 l 500 347 m 550 901 q 572 867 565 890 q 565 826 579 844 l 564 824 q 528 808 550 806 q 490 821 506 810 q 415 866 451 844 q 340 901 378 888 q 322 919 326 907 q 322 948 318 932 q 335 976 326 964 l 343 988 q 376 1019 357 1007 q 408 1017 394 1032 q 483 949 453 971 q 550 901 514 926 z "},"ő":{"ha":708,"x_min":57,"x_max":731,"o":"m 633 313 q 602 201 625 258 q 540 94 579 143 q 440 16 500 46 q 297 -14 381 -14 q 185 6 231 -14 q 113 59 140 25 q 72 135 85 93 q 58 223 60 176 q 64 313 57 269 l 69 347 q 101 464 78 401 q 165 582 125 526 q 267 673 206 638 q 411 708 328 708 q 544 673 494 708 q 617 582 593 638 q 644 464 640 526 q 639 347 647 401 l 633 313 m 500 347 q 507 427 506 383 q 499 511 508 471 q 466 578 490 551 q 394 604 442 604 q 315 578 347 604 q 260 511 282 551 q 226 427 238 471 q 208 347 214 383 l 203 313 q 197 247 197 282 q 207 178 197 211 q 242 125 217 146 q 315 104 268 104 q 394 125 363 104 q 447 178 426 146 q 478 247 467 211 q 494 313 489 282 l 500 347 m 375 808 q 350 791 368 797 q 318 785 332 785 l 313 785 q 282 795 294 785 q 281 824 269 806 q 349 931 317 878 q 408 1039 382 985 q 430 1053 413 1049 q 469 1060 447 1058 q 507 1063 492 1063 l 517 1063 q 537 1057 531 1063 q 542 1042 543 1051 q 533 1022 542 1033 q 455 915 494 969 q 375 808 415 861 m 549 808 q 524 791 542 797 q 492 785 506 785 l 486 785 q 456 795 468 785 q 454 824 443 806 q 525 931 490 878 q 596 1039 560 985 q 630 1057 603 1051 q 681 1063 657 1063 l 690 1063 q 715 1056 704 1063 q 728 1041 725 1050 q 721 1022 731 1032 q 630 915 671 969 q 549 808 589 861 z "},"ō":{"ha":708,"x_min":57,"x_max":742,"o":"m 633 313 q 602 201 625 258 q 540 94 579 143 q 440 16 500 46 q 297 -14 381 -14 q 185 6 231 -14 q 113 59 140 25 q 72 135 85 93 q 58 223 60 176 q 64 313 57 269 l 69 347 q 101 464 78 401 q 165 582 125 526 q 267 673 206 638 q 411 708 328 708 q 544 673 494 708 q 617 582 593 638 q 644 464 640 526 q 639 347 647 401 l 633 313 m 500 347 q 507 427 506 383 q 499 511 508 471 q 466 578 490 551 q 394 604 442 604 q 315 578 347 604 q 260 511 282 551 q 226 427 238 471 q 208 347 214 383 l 203 313 q 197 247 197 282 q 207 178 197 211 q 242 125 217 146 q 315 104 268 104 q 394 125 363 104 q 447 178 426 146 q 478 247 467 211 q 494 313 489 282 l 500 347 m 739 926 q 726 899 738 913 q 700 876 715 885 q 671 868 685 867 q 204 868 442 889 q 175 886 183 867 q 169 926 167 906 l 169 928 q 186 960 172 949 q 221 972 200 972 q 455 974 338 972 q 690 986 572 976 q 716 978 704 988 q 735 956 728 969 q 739 928 742 942 l 739 926 z "}}}
